<svg width="160" height="86" viewBox="0 0 160 86" fill="none" xmlns="http://www.w3.org/2000/svg">
<path fill-rule="evenodd" clip-rule="evenodd" d="M105.081 75.846C98.6091 80.211 90.8382 82.7547 82.481 82.7547C73.6198 82.7547 65.4178 79.895 58.7248 75.0366C52.5451 81.7746 43.6684 85.9988 33.805 85.9988C15.135 85.9988 0 70.8637 0 52.1937C0 33.5237 15.135 18.3887 33.805 18.3887C38.4548 18.3887 42.8853 19.3275 46.9173 21.0258C53.9296 8.4724 67.2288 0 82.481 0C99.0666 0 113.343 10.0185 119.737 24.4088C122.426 23.6584 125.26 23.2572 128.188 23.2572C145.514 23.2572 159.559 37.3025 159.559 54.6283C159.559 71.954 145.514 85.9994 128.188 85.9994C119.045 85.9994 110.815 82.0875 105.081 75.846Z" fill="url(#paint0_linear_1047_4059)" fill-opacity="0.5"/>
<defs>
<linearGradient id="paint0_linear_1047_4059" x1="79.7797" y1="0" x2="79.7797" y2="85.9994" gradientUnits="userSpaceOnUse">
<stop stop-color="#1F87F8"/>
<stop offset="0.770833" stop-color="#1F87F8" stop-opacity="0"/>
</linearGradient>
</defs>
</svg>
