<svg width="374" height="340" viewBox="0 0 374 340" fill="none" xmlns="http://www.w3.org/2000/svg">
<path d="M315.839 235.014C386.72 259.034 386.72 297.97 315.839 321.986C244.957 346.002 130.032 346.007 59.1584 321.986C-11.7157 297.966 -11.7232 259.03 59.1584 235.014C130.04 210.998 244.965 210.993 315.839 235.014Z" fill="#1F87F8" fill-opacity="0.05"/>
<path d="M339.958 260.25L224.654 326.822C223.127 327.596 221.44 328 219.728 328C218.017 328 216.329 327.596 214.803 326.822L41.1395 226.56C38.4167 224.989 38.4167 222.438 41.1395 220.868L156.444 154.296C157.97 153.521 159.658 153.117 161.369 153.117C163.081 153.117 164.768 153.521 166.295 154.296L339.958 254.528C342.681 256.128 342.681 258.679 339.958 260.25Z" fill="#1F87F8" fill-opacity="0.2"/>
<path d="M336.436 251.752C336.436 254.505 334.379 257.915 331.843 259.382L224.363 321.465C222.94 322.188 221.366 322.565 219.77 322.565C218.174 322.565 216.6 322.188 215.177 321.465L47.5131 224.607C44.9774 223.111 42.9203 219.73 42.9203 216.985C42.9203 214.24 44.9774 210.821 47.5131 209.355L154.993 147.271C156.416 146.549 157.99 146.172 159.586 146.172C161.182 146.172 162.756 146.549 164.179 147.271L331.843 244.1C334.356 245.566 336.436 248.977 336.436 251.752Z" fill="url(#paint0_linear_1028_4331)" fill-opacity="0.9"/>
<path d="M219.763 312.57V322.511C221.361 322.544 222.942 322.168 224.355 321.419L331.843 259.335C334.379 257.839 336.436 254.458 336.436 251.713C336.436 249.133 334.618 245.976 332.307 244.383C334.364 245.879 334.207 248.018 331.843 249.387L224.355 311.471C222.944 312.225 221.362 312.604 219.763 312.57Z" fill="url(#paint1_linear_1028_4331)"/>
<path d="M162.361 1.82612C164.508 0.113195 168.203 0.128155 170.739 1.58676L338.396 98.4154C339.733 99.2877 340.845 100.463 341.643 101.846C342.441 103.228 342.902 104.78 342.988 106.374V237.648C342.988 240.573 341.163 243.797 338.598 244.784C335.89 245.824 334.356 245.532 331.821 244.081L164.179 147.305C162.843 146.433 161.731 145.259 160.933 143.878C160.135 142.496 159.674 140.946 159.586 139.353V8.042C159.586 5.11732 160.117 3.61384 162.361 1.82612Z" fill="#208BF9"/>
<path d="M162.361 18.746C164.508 17.0331 166.968 21.0453 169.504 22.5039L338.396 119.504C339.733 120.376 340.845 117.383 341.643 118.766C342.441 120.148 342.902 121.7 342.988 123.294V237.571C342.988 240.496 341.163 243.72 338.598 244.707C335.89 245.747 334.356 245.455 331.821 244.004L164.179 147.228C162.843 146.356 161.731 145.182 160.933 143.801C160.135 142.419 159.674 140.869 159.586 139.276V24.9619C159.586 22.0372 160.117 20.5337 162.361 18.746Z" fill="white"/>
<path d="M159.586 8.04201C159.586 5.11733 161.643 3.93549 164.178 5.39409L331.842 102.193C333.206 103.038 334.33 104.221 335.104 105.626L341.656 101.819C340.877 100.425 339.755 99.253 338.395 98.4154L170.738 1.58677C168.203 0.0907669 164.5 0.090768 162.368 1.81865C160.072 3.64377 159.586 5.11733 159.586 8.04201Z" fill="url(#paint2_linear_1028_4331)"/>
<path d="M336.414 241.444V110.147C336.353 108.561 335.889 107.017 335.068 105.659L341.62 101.859C342.445 103.216 342.908 104.761 342.967 106.347V237.666C342.967 240.591 341.142 243.815 338.576 244.802C335.868 245.842 334.335 245.55 331.799 244.099C334.357 245.558 336.414 244.368 336.414 241.444Z" fill="url(#paint3_linear_1028_4331)"/>
<path d="M325.057 111.446L170.002 27.0027C168.506 26.1201 167.249 26.8382 167.249 28.596L165.271 138.059C165.321 139.015 165.597 139.946 166.076 140.775C166.554 141.604 167.221 142.309 168.023 142.832L329.374 235.965C330.87 236.84 332.127 236.13 332.127 234.372L327.809 116.219C327.757 115.263 327.48 114.333 327.002 113.504C326.524 112.675 325.857 111.97 325.057 111.446Z" fill="url(#paint4_linear_1028_4331)"/>
<path d="M329.376 119.035L168.025 25.909C166.529 25.0263 165.273 25.7444 165.273 27.5022V145.029C165.323 145.985 165.599 146.916 166.077 147.745C166.556 148.574 167.223 149.279 168.025 149.801L330.004 242.5C331.5 243.375 332.129 243.1 332.129 241.342V123.807C332.076 122.852 331.8 121.922 331.322 121.093C330.843 120.264 330.177 119.559 329.376 119.035Z" fill="white"/>
<path d="M307.937 255.798L144.439 161.616C143.805 161.255 143.095 161.047 142.367 161.007C141.638 160.967 140.91 161.097 140.24 161.386L97.691 185.937C96.6354 186.539 96.818 187.624 98.0879 188.353L261.396 282.377C262.029 282.74 262.738 282.951 263.467 282.993C264.196 283.034 264.925 282.904 265.594 282.615L308.326 258.214C309.382 257.588 309.168 256.535 307.937 255.798Z" fill="url(#paint5_linear_1028_4331)"/>
<path d="M200.936 255.187L199.888 255.793L172.025 271.875L122.478 243.264L121.446 242.68L150.356 225.992L200.936 255.187Z" fill="url(#paint6_linear_1028_4331)"/>
<path d="M123.113 243.637L150.355 227.914L199.252 256.159L172.025 271.874L123.113 243.637Z" fill="white" fill-opacity="0.63"/>
<path opacity="0.2" d="M283.431 83.3257L282.634 81.5795C282.582 81.4985 282.554 81.4045 282.554 81.3083C282.554 81.2122 282.582 81.1181 282.634 81.0372C282.729 80.9416 282.889 81.0372 282.984 81.2446L283.782 82.9908L284.579 82.1935C284.675 82.0978 284.834 82.1934 284.93 82.4008C284.978 82.4832 285.003 82.5767 285.003 82.6719C285.003 82.7671 284.978 82.8606 284.93 82.943L284.133 83.7404L284.93 85.4867C284.978 85.5688 285.004 85.6624 285.004 85.7578C285.004 85.8531 284.978 85.9467 284.93 86.0289C284.905 86.0483 284.874 86.0588 284.842 86.0588C284.811 86.0588 284.78 86.0483 284.755 86.0289C284.677 85.9754 284.616 85.9007 284.579 85.8136L283.782 84.0673L282.984 84.8647C282.959 84.8841 282.928 84.8946 282.897 84.8946C282.865 84.8946 282.834 84.8841 282.809 84.8647C282.731 84.8112 282.67 84.7365 282.634 84.6494C282.53 84.4421 282.53 84.1949 282.634 84.1072L283.431 83.3257Z" fill="url(#paint7_linear_1028_4331)"/>
<path d="M159.504 15V25.1189L336.504 127.5V117.389L223.686 52.3065C222.657 51.7084 222.306 50.7994 221.812 49.0531L220.504 44.5C220.089 42.9052 219.659 41.8367 218.614 41.2387L174.933 16.081C173.888 15.4829 173.075 15.4191 172.286 16.7269L170.691 19.6453C170.101 20.666 169.806 21.2401 168.769 20.666L159.504 15Z" fill="#A3CEFA"/>
<path opacity="0.2" d="M171.844 28.2315L173.965 29.4595L173.168 27.8647C173.135 27.8062 173.118 27.7403 173.118 27.6733C173.118 27.6063 173.135 27.5404 173.168 27.4819C173.231 27.4102 173.335 27.4819 173.407 27.5936L174.563 29.8103C174.568 29.8367 174.568 29.8637 174.563 29.8901C174.567 29.9298 174.567 29.9699 174.563 30.0097C174.567 30.0414 174.567 30.0736 174.563 30.1053V30.1532L173.407 31.0383C173.391 31.05 173.371 31.0563 173.351 31.0563C173.331 31.0563 173.311 31.05 173.295 31.0383C173.235 31.002 173.19 30.9455 173.168 30.8788C173.104 30.7273 173.112 30.5678 173.168 30.512L173.965 29.8901L171.844 28.6621C171.789 28.62 171.744 28.5656 171.714 28.5034C171.683 28.4411 171.668 28.3726 171.669 28.3032C171.669 28.2554 171.748 28.1916 171.844 28.2315Z" fill="url(#paint8_linear_1028_4331)"/>
<path opacity="0.2" d="M170.071 27.2087L167.95 25.9807L168.747 25.3587C168.819 25.3029 168.827 25.1435 168.747 24.9919C168.667 24.8404 168.58 24.7766 168.508 24.8325L167.36 25.7176V25.7574C167.355 25.7918 167.355 25.8267 167.36 25.8611C167.356 25.8982 167.356 25.9356 167.36 25.9727C167.36 25.9727 167.36 26.0286 167.36 26.0604L168.508 28.2772C168.532 28.3295 168.571 28.3737 168.619 28.4048C168.628 28.4135 168.638 28.4204 168.648 28.4251C168.659 28.4298 168.671 28.4323 168.683 28.4323C168.695 28.4323 168.707 28.4298 168.718 28.4251C168.729 28.4204 168.739 28.4135 168.747 28.4048C168.78 28.3463 168.797 28.2804 168.797 28.2134C168.797 28.1464 168.78 28.0805 168.747 28.022L167.95 26.4272L170.071 27.6552C170.166 27.7111 170.246 27.6552 170.246 27.4878C170.225 27.3758 170.163 27.2759 170.071 27.2087Z" fill="url(#paint9_linear_1028_4331)"/>
<path opacity="0.2" d="M163.1 21.0898C163.1 20.9622 163.227 20.9782 163.283 21.0898L163.602 21.8154C164.097 21.7596 164.703 22.246 165.109 23.1072C165.635 24.2236 165.635 25.5393 165.109 26.0416C164.982 26.1624 164.817 26.2349 164.642 26.2466C164.467 26.2582 164.294 26.2083 164.152 26.1054C163.727 25.8186 163.394 25.414 163.195 24.9412C163.163 24.8854 163.146 24.8222 163.146 24.7578C163.146 24.6934 163.163 24.6302 163.195 24.5744C163.267 24.5106 163.371 24.5744 163.443 24.71C163.833 25.5074 164.471 25.914 164.87 25.5074C165.269 25.1007 165.261 24.1438 164.87 23.3145C164.583 22.7245 164.184 22.3736 163.833 22.3497L164.057 22.8839C164.112 23.0275 164.057 23.1551 163.969 23.0992L163.1 22.5331C163.067 22.5027 163.042 22.4655 163.025 22.4241C163.009 22.3828 163.001 22.3383 163.004 22.2939L163.1 21.0898Z" fill="url(#paint10_linear_1028_4331)"/>
<path d="M326.355 118.292V115.557C326.331 115.088 326.196 114.631 325.962 114.224C325.728 113.817 325.401 113.47 325.008 113.213L179.356 29.1837C178.607 28.7531 178.001 29.1039 178.001 29.9811V32.7241C178.028 33.1937 178.164 33.6504 178.4 34.0575C178.635 34.4647 178.963 34.8109 179.356 35.0684L325.008 119.074C325.749 119.504 326.355 119.153 326.355 118.292Z" fill="#FAFAFA"/>
<path d="M322.629 116.714C322.662 116.72 322.697 116.72 322.731 116.714C322.795 116.686 322.847 116.637 322.879 116.577C322.911 116.517 322.921 116.448 322.907 116.381L322.792 115.469L323.233 115.163C323.273 115.135 323.305 115.097 323.327 115.054C323.348 115.011 323.358 114.963 323.355 114.915C323.357 114.841 323.341 114.768 323.308 114.701C323.275 114.634 323.226 114.576 323.165 114.531L322.486 114.029V113.977L322.188 113.026C322.169 112.947 322.126 112.875 322.064 112.821C322.003 112.766 321.925 112.731 321.842 112.719C321.787 112.716 321.732 112.728 321.685 112.755C321.638 112.782 321.6 112.822 321.577 112.869L321.326 113.391L320.736 113.136C320.683 113.116 320.626 113.113 320.571 113.125C320.516 113.138 320.467 113.167 320.43 113.208C320.382 113.273 320.355 113.35 320.355 113.43C320.355 113.509 320.382 113.587 320.43 113.651L320.919 114.537C320.924 114.554 320.924 114.572 320.919 114.589L320.803 115.384C320.797 115.458 320.806 115.531 320.83 115.601C320.855 115.67 320.894 115.734 320.946 115.788C320.98 115.824 321.023 115.851 321.07 115.868C321.117 115.885 321.167 115.891 321.217 115.886L321.767 115.821L322.364 116.551C322.392 116.596 322.43 116.634 322.476 116.663C322.522 116.691 322.575 116.709 322.629 116.714ZM322.955 114.863L322.514 115.169C322.467 115.206 322.431 115.253 322.409 115.307C322.388 115.361 322.382 115.419 322.391 115.476L322.466 116.082L322.066 115.593C322.035 115.545 321.99 115.507 321.937 115.482C321.884 115.458 321.825 115.449 321.767 115.456L321.211 115.521C321.206 115.502 321.206 115.482 321.211 115.463L321.326 114.661C321.338 114.563 321.319 114.463 321.272 114.374L320.837 113.606L321.278 113.762C321.343 113.789 321.417 113.79 321.482 113.765C321.548 113.741 321.602 113.693 321.631 113.632L321.828 113.221L322.1 114.068C322.13 114.165 322.189 114.251 322.269 114.316L322.948 114.811C322.953 114.828 322.956 114.846 322.955 114.863Z" fill="#208BF9" fill-opacity="0.4"/>
<g opacity="0.2">
<path d="M332.636 118.853C332.718 118.853 332.799 118.832 332.87 118.791C332.941 118.751 333.001 118.692 333.043 118.622C333.104 118.513 333.121 118.385 333.09 118.265C333.059 118.144 332.982 118.04 332.875 117.976L329.064 115.783C329.011 115.752 328.953 115.732 328.893 115.723C328.833 115.715 328.772 115.718 328.713 115.733C328.654 115.749 328.599 115.775 328.55 115.812C328.502 115.848 328.461 115.894 328.43 115.946C328.399 115.999 328.379 116.057 328.37 116.117C328.362 116.177 328.365 116.238 328.38 116.297C328.395 116.356 328.422 116.411 328.459 116.46C328.495 116.509 328.541 116.549 328.593 116.58L332.405 118.781C332.473 118.828 332.553 118.853 332.636 118.853Z" fill="url(#paint11_linear_1028_4331)"/>
<path d="M332.636 121.053C332.718 121.053 332.799 121.032 332.87 120.991C332.941 120.951 333.001 120.892 333.043 120.821C333.104 120.713 333.121 120.585 333.09 120.465C333.059 120.344 332.982 120.24 332.875 120.176L329.064 117.975C328.954 117.914 328.826 117.898 328.705 117.931C328.584 117.964 328.481 118.042 328.418 118.15C328.357 118.258 328.342 118.386 328.374 118.505C328.407 118.625 328.486 118.726 328.593 118.788L332.405 120.989C332.474 121.033 332.554 121.055 332.636 121.053Z" fill="url(#paint12_linear_1028_4331)"/>
<path d="M332.636 123.279C332.718 123.278 332.798 123.256 332.869 123.216C332.94 123.175 333 123.118 333.043 123.048C333.104 122.94 333.121 122.812 333.09 122.691C333.059 122.57 332.982 122.467 332.875 122.402L329.064 120.201C328.954 120.14 328.826 120.125 328.705 120.157C328.584 120.19 328.481 120.269 328.418 120.377C328.357 120.485 328.342 120.612 328.374 120.732C328.407 120.851 328.486 120.953 328.593 121.015L332.405 123.216C332.475 123.256 332.555 123.278 332.636 123.279Z" fill="url(#paint13_linear_1028_4331)"/>
</g>
<path d="M213.75 150.574C214.182 150.845 214.7 150.946 215.202 150.857C215.705 150.768 216.156 150.495 216.468 150.091L216.5 150.043L216.468 149.953C216.468 149.926 215.406 147.246 213.75 146.301C213.314 146.033 212.793 145.94 212.291 146.038C211.788 146.136 211.341 146.42 211.038 146.832L211.001 146.885L211.038 146.975C211.048 146.985 212.115 149.64 213.75 150.574ZM216.32 149.937C216.016 150.309 215.587 150.556 215.114 150.632C214.64 150.709 214.155 150.608 213.75 150.351C212.354 149.549 211.388 147.437 211.186 146.97C211.483 146.591 211.909 146.336 212.383 146.254C212.856 146.172 213.343 146.268 213.75 146.524C215.152 147.331 216.118 149.464 216.32 149.937Z" fill="#188AF7"/>
<path d="M213.749 146.802C214.123 147.069 214.43 147.421 214.643 147.828C214.857 148.236 214.973 148.688 214.98 149.148C214.98 150.05 214.45 150.464 213.749 150.071C213.376 149.804 213.07 149.453 212.858 149.047C212.645 148.64 212.53 148.189 212.523 147.73C212.523 146.828 213.075 146.414 213.749 146.802ZM213.749 149.233C214.078 149.419 214.343 149.233 214.343 148.782C214.34 148.56 214.285 148.342 214.181 148.145C214.078 147.949 213.93 147.779 213.749 147.651C213.425 147.46 213.16 147.651 213.16 148.097C213.164 148.319 213.219 148.537 213.321 148.734C213.423 148.931 213.57 149.102 213.749 149.233Z" fill="#188AF7"/>
<path d="M134.482 27.6198C134.64 27.5645 134.809 27.5471 134.976 27.5692C135.142 27.5913 135.301 27.6522 135.439 27.747L236.038 85.8142C236.454 86.0887 236.8 86.457 237.048 86.8896C237.297 87.3222 237.44 87.8071 237.466 88.3051V203.729C237.484 203.902 237.458 204.076 237.39 204.235C237.322 204.395 237.214 204.535 237.077 204.642C237.324 204.484 239.493 203.258 239.755 203.093C239.898 202.989 240.012 202.85 240.084 202.688C240.156 202.527 240.185 202.349 240.167 202.173V86.7492C240.139 86.2507 239.994 85.7657 239.745 85.3331C239.495 84.9005 239.148 84.5324 238.73 84.2584L138.139 26.1912C137.992 26.0843 137.817 26.0196 137.636 26.0038C137.454 25.988 137.271 26.0217 137.107 26.1014C136.875 26.236 134.99 27.3281 134.482 27.6198Z" fill="url(#paint14_linear_1028_4331)"/>
<path d="M236.038 85.8165L135.44 27.7493C134.647 27.293 134.004 27.667 134.004 28.5796V144.018C134.03 144.517 134.174 145.003 134.423 145.436C134.673 145.869 135.021 146.237 135.44 146.509L236.038 204.562C236.831 205.018 237.475 204.644 237.475 203.731V88.3074C237.448 87.8084 237.305 87.3227 237.055 86.8899C236.805 86.457 236.457 86.0892 236.038 85.8165Z" fill="url(#paint15_linear_1028_4331)"/>
<path d="M237.032 86.8915L239.732 85.3281C239.989 85.7592 240.133 86.248 240.151 86.7493V202.173C240.169 202.349 240.14 202.527 240.068 202.688C239.996 202.85 239.883 202.989 239.74 203.093C239.478 203.258 237.309 204.485 237.062 204.642C237.199 204.535 237.306 204.395 237.374 204.236C237.442 204.076 237.468 203.902 237.451 203.729V88.3052C237.436 87.8056 237.291 87.3185 237.032 86.8915Z" fill="url(#paint16_linear_1028_4331)"/>
<path d="M134.797 28.2204C134.669 28.2204 134.669 28.542 134.669 28.5794V144.018C134.696 144.4 134.809 144.77 134.999 145.102C135.19 145.434 135.453 145.718 135.769 145.933L236.368 203.985C236.459 204.047 236.564 204.083 236.674 204.09C236.809 204.09 236.809 203.769 236.809 203.731V88.3072C236.783 87.9248 236.669 87.5534 236.477 87.2215C236.285 86.8896 236.02 86.606 235.702 86.3924L135.111 28.3251C135.017 28.2637 134.909 28.2276 134.797 28.2204ZM134.797 27.5547C135.024 27.5651 135.245 27.6319 135.44 27.7492L236.038 85.8164C236.457 86.0891 236.805 86.4569 237.055 86.8897C237.305 87.3226 237.448 87.8083 237.475 88.3072V203.731C237.475 204.382 237.145 204.756 236.674 204.756C236.45 204.744 236.231 204.677 236.038 204.561L135.44 146.494C135.021 146.221 134.673 145.854 134.423 145.421C134.174 144.988 134.03 144.502 134.004 144.003V28.5794C134.004 27.9287 134.325 27.5547 134.797 27.5547Z" fill="url(#paint17_linear_1028_4331)"/>
<path d="M186.922 74.4699C180.968 71.0431 176.172 73.8083 176.172 80.6817C176.172 87.5551 180.988 95.8971 186.922 99.2974C192.856 102.698 197.672 99.959 197.672 93.0922C197.672 86.2254 192.856 77.9033 186.922 74.4699Z" fill="white"/>
<path d="M186.92 79.8676C184.995 78.7562 183.434 79.6559 183.434 81.8522C183.499 83.0621 183.849 84.2396 184.455 85.289C185.06 86.3384 185.905 87.2302 186.92 87.892C188.845 89.0034 190.406 88.1037 190.406 85.9074C190.341 84.6975 189.991 83.52 189.385 82.4706C188.78 81.4212 187.935 80.5294 186.92 79.8676Z" fill="#188AF7" fill-opacity="0.4"/>
<path d="M180.126 91.7222C180.126 88.0705 182.686 86.5887 185.855 88.4145L187.839 89.559C191.002 91.3848 193.568 95.8304 193.568 99.4821V100.468C191.736 101.07 189.434 100.746 186.953 99.2968C184.205 97.6017 181.881 95.3004 180.159 92.569L180.126 91.7222Z" fill="#188AF7" fill-opacity="0.4"/>
<path d="M215.294 129.641L152.034 93.1214C151.564 92.8414 151.174 93.0614 151.174 93.6214V101.001C151.192 101.301 151.278 101.592 151.428 101.852C151.577 102.113 151.784 102.335 152.034 102.501L215.294 139.021C215.774 139.301 216.164 139.071 216.164 138.521V131.141C216.147 130.841 216.059 130.548 215.908 130.288C215.757 130.027 215.547 129.806 215.294 129.641Z" fill="white"/>
<path d="M215.294 147.64L152.034 111.12C151.564 110.84 151.174 111.07 151.174 111.62V119C151.192 119.299 151.278 119.59 151.428 119.851C151.577 120.111 151.784 120.333 152.034 120.5L215.294 157.02C215.774 157.3 216.164 157.08 216.164 156.52V149.14C216.147 148.839 216.059 148.546 215.908 148.286C215.757 148.025 215.547 147.804 215.294 147.64Z" fill="white"/>
<path d="M195.911 158.651L170.911 144.241C169.911 143.681 169.171 144.131 169.171 145.241V152.961C169.203 153.563 169.378 154.148 169.681 154.67C169.983 155.191 170.404 155.634 170.911 155.961L195.911 170.381C196.911 170.931 197.641 170.481 197.641 169.381V161.651C197.606 161.051 197.431 160.467 197.131 159.946C196.831 159.425 196.413 158.982 195.911 158.651Z" fill="white"/>
<path d="M208.922 150.574C209.354 150.845 209.872 150.946 210.374 150.857C210.877 150.768 211.328 150.495 211.64 150.091L211.672 150.043L211.64 149.953C211.64 149.926 210.578 147.246 208.922 146.301C208.486 146.033 207.965 145.94 207.463 146.038C206.96 146.136 206.513 146.42 206.21 146.832L206.172 146.885L206.21 146.975C206.22 146.985 207.287 149.64 208.922 150.574ZM211.491 149.937C211.188 150.309 210.759 150.556 210.285 150.632C209.812 150.709 209.327 150.608 208.922 150.351C207.526 149.549 206.56 147.437 206.358 146.97C206.655 146.591 207.081 146.336 207.555 146.254C208.028 146.172 208.515 146.268 208.922 146.524C210.324 147.331 211.29 149.464 211.491 149.937Z" fill="#188AF7"/>
<path d="M208.921 146.802C209.295 147.069 209.601 147.421 209.815 147.828C210.029 148.236 210.145 148.688 210.152 149.148C210.152 150.05 209.622 150.464 208.921 150.071C208.548 149.804 208.242 149.453 208.029 149.047C207.816 148.64 207.702 148.189 207.695 147.73C207.695 146.828 208.247 146.414 208.921 146.802ZM208.921 149.233C209.25 149.419 209.515 149.233 209.515 148.782C209.512 148.56 209.457 148.342 209.353 148.145C209.25 147.949 209.102 147.779 208.921 147.651C208.597 147.46 208.332 147.651 208.332 148.097C208.335 148.319 208.391 148.537 208.493 148.734C208.595 148.931 208.742 149.102 208.921 149.233Z" fill="#188AF7"/>
<path d="M178.732 157.296L178.732 156.958L180.046 157.717C179.863 157.385 179.714 157.129 179.6 156.949L179.891 156.933C180.069 157.229 180.228 157.503 180.368 157.753L180.134 157.767L180.947 158.237C181.025 158.192 181.155 158.102 181.339 157.966C181.417 157.907 181.469 157.869 181.494 157.853L181.793 158.21C181.764 158.227 181.713 158.259 181.64 158.306C181.516 158.385 181.423 158.441 181.36 158.475L182.703 159.251L182.703 159.589L178.732 157.296ZM179.34 156.557L179.34 155.267L182.073 156.845L182.073 158.135L179.34 156.557ZM179.662 156.424L181.747 157.628L181.747 156.975L179.662 155.77L179.662 156.424ZM178.798 155.229C178.747 155.07 178.695 154.923 178.641 154.79C178.91 154.812 179.17 154.777 179.421 154.682C179.291 154.473 179.113 154.196 178.885 153.853L179.091 153.732C179.254 153.972 179.443 154.253 179.657 154.574C179.86 154.467 180.033 154.312 180.175 154.11L178.907 153.378L178.907 153.043L180.51 153.968L180.51 154.346C180.36 154.575 180.191 154.753 180.005 154.88L181.406 155.69C181.15 155.215 180.931 154.636 180.75 153.953L181.057 154.051C181.113 154.276 181.183 154.502 181.264 154.729C181.604 154.691 181.855 154.65 182.019 154.607L182.215 155.005C181.906 155.058 181.64 155.091 181.415 155.106C181.484 155.267 181.568 155.443 181.669 155.634C181.889 155.616 182.146 155.576 182.441 155.514L182.642 155.91C182.387 155.957 182.137 155.99 181.894 156.009C182.121 156.362 182.403 156.704 182.74 157.033C182.718 157.064 182.687 157.117 182.646 157.193C182.618 157.244 182.597 157.281 182.583 157.303C182.09 156.768 181.701 156.236 181.415 155.707L181.415 156.013L179.996 155.193L179.996 154.888C179.709 155.084 179.31 155.198 178.798 155.229Z" fill="url(#paint18_linear_1028_4331)"/>
<path d="M184.406 160.663C184.387 160.509 184.364 160.367 184.336 160.236C184.431 160.298 184.57 160.382 184.754 160.488C184.869 160.554 184.949 160.573 184.994 160.546C185.039 160.516 185.062 160.432 185.062 160.294L185.062 159.759C184.285 159.713 183.698 159.676 183.302 159.649L183.173 159.171C183.412 159.211 183.715 159.249 184.083 159.285C184.434 159.321 184.76 159.346 185.062 159.36L185.062 158.628L183.206 157.557L183.206 157.223L186.247 158.979L186.247 158.449L183.711 156.985L183.711 156.654L186.247 158.118L186.247 157.598L183.628 156.086L183.628 155.758L186.577 157.461L186.577 159.17L187.198 159.528L187.198 159.861L185.397 158.821L185.397 158.927C185.535 159.33 185.676 159.667 185.821 159.937C186.144 159.878 186.426 159.811 186.665 159.735L186.901 160.162C186.649 160.217 186.362 160.268 186.042 160.315C186.183 160.528 186.349 160.74 186.54 160.953C186.721 161.154 186.943 161.375 187.207 161.619C187.198 161.634 187.183 161.655 187.161 161.683C187.094 161.781 187.049 161.853 187.028 161.901C186.592 161.465 186.254 161.076 186.013 160.735C185.767 160.384 185.561 159.998 185.397 159.576L185.397 160.561C185.397 160.796 185.362 160.941 185.292 160.995C185.22 161.05 185.088 161.028 184.896 160.931C184.768 160.867 184.604 160.777 184.406 160.663ZM184.249 159.194C184.029 158.87 183.785 158.531 183.518 158.179L183.711 158.012C183.956 158.324 184.207 158.658 184.465 159.016L184.249 159.194Z" fill="url(#paint19_linear_1028_4331)"/>
<path d="M217.982 224.549L223.8 221.181C224.029 221.054 224.055 220.85 223.864 220.735L219.169 218.03C219.048 217.967 218.915 217.935 218.779 217.935C218.644 217.935 218.51 217.967 218.39 218.03L212.573 221.385C212.343 221.526 212.318 221.73 212.509 221.845L217.204 224.549C217.324 224.612 217.457 224.645 217.593 224.645C217.728 224.645 217.862 224.612 217.982 224.549ZM205.658 227.611L210.353 230.316C210.474 230.376 210.607 230.407 210.742 230.407C210.877 230.407 211.01 230.376 211.131 230.316L216.949 226.948C217.178 226.808 217.204 226.616 217.012 226.501L212.318 223.797C212.196 223.737 212.063 223.706 211.928 223.706C211.793 223.706 211.66 223.737 211.539 223.797L205.671 227.165C205.492 227.305 205.466 227.496 205.671 227.611H205.658ZM198.807 223.656L203.502 226.361C203.623 226.421 203.756 226.452 203.891 226.452C204.026 226.452 204.159 226.421 204.28 226.361L210.098 222.993C210.327 222.853 210.353 222.661 210.098 222.546L205.403 219.829C205.281 219.77 205.148 219.74 205.014 219.74C204.879 219.74 204.746 219.77 204.624 219.829L198.807 223.197C198.641 223.337 198.615 223.542 198.807 223.656ZM229.145 214.279L224.463 211.562C224.342 211.502 224.209 211.471 224.074 211.471C223.939 211.471 223.806 211.502 223.685 211.562L217.854 214.93C217.625 215.057 217.599 215.262 217.854 215.376L222.537 218.081C222.658 218.141 222.791 218.172 222.926 218.172C223.061 218.172 223.194 218.141 223.315 218.081L229.145 214.713C229.324 214.547 229.349 214.394 229.145 214.279ZM219.36 225.838L224.055 228.543C224.175 228.605 224.309 228.638 224.444 228.638C224.579 228.638 224.713 228.605 224.833 228.543L230.651 225.175C230.88 225.047 230.906 224.843 230.715 224.728L226.083 221.985C225.966 221.922 225.834 221.89 225.701 221.89C225.567 221.89 225.436 221.922 225.318 221.985L219.487 225.34C219.194 225.519 219.169 225.723 219.36 225.838ZM185.105 215.746L189.8 218.451C189.92 218.514 190.053 218.546 190.189 218.546C190.324 218.546 190.458 218.514 190.578 218.451L196.396 215.096C196.625 214.955 196.651 214.764 196.396 214.649L191.701 211.932C191.58 211.872 191.446 211.841 191.311 211.841C191.177 211.841 191.043 211.872 190.922 211.932L185.105 215.3C184.939 215.427 184.913 215.632 185.105 215.746ZM171.403 207.836L176.098 210.541C176.218 210.604 176.351 210.636 176.487 210.636C176.622 210.636 176.756 210.604 176.876 210.541L182.706 207.148C182.936 207.007 182.961 206.803 182.706 206.688L178.011 203.984C177.891 203.921 177.758 203.888 177.622 203.888C177.487 203.888 177.353 203.921 177.233 203.984L171.415 207.352C171.224 207.517 171.224 207.722 171.403 207.836ZM164.552 203.881L169.247 206.586C169.367 206.649 169.5 206.681 169.636 206.681C169.771 206.681 169.905 206.649 170.025 206.586L175.842 203.231C176.072 203.09 176.098 202.886 175.842 202.772L171.224 200.029C171.104 199.966 170.97 199.933 170.835 199.933C170.699 199.933 170.566 199.966 170.446 200.029L164.628 203.397C164.386 203.563 164.36 203.767 164.552 203.881ZM157.701 199.927L162.396 202.631C162.513 202.694 162.645 202.726 162.778 202.726C162.912 202.726 163.043 202.694 163.161 202.631L168.991 199.276C169.221 199.136 169.247 198.931 169.055 198.817L164.36 196.112C164.24 196.049 164.107 196.017 163.971 196.017C163.836 196.017 163.702 196.049 163.582 196.112L157.764 199.48C157.535 199.608 157.509 199.812 157.701 199.927ZM191.956 219.65L196.651 222.355C196.772 222.415 196.905 222.446 197.04 222.446C197.175 222.446 197.308 222.415 197.429 222.355L203.247 218.987C203.476 218.847 203.502 218.655 203.247 218.54L198.615 215.823C198.494 215.764 198.361 215.734 198.226 215.734C198.092 215.734 197.958 215.764 197.837 215.823L192.02 219.191C191.79 219.382 191.764 219.65 191.956 219.65ZM150.811 195.972L155.506 198.676C155.626 198.739 155.76 198.772 155.895 198.772C156.031 198.772 156.164 198.739 156.284 198.676L162.102 195.321C162.332 195.181 162.357 194.976 162.166 194.862L157.471 192.157C157.351 192.094 157.217 192.062 157.082 192.062C156.946 192.062 156.813 192.094 156.693 192.157L150.875 195.525C150.684 195.653 150.658 195.857 150.811 195.972ZM178.215 211.791L182.91 214.496C183.031 214.559 183.164 214.591 183.299 214.591C183.435 214.591 183.568 214.559 183.689 214.496L189.506 211.141C189.736 211 189.761 210.809 189.506 210.681L184.811 207.977C184.691 207.914 184.558 207.881 184.422 207.881C184.287 207.881 184.153 207.914 184.033 207.977L178.215 211.345C178.088 211.472 178.062 211.677 178.254 211.791H178.215ZM222.256 210.324L217.574 207.607C217.453 207.547 217.32 207.516 217.185 207.516C217.05 207.516 216.917 207.547 216.796 207.607L210.965 210.975C210.736 211.103 210.71 211.307 210.965 211.421L215.647 214.126C215.768 214.186 215.902 214.217 216.036 214.217C216.171 214.217 216.305 214.186 216.426 214.126L222.256 210.72C222.473 210.63 222.498 210.439 222.256 210.324ZM143.029 184.247L137.211 187.602C136.982 187.743 136.956 187.947 137.147 188.062L141.842 190.766C141.963 190.829 142.096 190.862 142.231 190.862C142.367 190.862 142.5 190.829 142.621 190.766L148.438 187.398C148.668 187.271 148.693 187.066 148.502 186.952L143.807 184.247C143.687 184.184 143.553 184.152 143.418 184.152C143.283 184.152 143.149 184.184 143.029 184.247ZM143.998 182.435L148.693 185.14C148.814 185.203 148.947 185.235 149.083 185.235C149.218 185.235 149.352 185.203 149.472 185.14L155.289 181.772C155.519 181.644 155.544 181.44 155.353 181.325L150.658 178.621C150.538 178.558 150.405 178.525 150.269 178.525C150.134 178.525 150 178.558 149.88 178.621L144.062 181.976C143.833 182.116 143.807 182.32 143.998 182.435ZM160.584 174.717L155.914 172.012C155.794 171.949 155.661 171.917 155.525 171.917C155.39 171.917 155.256 171.949 155.136 172.012L149.306 175.367C149.076 175.508 149.051 175.712 149.306 175.827L153.988 178.531C154.108 178.594 154.242 178.627 154.377 178.627C154.513 178.627 154.646 178.594 154.766 178.531L160.597 175.163C160.814 174.997 160.839 174.832 160.635 174.717H160.584ZM167.435 178.672L162.753 175.967C162.633 175.904 162.499 175.872 162.364 175.872C162.228 175.872 162.095 175.904 161.974 175.967L156.144 179.322C155.914 179.463 155.889 179.667 156.144 179.782L160.826 182.486C160.946 182.549 161.08 182.582 161.215 182.582C161.351 182.582 161.484 182.549 161.605 182.486L167.435 179.118C167.665 178.991 167.69 178.825 167.486 178.672H167.435ZM215.392 206.369L210.774 203.652C210.653 203.592 210.52 203.561 210.385 203.561C210.25 203.561 210.117 203.592 209.996 203.652L204.165 207.02C203.936 207.148 203.91 207.352 204.165 207.466L208.847 210.171C208.967 210.234 209.101 210.266 209.236 210.266C209.372 210.266 209.505 210.234 209.626 210.171L215.456 206.816C215.622 206.675 215.647 206.484 215.443 206.369H215.392ZM145.81 202.708L150.505 205.412C150.625 205.475 150.759 205.508 150.894 205.508C151.03 205.508 151.163 205.475 151.283 205.412L157.114 202.044C157.343 201.917 157.369 201.713 157.114 201.598L152.432 198.893C152.311 198.831 152.178 198.798 152.042 198.798C151.907 198.798 151.773 198.831 151.653 198.893L145.823 202.248C145.708 202.389 145.708 202.593 145.861 202.708H145.81ZM138.959 198.753L143.654 201.457C143.774 201.52 143.908 201.553 144.043 201.553C144.179 201.553 144.312 201.52 144.432 201.457L150.263 198.089C150.492 197.962 150.518 197.758 150.263 197.643L145.708 194.9C145.588 194.837 145.454 194.805 145.319 194.805C145.183 194.805 145.05 194.837 144.93 194.9L139.099 198.255C138.844 198.434 138.819 198.625 139.01 198.753H138.959ZM201.69 198.447L197.008 195.742C196.888 195.679 196.754 195.647 196.619 195.647C196.483 195.647 196.35 195.679 196.23 195.742L190.399 199.11C190.17 199.238 190.144 199.442 190.399 199.557L195.081 202.261C195.202 202.324 195.335 202.357 195.471 202.357C195.606 202.357 195.74 202.324 195.86 202.261L201.69 198.906C201.92 198.766 201.945 198.561 201.741 198.447H201.69ZM208.541 202.402L203.859 199.697C203.739 199.634 203.605 199.602 203.47 199.602C203.334 199.602 203.201 199.634 203.081 199.697L197.301 203.065C197.072 203.193 197.046 203.397 197.301 203.512L201.984 206.216C202.104 206.279 202.237 206.312 202.373 206.312C202.508 206.312 202.642 206.279 202.762 206.216L208.592 202.861C208.771 202.72 208.796 202.516 208.592 202.402H208.541ZM194.839 194.492L190.157 191.787C190.037 191.724 189.903 191.692 189.768 191.692C189.632 191.692 189.499 191.724 189.379 191.787L183.548 195.155C183.319 195.283 183.293 195.487 183.548 195.602L188.23 198.306C188.351 198.369 188.484 198.402 188.62 198.402C188.755 198.402 188.889 198.369 189.009 198.306L194.839 194.951C195.069 194.811 195.094 194.606 194.89 194.492H194.839ZM187.988 190.537L183.306 187.832C183.186 187.769 183.052 187.737 182.917 187.737C182.781 187.737 182.648 187.769 182.528 187.832L176.697 191.2C176.468 191.328 176.442 191.532 176.697 191.647L181.43 194.39C181.551 194.452 181.684 194.485 181.82 194.485C181.955 194.485 182.089 194.452 182.209 194.39L188.039 191.034C188.218 190.856 188.243 190.651 188.039 190.537H187.988ZM181.15 186.582L176.506 183.928C176.386 183.865 176.252 183.833 176.117 183.833C175.981 183.833 175.848 183.865 175.728 183.928L169.948 187.271C169.719 187.411 169.693 187.615 169.948 187.73L174.63 190.435C174.751 190.497 174.884 190.53 175.02 190.53C175.155 190.53 175.289 190.497 175.409 190.435L181.239 187.066C181.43 186.901 181.43 186.696 181.201 186.582H181.15ZM174.286 182.627L169.604 179.922C169.484 179.859 169.35 179.827 169.215 179.827C169.079 179.827 168.946 179.859 168.826 179.922L162.995 183.277C162.765 183.418 162.74 183.622 162.995 183.737L167.677 186.441C167.797 186.504 167.931 186.537 168.066 186.537C168.202 186.537 168.335 186.504 168.456 186.441L174.286 183.073C174.516 182.946 174.541 182.741 174.337 182.652L174.286 182.627ZM196.408 205.017L191.713 202.312C191.593 202.25 191.46 202.217 191.324 202.217C191.189 202.217 191.055 202.25 190.935 202.312L185.117 205.68C184.888 205.808 184.862 206.012 185.054 206.127L189.749 208.832C189.869 208.894 190.002 208.927 190.138 208.927C190.273 208.927 190.407 208.894 190.527 208.832L196.345 205.476C196.625 205.336 196.651 205.132 196.459 205.017H196.408ZM268.427 253.74L274.258 250.372C274.487 250.244 274.513 250.04 274.258 249.925L269.575 247.22C269.454 247.161 269.321 247.13 269.186 247.13C269.051 247.13 268.918 247.161 268.797 247.22L263.082 250.614C262.852 250.742 262.826 250.946 263.082 251.061L267.764 253.765C267.878 253.811 268.001 253.833 268.124 253.828C268.247 253.824 268.368 253.794 268.478 253.74H268.427ZM252.773 237.512L248.091 234.807C247.97 234.747 247.837 234.716 247.702 234.716C247.567 234.716 247.434 234.747 247.313 234.807L241.482 238.175C241.253 238.303 241.227 238.507 241.418 238.621L246.113 241.339C246.234 241.399 246.368 241.43 246.503 241.43C246.638 241.43 246.771 241.399 246.892 241.339L252.722 237.971C252.952 237.818 252.977 237.626 252.773 237.512ZM247.836 251.915L252.531 254.62C252.65 254.679 252.781 254.71 252.913 254.71C253.046 254.71 253.177 254.679 253.296 254.62L259.127 251.252C259.356 251.112 259.382 250.92 259.19 250.805L254.495 248.101C254.374 248.041 254.241 248.01 254.106 248.01C253.971 248.01 253.838 248.041 253.717 248.101L247.9 251.469C247.67 251.545 247.644 251.8 247.836 251.915ZM254.687 255.87L259.382 258.575C259.501 258.634 259.632 258.665 259.764 258.665C259.897 258.665 260.028 258.634 260.147 258.575L265.978 255.207C266.207 255.067 266.233 254.875 266.041 254.76L261.346 252.056C261.225 251.996 261.092 251.965 260.957 251.965C260.822 251.965 260.689 251.996 260.568 252.056L254.751 255.373C254.521 255.551 254.495 255.755 254.687 255.87ZM267.955 236.657L263.26 233.952C263.139 233.892 263.006 233.861 262.871 233.861C262.736 233.861 262.603 233.892 262.482 233.952L256.703 237.346C256.473 237.473 256.447 237.677 256.639 237.792L261.334 240.497C261.455 240.557 261.588 240.588 261.723 240.588C261.858 240.588 261.991 240.557 262.112 240.497L267.93 237.129C268.185 236.976 268.185 236.772 267.955 236.657ZM275.84 241.16L271.157 238.456C271.036 238.396 270.903 238.365 270.768 238.365C270.633 238.365 270.5 238.396 270.379 238.456L264.549 241.824C264.319 241.964 264.294 242.155 264.549 242.27L269.231 244.975C269.352 245.035 269.485 245.066 269.62 245.066C269.755 245.066 269.888 245.035 270.009 244.975L275.84 241.607C276.018 241.479 276.044 241.339 275.84 241.16ZM261.104 232.702L256.409 229.997C256.288 229.937 256.155 229.906 256.02 229.906C255.885 229.906 255.752 229.937 255.631 229.997L249.813 233.365C249.584 233.493 249.558 233.697 249.749 233.812L254.444 236.516C254.565 236.576 254.699 236.607 254.834 236.607C254.968 236.607 255.102 236.576 255.223 236.516L261.04 233.148C261.27 233.021 261.295 232.817 261.104 232.702ZM132.159 194.785L136.854 197.503C136.975 197.562 137.108 197.593 137.243 197.593C137.378 197.593 137.511 197.562 137.632 197.503L143.463 194.134C143.692 194.007 143.718 193.803 143.463 193.688L138.78 190.983C138.66 190.921 138.527 190.888 138.391 190.888C138.256 190.888 138.122 190.921 138.002 190.983L132.172 194.339C131.993 194.479 131.968 194.67 132.159 194.785ZM278.2 250.27L282.882 252.974C283.002 253.037 283.136 253.07 283.271 253.07C283.407 253.07 283.54 253.037 283.66 252.974L289.491 249.606C289.72 249.479 289.746 249.274 289.491 249.16L284.808 246.455C284.687 246.395 284.554 246.364 284.419 246.364C284.284 246.364 284.151 246.395 284.03 246.455L278.2 249.823C278.021 249.9 277.996 250.091 278.2 250.27ZM136.663 189.695L131.98 186.99C131.859 186.93 131.726 186.899 131.591 186.899C131.456 186.899 131.323 186.93 131.202 186.99L125.372 190.358C125.142 190.498 125.117 190.69 125.308 190.805L130.003 193.522C130.124 193.582 130.257 193.613 130.392 193.613C130.527 193.613 130.66 193.582 130.781 193.522L136.612 190.154C136.841 190.014 136.867 189.809 136.663 189.695ZM149.88 188.202L144.062 191.583C143.833 191.723 143.807 191.927 143.998 192.042L148.693 194.747C148.814 194.809 148.947 194.842 149.083 194.842C149.218 194.842 149.352 194.809 149.472 194.747L155.289 191.379C155.519 191.251 155.544 191.047 155.353 190.932L150.658 188.227C150.54 188.161 150.408 188.124 150.272 188.119C150.137 188.115 150.002 188.143 149.88 188.202ZM259.599 241.467L254.942 238.787C254.821 238.728 254.688 238.697 254.553 238.697C254.418 238.697 254.285 238.728 254.164 238.787L248.333 242.155C248.104 242.283 248.078 242.487 248.333 242.602L253.015 245.307C253.137 245.366 253.27 245.397 253.405 245.397C253.54 245.397 253.673 245.366 253.794 245.307L259.624 241.939C259.803 241.773 259.828 241.581 259.624 241.467H259.599ZM256.141 247.106L260.823 249.81C260.944 249.87 261.078 249.901 261.213 249.901C261.347 249.901 261.481 249.87 261.602 249.81L267.432 246.442C267.662 246.315 267.687 246.11 267.432 245.996L262.75 243.291C262.629 243.231 262.496 243.2 262.361 243.2C262.226 243.2 262.093 243.231 261.972 243.291L256.141 246.659C255.988 246.787 255.963 246.991 256.167 247.106H256.141ZM254.228 228.747L249.558 226.029C249.439 225.97 249.308 225.939 249.175 225.939C249.042 225.939 248.911 225.97 248.793 226.029L242.962 229.397C242.733 229.525 242.707 229.729 242.898 229.844L247.593 232.549C247.714 232.608 247.848 232.639 247.982 232.639C248.117 232.639 248.251 232.608 248.372 232.549L254.189 229.181C254.419 229.066 254.444 228.862 254.253 228.747H254.228ZM152.687 206.663L157.382 209.367C157.502 209.43 157.635 209.463 157.771 209.463C157.906 209.463 158.04 209.43 158.16 209.367L163.99 205.999C164.22 205.872 164.245 205.668 163.99 205.553L159.308 202.848C159.188 202.785 159.054 202.753 158.919 202.753C158.783 202.753 158.65 202.785 158.53 202.848L152.699 206.203C152.546 206.344 152.521 206.548 152.712 206.663H152.687ZM189.583 201.062L184.888 198.357C184.768 198.295 184.634 198.262 184.499 198.262C184.363 198.262 184.23 198.295 184.11 198.357L178.317 201.789C178.088 201.917 178.062 202.121 178.254 202.236L182.949 204.94C183.069 205.003 183.202 205.036 183.338 205.036C183.473 205.036 183.607 205.003 183.727 204.94L189.545 201.585C189.774 201.381 189.8 201.177 189.608 201.062H189.583ZM182.732 197.107L178.037 194.402C177.917 194.34 177.783 194.307 177.648 194.307C177.512 194.307 177.379 194.34 177.259 194.402L171.441 197.77C171.211 197.898 171.186 198.102 171.377 198.217L176.072 200.922C176.192 200.984 176.326 201.017 176.461 201.017C176.597 201.017 176.73 200.984 176.85 200.922L182.668 197.566C182.923 197.426 182.949 197.222 182.706 197.107H182.732ZM162.204 185.204L157.509 182.499C157.389 182.436 157.256 182.404 157.12 182.404C156.985 182.404 156.851 182.436 156.731 182.499L150.913 185.854C150.684 185.995 150.658 186.199 150.85 186.314L155.544 189.018C155.665 189.081 155.798 189.114 155.934 189.114C156.069 189.114 156.203 189.081 156.323 189.018L162.14 185.65C162.37 185.561 162.395 185.357 162.204 185.204ZM169.055 189.159L164.36 186.48C164.24 186.417 164.107 186.384 163.971 186.384C163.836 186.384 163.702 186.417 163.582 186.48L157.764 189.835C157.535 189.975 157.509 190.179 157.764 190.294L162.459 192.999C162.577 193.061 162.709 193.094 162.842 193.094C162.975 193.094 163.107 193.061 163.225 192.999L169.055 189.631C169.221 189.516 169.247 189.312 169.055 189.197V189.159ZM175.906 193.114L171.224 190.447C171.104 190.385 170.97 190.352 170.835 190.352C170.699 190.352 170.566 190.385 170.446 190.447L164.628 193.815C164.399 193.943 164.373 194.147 164.628 194.262L169.323 196.967C169.443 197.029 169.577 197.062 169.712 197.062C169.848 197.062 169.981 197.029 170.101 196.967L175.919 193.599C176.072 193.471 176.098 193.267 175.906 193.152V193.114ZM203.31 208.946L198.615 206.229C198.495 206.166 198.362 206.134 198.226 206.134C198.091 206.134 197.957 206.166 197.837 206.229L192.02 209.597C191.79 209.725 191.764 209.929 191.956 210.044L196.651 212.748C196.771 212.811 196.904 212.844 197.04 212.844C197.175 212.844 197.309 212.811 197.429 212.748L203.247 209.444C203.476 209.291 203.502 209.1 203.31 208.985V208.946ZM236.009 218.196L231.314 215.491C231.194 215.429 231.061 215.396 230.925 215.396C230.79 215.396 230.656 215.429 230.536 215.491L224.706 218.859C224.476 218.987 224.45 219.191 224.706 219.306L229.388 222.011C229.509 222.07 229.642 222.101 229.777 222.101C229.912 222.101 230.045 222.07 230.166 222.011L235.996 218.642C236.175 218.54 236.2 218.375 236.009 218.234V218.196ZM246.101 224.014L238.165 219.433C238.045 219.371 237.912 219.338 237.776 219.338C237.641 219.338 237.507 219.371 237.387 219.433L231.557 222.802C231.327 222.929 231.301 223.133 231.557 223.248L239.492 227.828C239.612 227.891 239.746 227.924 239.881 227.924C240.017 227.924 240.15 227.891 240.27 227.828L246.088 224.46C246.279 224.371 246.292 224.167 246.101 224.052V224.014ZM205.658 217.89L210.353 220.594C210.473 220.657 210.606 220.69 210.742 220.69C210.877 220.69 211.011 220.657 211.131 220.594L216.949 217.226C217.178 217.099 217.204 216.895 217.012 216.78L212.318 214.075C212.197 214.013 212.064 213.98 211.928 213.98C211.793 213.98 211.659 214.013 211.539 214.075L205.671 217.469C205.492 217.609 205.466 217.813 205.671 217.928L205.658 217.89ZM210.161 212.787L205.466 210.082C205.346 210.019 205.213 209.987 205.077 209.987C204.942 209.987 204.808 210.019 204.688 210.082L198.871 213.437C198.641 213.578 198.615 213.769 198.807 213.896L203.502 216.601C203.622 216.664 203.755 216.696 203.891 216.696C204.026 216.696 204.16 216.664 204.28 216.601L210.098 213.233C210.327 213.144 210.353 212.94 210.161 212.825V212.787ZM122.999 191.43L115.791 187.271C115.67 187.211 115.536 187.18 115.401 187.18C115.267 187.18 115.133 187.211 115.012 187.271L109.182 190.639C108.952 190.779 108.927 190.97 109.182 191.085L116.365 195.283C116.485 195.345 116.618 195.378 116.754 195.378C116.889 195.378 117.023 195.345 117.143 195.283L122.973 191.914C123.177 191.749 123.203 191.583 122.999 191.43ZM125.78 181.491L134.8 186.696C134.92 186.759 135.054 186.792 135.189 186.792C135.325 186.792 135.458 186.759 135.578 186.696L141.409 183.328C141.638 183.201 141.664 182.997 141.409 182.882L132.401 177.677C132.281 177.614 132.148 177.581 132.012 177.581C131.877 177.581 131.743 177.614 131.623 177.677L125.793 181.045C125.614 181.172 125.589 181.376 125.78 181.491ZM117.462 186.301L123.228 189.644C123.35 189.703 123.483 189.734 123.618 189.734C123.753 189.734 123.886 189.703 124.007 189.644L129.837 186.275C130.067 186.148 130.092 185.944 129.837 185.829L124.07 182.499C123.95 182.436 123.817 182.404 123.681 182.404C123.546 182.404 123.412 182.436 123.292 182.499L117.462 185.854C117.283 185.995 117.258 186.186 117.462 186.301ZM159.563 210.618L164.258 213.322C164.378 213.385 164.512 213.418 164.647 213.418C164.783 213.418 164.916 213.385 165.036 213.322L170.867 209.954C171.096 209.827 171.122 209.623 170.867 209.508L166.185 206.803C166.064 206.74 165.931 206.708 165.796 206.708C165.66 206.708 165.527 206.74 165.406 206.803L159.576 210.158C159.397 210.299 159.372 210.503 159.563 210.618ZM130.934 196.01L125.168 192.68C125.048 192.617 124.914 192.585 124.779 192.585C124.643 192.585 124.51 192.617 124.389 192.68L118.559 196.035C118.329 196.176 118.304 196.38 118.559 196.495L124.326 199.824C124.446 199.887 124.579 199.92 124.715 199.92C124.85 199.92 124.984 199.887 125.104 199.824L130.934 196.456C131.113 196.329 131.138 196.125 130.934 196.01ZM138.87 200.59L133.103 197.26C132.983 197.197 132.85 197.165 132.714 197.165C132.579 197.165 132.445 197.197 132.325 197.26L126.495 200.615C126.265 200.756 126.239 200.96 126.495 201.075L132.261 204.405C132.381 204.467 132.515 204.5 132.65 204.5C132.786 204.5 132.919 204.467 133.039 204.405L138.87 201.036C139.048 200.909 139.074 200.705 138.87 200.59ZM142.442 171.91L147.124 174.615C147.244 174.677 147.378 174.71 147.513 174.71C147.649 174.71 147.782 174.677 147.902 174.615L153.733 171.247C153.962 171.119 153.988 170.915 153.733 170.8L149.051 168.095C148.93 168.033 148.797 168 148.662 168C148.526 168 148.393 168.033 148.272 168.095L142.442 171.451C142.263 171.591 142.238 171.782 142.442 171.91ZM179.619 224.065L141.039 201.789C140.918 201.727 140.785 201.694 140.65 201.694C140.514 201.694 140.381 201.727 140.26 201.789L134.43 205.145C134.2 205.285 134.175 205.489 134.43 205.604L173.023 227.879C173.144 227.939 173.277 227.97 173.412 227.97C173.547 227.97 173.68 227.939 173.801 227.879L179.619 224.511C179.785 224.435 179.81 224.23 179.619 224.116V224.065ZM271.413 267.442L266.73 264.724C266.609 264.665 266.476 264.634 266.341 264.634C266.206 264.634 266.073 264.665 265.952 264.724L251.791 272.902C251.561 273.03 251.536 273.234 251.791 273.349L256.473 276.053C256.593 276.116 256.727 276.149 256.862 276.149C256.998 276.149 257.131 276.116 257.251 276.053L271.413 267.888C271.591 267.761 271.617 267.569 271.413 267.455V267.442ZM256.231 268.284L251.599 265.579C251.479 265.517 251.346 265.484 251.21 265.484C251.075 265.484 250.941 265.517 250.821 265.579L244.991 268.947C244.761 269.075 244.736 269.279 244.991 269.394L249.673 272.098C249.793 272.161 249.927 272.194 250.062 272.194C250.198 272.194 250.331 272.161 250.451 272.098L256.282 268.743C256.409 268.616 256.435 268.411 256.231 268.297V268.284ZM234.644 255.87L229.911 253.178C229.791 253.116 229.657 253.083 229.522 253.083C229.386 253.083 229.253 253.116 229.133 253.178L223.302 256.534C223.073 256.674 223.047 256.878 223.238 256.993L227.933 259.698C228.053 259.76 228.187 259.793 228.322 259.793C228.458 259.793 228.591 259.76 228.712 259.698L234.542 256.33C234.823 256.202 234.848 255.998 234.644 255.883V255.87ZM249.379 264.303L237.897 257.644C237.777 257.581 237.644 257.548 237.508 257.548C237.373 257.548 237.239 257.581 237.119 257.644L231.187 261.088C230.957 261.216 230.931 261.42 231.187 261.535L242.669 268.194C242.789 268.257 242.922 268.29 243.058 268.29C243.193 268.29 243.327 268.257 243.447 268.194L249.277 264.839C249.558 264.661 249.584 264.456 249.379 264.303ZM187.554 228.696L181.775 225.366C181.655 225.303 181.521 225.271 181.386 225.271C181.25 225.271 181.117 225.303 180.997 225.366L175.179 228.721C174.949 228.862 174.924 229.053 175.179 229.168L180.946 232.51C181.066 232.573 181.199 232.606 181.335 232.606C181.47 232.606 181.604 232.573 181.724 232.51L187.554 229.142C187.72 229.015 187.809 228.811 187.554 228.696ZM296.393 253.025L291.71 250.27C291.589 250.21 291.456 250.179 291.321 250.179C291.186 250.179 291.053 250.21 290.932 250.27L285.102 253.638C284.872 253.778 284.847 253.969 285.102 254.084L289.784 256.802C289.905 256.861 290.038 256.892 290.173 256.892C290.308 256.892 290.441 256.861 290.562 256.802L296.393 253.434C296.571 253.344 296.597 253.14 296.393 253.025ZM288.074 257.835L283.38 255.13C283.258 255.071 283.125 255.04 282.99 255.04C282.855 255.04 282.722 255.071 282.601 255.13L268.453 263.308C268.223 263.436 268.198 263.64 268.453 263.755L273.148 266.459C273.269 266.519 273.402 266.55 273.537 266.55C273.672 266.55 273.805 266.519 273.926 266.459L288.074 258.282C288.24 258.154 288.266 257.924 288.074 257.835ZM203.412 237.856L197.646 234.526C197.526 234.464 197.392 234.431 197.257 234.431C197.121 234.431 196.988 234.464 196.868 234.526L191.037 237.882C190.808 238.022 190.782 238.226 191.037 238.328L196.804 241.671C196.925 241.73 197.058 241.761 197.193 241.761C197.328 241.761 197.461 241.73 197.582 241.671L203.412 238.303C203.591 238.175 203.617 237.971 203.412 237.856ZM227.793 251.89L223.111 249.185C222.991 249.122 222.857 249.09 222.722 249.09C222.586 249.09 222.453 249.122 222.333 249.185L216.502 252.54C216.272 252.681 216.247 252.885 216.438 253L221.133 255.704C221.253 255.767 221.387 255.8 221.522 255.8C221.658 255.8 221.791 255.767 221.912 255.704L227.742 252.336C227.972 252.247 227.997 252.043 227.793 251.928V251.89ZM195.464 233.276L189.698 229.946C189.577 229.883 189.444 229.851 189.308 229.851C189.173 229.851 189.04 229.883 188.919 229.946L183.089 233.301C182.859 233.442 182.834 233.633 183.089 233.761L188.856 237.091C188.977 237.15 189.11 237.181 189.245 237.181C189.38 237.181 189.513 237.15 189.634 237.091L195.464 233.684C195.656 233.595 195.681 233.391 195.464 233.276ZM220.98 247.973L216.298 245.268C216.178 245.206 216.044 245.173 215.909 245.173C215.773 245.173 215.64 245.206 215.52 245.268L209.689 248.624C209.46 248.764 209.434 248.968 209.626 249.083L214.321 251.788C214.441 251.85 214.574 251.883 214.71 251.883C214.845 251.883 214.979 251.85 215.099 251.788L220.929 248.42C221.121 248.292 221.146 248.088 220.98 247.973ZM212.828 243.265L205.62 239.106C205.499 239.044 205.366 239.011 205.23 239.011C205.095 239.011 204.961 239.044 204.841 239.106L199.011 242.462C198.781 242.602 198.756 242.793 199.011 242.908L206.219 247.08C206.339 247.143 206.473 247.175 206.608 247.175C206.744 247.175 206.877 247.143 206.997 247.08L212.828 243.725C212.968 243.584 212.994 243.38 212.79 243.265H212.828ZM134.698 176.835L141.881 180.994C142.002 181.053 142.135 181.084 142.27 181.084C142.405 181.084 142.538 181.053 142.659 180.994L148.489 177.626C148.719 177.498 148.744 177.294 148.489 177.179L141.281 173.02C141.16 172.96 141.027 172.929 140.892 172.929C140.757 172.929 140.624 172.96 140.503 173.02L134.672 176.388C134.481 176.516 134.456 176.72 134.66 176.835H134.698ZM224.808 248.279L229.49 250.984C229.61 251.047 229.743 251.079 229.879 251.079C230.014 251.079 230.148 251.047 230.268 250.984L236.098 247.629C236.328 247.488 236.354 247.284 236.162 247.169L231.467 244.465C231.347 244.402 231.214 244.369 231.078 244.369C230.943 244.369 230.809 244.402 230.689 244.465L224.808 247.82C224.591 247.948 224.565 248.152 224.808 248.267V248.279ZM223.532 237.435L229.362 234.067L237.91 229.13C238.14 229.002 238.165 228.798 237.974 228.683L233.241 226.029C233.12 225.967 232.987 225.934 232.851 225.934C232.716 225.934 232.583 225.967 232.462 226.029L224.336 230.712L219.169 227.739C219.048 227.679 218.914 227.648 218.779 227.648C218.644 227.648 218.511 227.679 218.39 227.739L212.573 231.133C212.343 231.26 212.318 231.464 212.509 231.579L222.715 237.473C222.845 237.531 222.988 237.557 223.13 237.548C223.272 237.539 223.41 237.496 223.532 237.422V237.435ZM240.117 237.435L245.948 234.067C246.177 233.927 246.203 233.735 245.948 233.62L241.265 230.903C241.144 230.843 241.011 230.812 240.876 230.812C240.741 230.812 240.608 230.843 240.487 230.903L234.657 234.271C234.427 234.399 234.402 234.603 234.657 234.718L239.339 237.422C239.453 237.462 239.574 237.479 239.695 237.47C239.816 237.461 239.933 237.428 240.041 237.371L240.117 237.435ZM246.432 260.744L251.127 263.449C251.247 263.511 251.381 263.544 251.516 263.544C251.652 263.544 251.785 263.511 251.906 263.449L257.736 260.093C257.966 259.953 257.991 259.761 257.736 259.647L253.054 256.929C252.933 256.87 252.8 256.839 252.665 256.839C252.53 256.839 252.397 256.87 252.276 256.929L246.445 260.297C246.19 260.361 246.164 260.565 246.356 260.68L246.432 260.744ZM200.874 234.488L214.576 242.398C214.696 242.46 214.829 242.493 214.965 242.493C215.1 242.493 215.234 242.46 215.354 242.398L221.172 239.03C221.414 238.902 221.427 238.698 221.235 238.583L215.469 235.241L207.584 230.686C207.464 230.623 207.331 230.591 207.195 230.591C207.06 230.591 206.926 230.623 206.806 230.686L200.976 234.054C200.567 234.105 200.567 234.309 200.797 234.424L200.874 234.488ZM239.581 256.789L244.276 259.494C244.396 259.556 244.53 259.589 244.665 259.589C244.801 259.589 244.934 259.556 245.055 259.494L250.885 256.138C251.115 255.998 251.14 255.806 250.885 255.679L246.177 252.821C246.057 252.759 245.924 252.726 245.788 252.726C245.653 252.726 245.519 252.759 245.399 252.821L239.569 256.189C239.339 256.406 239.313 256.649 239.505 256.725L239.581 256.789ZM173.265 218.528L177.96 221.232C178.08 221.295 178.214 221.328 178.349 221.328C178.485 221.328 178.618 221.295 178.738 221.232L184.569 217.877C184.799 217.737 184.824 217.533 184.569 217.418L179.887 214.713C179.767 214.65 179.633 214.618 179.498 214.618C179.362 214.618 179.229 214.65 179.108 214.713L173.278 218.081C173.099 218.209 173.074 218.375 173.265 218.528ZM193.818 230.393L198.513 233.097C198.634 233.16 198.767 233.193 198.903 233.193C199.038 233.193 199.171 233.16 199.292 233.097L205.122 229.742C205.352 229.602 205.377 229.397 205.122 229.283L200.44 226.578C200.32 226.515 200.186 226.483 200.051 226.483C199.915 226.483 199.782 226.515 199.662 226.578L193.831 229.946C193.653 230.074 193.627 230.278 193.818 230.393ZM253.207 264.635L257.902 267.34C258.023 267.399 258.156 267.43 258.291 267.43C258.426 267.43 258.559 267.399 258.68 267.34L264.51 263.972C264.74 263.831 264.766 263.64 264.51 263.525L259.828 260.808C259.707 260.748 259.574 260.717 259.439 260.717C259.304 260.717 259.171 260.748 259.05 260.808L253.22 264.176C253.041 264.303 253.016 264.52 253.207 264.635ZM166.453 214.573L171.147 217.277C171.268 217.34 171.401 217.373 171.537 217.373C171.672 217.373 171.806 217.34 171.926 217.277L177.756 213.922C177.986 213.782 178.011 213.578 177.756 213.463L173.087 210.72C172.967 210.657 172.833 210.624 172.698 210.624C172.562 210.624 172.429 210.657 172.308 210.72L166.478 214.075C166.248 214.254 166.223 214.458 166.414 214.547L166.453 214.573ZM187.006 226.438L191.701 229.142C191.821 229.205 191.954 229.238 192.09 229.238C192.225 229.238 192.359 229.205 192.479 229.142L198.309 225.787C198.539 225.647 198.564 225.442 198.309 225.328L193.627 222.623C193.507 222.56 193.373 222.528 193.238 222.528C193.102 222.528 192.969 222.56 192.849 222.623L187.031 226.029C186.802 226.119 186.776 226.323 186.967 226.438H187.006ZM180.155 222.483L184.85 225.187C184.97 225.25 185.103 225.283 185.239 225.283C185.374 225.283 185.508 225.25 185.628 225.187L191.458 221.832C191.688 221.692 191.713 221.488 191.458 221.373L186.776 218.668C186.656 218.605 186.522 218.573 186.387 218.573C186.251 218.573 186.118 218.605 185.998 218.668L180.155 222.036C179.951 222.202 179.925 222.368 180.155 222.483ZM275.367 257.797L281.198 254.429C281.428 254.301 281.453 254.097 281.198 253.982L276.516 251.277C276.395 251.218 276.262 251.187 276.127 251.187C275.992 251.187 275.859 251.218 275.737 251.277L269.907 254.646C269.677 254.773 269.652 254.977 269.907 255.092L274.589 257.797C274.713 257.835 274.843 257.846 274.971 257.828C275.098 257.81 275.221 257.765 275.329 257.695L275.367 257.797ZM267.037 262.607L272.867 259.238C273.097 259.098 273.122 258.907 272.931 258.792L268.185 255.985C268.064 255.925 267.931 255.894 267.796 255.894C267.661 255.894 267.528 255.925 267.407 255.985L261.589 259.353C261.359 259.481 261.334 259.685 261.589 259.8L266.284 262.504C266.396 262.556 266.518 262.583 266.641 262.583C266.764 262.583 266.886 262.556 266.998 262.504L267.037 262.607ZM277.243 242.538L271.413 245.906C271.183 246.047 271.157 246.238 271.413 246.353L276.095 249.057C276.216 249.117 276.349 249.148 276.484 249.148C276.619 249.148 276.752 249.117 276.873 249.057L282.703 245.689C282.933 245.562 282.958 245.358 282.703 245.243L278.021 242.538C277.907 242.46 277.775 242.41 277.638 242.392C277.5 242.375 277.361 242.39 277.23 242.436L277.243 242.538Z" fill="#A7C7F6"/>
<defs>
<linearGradient id="paint0_linear_1028_4331" x1="189.678" y1="146.172" x2="189.678" y2="322.565" gradientUnits="userSpaceOnUse">
<stop stop-color="#208BF9"/>
<stop offset="1" stop-color="#0B53DF"/>
</linearGradient>
<linearGradient id="paint1_linear_1028_4331" x1="278.099" y1="244.383" x2="278.099" y2="322.513" gradientUnits="userSpaceOnUse">
<stop stop-color="#208BF9"/>
<stop offset="1" stop-color="#0B53DF"/>
</linearGradient>
<linearGradient id="paint2_linear_1028_4331" x1="250.621" y1="0.492187" x2="250.621" y2="105.626" gradientUnits="userSpaceOnUse">
<stop stop-color="#27ADFF"/>
<stop offset="1" stop-color="#055FE7"/>
</linearGradient>
<linearGradient id="paint3_linear_1028_4331" x1="337.383" y1="101.859" x2="337.383" y2="245.422" gradientUnits="userSpaceOnUse">
<stop stop-color="#055FE7"/>
<stop offset="1" stop-color="#27ADFF"/>
</linearGradient>
<linearGradient id="paint4_linear_1028_4331" x1="348.002" y1="117.504" x2="140.502" y2="10.5039" gradientUnits="userSpaceOnUse">
<stop stop-color="#1D7AF6"/>
<stop offset="1" stop-color="#208BF9"/>
</linearGradient>
<linearGradient id="paint5_linear_1028_4331" x1="203.004" y1="161" x2="203.004" y2="283" gradientUnits="userSpaceOnUse">
<stop stop-color="#208BF9"/>
<stop offset="1" stop-color="#084ED6"/>
</linearGradient>
<linearGradient id="paint6_linear_1028_4331" x1="161.191" y1="225.992" x2="161.191" y2="271.875" gradientUnits="userSpaceOnUse">
<stop stop-color="#208BF9"/>
<stop offset="1" stop-color="#0B53DF"/>
</linearGradient>
<linearGradient id="paint7_linear_1028_4331" x1="283.779" y1="81" x2="283.779" y2="86.0588" gradientUnits="userSpaceOnUse">
<stop stop-color="#208BF9"/>
<stop offset="1" stop-color="#0B53DF"/>
</linearGradient>
<linearGradient id="paint8_linear_1028_4331" x1="173.117" y1="27.4531" x2="173.117" y2="31.0563" gradientUnits="userSpaceOnUse">
<stop stop-color="#208BF9"/>
<stop offset="1" stop-color="#0B53DF"/>
</linearGradient>
<linearGradient id="paint9_linear_1028_4331" x1="168.801" y1="24.8125" x2="168.801" y2="28.4323" gradientUnits="userSpaceOnUse">
<stop stop-color="#208BF9"/>
<stop offset="1" stop-color="#0B53DF"/>
</linearGradient>
<linearGradient id="paint10_linear_1028_4331" x1="164.254" y1="21" x2="164.254" y2="26.2482" gradientUnits="userSpaceOnUse">
<stop stop-color="#208BF9"/>
<stop offset="1" stop-color="#0B53DF"/>
</linearGradient>
<linearGradient id="paint11_linear_1028_4331" x1="330.736" y1="115.719" x2="330.736" y2="118.853" gradientUnits="userSpaceOnUse">
<stop stop-color="#208BF9"/>
<stop offset="1" stop-color="#0B53DF"/>
</linearGradient>
<linearGradient id="paint12_linear_1028_4331" x1="330.732" y1="117.914" x2="330.732" y2="121.053" gradientUnits="userSpaceOnUse">
<stop stop-color="#208BF9"/>
<stop offset="1" stop-color="#0B53DF"/>
</linearGradient>
<linearGradient id="paint13_linear_1028_4331" x1="330.732" y1="120.141" x2="330.732" y2="123.279" gradientUnits="userSpaceOnUse">
<stop stop-color="#208BF9"/>
<stop offset="1" stop-color="#0B53DF"/>
</linearGradient>
<linearGradient id="paint14_linear_1028_4331" x1="136.054" y1="26.954" x2="238.156" y2="83.802" gradientUnits="userSpaceOnUse">
<stop stop-color="#208BF9"/>
<stop offset="1" stop-color="#1963F2"/>
</linearGradient>
<linearGradient id="paint15_linear_1028_4331" x1="185.739" y1="27.5547" x2="185.739" y2="204.756" gradientUnits="userSpaceOnUse">
<stop stop-color="#27ADFF"/>
<stop offset="1" stop-color="#055FE7"/>
</linearGradient>
<linearGradient id="paint16_linear_1028_4331" x1="238.526" y1="92.0294" x2="238.586" y2="188.363" gradientUnits="userSpaceOnUse">
<stop stop-color="#1963F2"/>
<stop offset="1" stop-color="#208BF9"/>
</linearGradient>
<linearGradient id="paint17_linear_1028_4331" x1="185.457" y1="51.743" x2="185.457" y2="180.58" gradientUnits="userSpaceOnUse">
<stop stop-color="#208BF9"/>
<stop offset="1" stop-color="#1963F2"/>
</linearGradient>
<linearGradient id="paint18_linear_1028_4331" x1="182.947" y1="155.781" x2="181.474" y2="158.332" gradientUnits="userSpaceOnUse">
<stop stop-color="#208BF9"/>
<stop offset="1" stop-color="#1963F2"/>
</linearGradient>
<linearGradient id="paint19_linear_1028_4331" x1="182.947" y1="155.781" x2="181.474" y2="158.332" gradientUnits="userSpaceOnUse">
<stop stop-color="#208BF9"/>
<stop offset="1" stop-color="#1963F2"/>
</linearGradient>
</defs>
</svg>
