<svg width="397" height="315" viewBox="0 0 397 315" fill="none" xmlns="http://www.w3.org/2000/svg">
<g clip-path="url(#clip0_1028_4032)">
<path d="M69.1612 218.549C-1.7204 240.617 -1.7204 276.387 69.1612 298.451C140.043 320.514 254.968 320.518 325.842 298.451C396.716 276.383 396.723 240.613 325.842 218.549C254.96 196.486 140.035 196.482 69.1612 218.549Z" fill="#1F87F8" fill-opacity="0.05"/>
<path d="M96.2556 128.848C95.3708 128.317 92.6543 125.877 92.6543 124.745V114.134C92.6853 113.52 92.8619 112.923 93.1696 112.391C93.4773 111.859 93.9073 111.407 94.424 111.074L286.7 0.100938C287.674 -0.45614 288.913 -0.854051 292.071 1.14435C292.556 1.48625 292.957 1.9337 293.244 2.45296C293.53 2.97222 293.695 3.54973 293.726 4.14196V14.7529C293.693 15.3661 293.516 15.9629 293.208 16.4945C292.9 17.0262 292.472 17.4778 291.956 17.8125L99.68 128.786C99.1546 129.066 98.5704 129.217 97.9752 129.228C97.38 129.239 96.7907 129.108 96.2556 128.848Z" fill="url(#paint0_linear_1028_4032)"/>
<path d="M293.706 3.85473C293.582 2.97048 292.821 2.60794 291.937 3.1208L99.6778 114.059C99.1598 114.389 98.7313 114.841 98.4302 115.376L93.1211 112.352C93.4231 111.817 93.8553 111.367 94.3776 111.043L286.698 0.114352C287.672 -0.451567 289.025 -0.769895 292.06 1.14893C292.508 1.46024 292.886 1.8618 293.17 2.32781C293.453 2.79381 293.636 3.31393 293.706 3.85473Z" fill="url(#paint1_linear_1028_4032)"/>
<path d="M98.4291 115.376C98.1075 115.911 97.9306 116.52 97.9159 117.144V140.603L92.6068 137.579V114.102C92.6024 114.032 92.6024 113.961 92.6068 113.89C92.6068 113.74 92.6511 113.598 92.6776 113.448C92.7796 113.066 92.9282 112.698 93.12 112.352L98.4291 115.376Z" fill="url(#paint2_linear_1028_4032)"/>
<path d="M293.209 172.367V172.552C293.155 173.012 293.008 173.456 292.775 173.858C292.509 174.317 292.139 174.709 291.695 175L99.4222 285.922L99.4207 285.923C99.0265 286.152 98.7836 286.111 98.6716 286.047C98.5594 285.982 98.4023 285.793 98.4023 285.339V126.843L103.019 124.184L103.02 124.183C103.175 124.093 103.288 123.956 103.369 123.84C103.455 123.716 103.536 123.568 103.611 123.41C103.763 123.093 103.916 122.687 104.068 122.234C104.373 121.331 104.694 120.181 105.012 119.047L105.017 119.029C105.338 117.881 105.655 116.75 105.952 115.87C106.1 115.43 106.239 115.066 106.365 114.802C106.429 114.669 106.483 114.573 106.529 114.508C106.554 114.471 106.571 114.453 106.577 114.447L148.647 90.1945C148.743 90.2696 148.876 90.4155 149.045 90.6466C149.394 91.1236 149.788 91.8156 150.203 92.5453L150.219 92.5722C150.619 93.2756 151.038 94.0126 151.421 94.5389C151.612 94.8015 151.822 95.0502 152.042 95.2144C152.25 95.37 152.625 95.556 153.014 95.3301L293.209 14.4128V172.367ZM148.59 90.155C148.587 90.154 148.586 90.1533 148.586 90.1532C148.586 90.1531 148.587 90.1535 148.59 90.155Z" fill="white" stroke="#1B70F4"/>
<path d="M148.341 134.377L273.667 62.0748C274.746 61.4383 275.631 61.7919 275.631 62.8528C275.562 63.4796 275.349 64.082 275.008 64.6127C274.668 65.1434 274.208 65.588 273.667 65.9118L148.341 138.214C147.262 138.833 146.377 138.479 146.377 137.436C146.443 136.808 146.655 136.205 146.996 135.674C147.337 135.143 147.798 134.698 148.341 134.377Z" fill="#A0CDF9"/>
<path d="M148.341 145.02L273.667 72.7186C274.746 72.0997 275.631 72.4534 275.631 73.5143C275.562 74.1387 275.349 74.7386 275.008 75.2665C274.667 75.7943 274.208 76.2357 273.667 76.5556L148.341 148.857C147.262 149.494 146.377 149.14 146.377 148.079C146.446 147.453 146.659 146.85 147 146.32C147.341 145.789 147.8 145.344 148.341 145.02Z" fill="#A0CDF9"/>
<path d="M148.341 155.681L273.667 83.3795C274.746 82.743 275.631 83.0966 275.631 84.1575C275.562 84.7843 275.349 85.3866 275.008 85.9173C274.668 86.4481 274.208 86.8927 273.667 87.2165L148.341 159.518C147.262 160.137 146.377 159.784 146.377 158.723C146.446 158.098 146.659 157.498 147 156.971C147.341 156.443 147.8 156.001 148.341 155.681Z" fill="#A0CDF9"/>
<path d="M127.527 142.385C128.42 141.847 129.414 141.498 130.447 141.359C131.275 141.238 132.119 141.401 132.842 141.822C133.565 142.243 134.124 142.896 134.428 143.676C134.848 144.683 135.047 145.768 135.012 146.858C135.021 147.829 134.908 148.798 134.675 149.74C134.462 150.62 134.184 151.483 133.844 152.322C133.506 153.113 133.128 153.886 132.711 154.638L131.526 156.796C131.154 157.503 130.818 158.192 130.517 158.9C130.22 159.566 130.006 160.267 129.88 160.986C129.832 161.32 129.743 161.647 129.615 161.959C129.533 162.215 129.364 162.433 129.137 162.578L125.758 164.523C125.684 164.586 125.59 164.621 125.492 164.621C125.395 164.621 125.301 164.586 125.227 164.523C125.069 164.329 124.992 164.082 125.015 163.833C125.013 162.913 125.138 161.996 125.386 161.11C125.629 160.234 125.937 159.377 126.306 158.546C126.678 157.715 127.085 156.919 127.509 156.159C127.934 155.399 128.359 154.674 128.73 154.002C129.102 153.33 129.403 152.658 129.65 152.039C129.883 151.478 130.008 150.878 130.022 150.271C130.022 149.458 129.827 148.927 129.42 148.697C129.013 148.467 128.376 148.573 127.527 149.069C126.813 149.45 126.205 150.003 125.758 150.678C125.421 151.23 125.159 151.825 124.979 152.446C124.802 152.994 124.661 153.507 124.537 153.949C124.491 154.153 124.405 154.346 124.284 154.516C124.162 154.686 124.008 154.83 123.829 154.939L120.45 156.884C120.387 156.927 120.313 156.951 120.237 156.951C120.161 156.951 120.087 156.927 120.025 156.884C119.956 156.805 119.904 156.712 119.874 156.611C119.843 156.511 119.834 156.405 119.848 156.301C119.888 155.133 120.072 153.975 120.396 152.853C120.765 151.503 121.269 150.194 121.9 148.945C122.565 147.64 123.372 146.412 124.307 145.285C125.191 144.127 126.283 143.144 127.527 142.385ZM129.951 170.128C129.94 170.453 129.862 170.772 129.721 171.065C129.618 171.329 129.432 171.552 129.19 171.702L125.652 173.717C125.578 173.781 125.484 173.816 125.386 173.816C125.289 173.816 125.195 173.781 125.121 173.717C125.043 173.625 124.984 173.518 124.948 173.403C124.911 173.287 124.898 173.166 124.908 173.045V168.731C124.911 168.407 124.984 168.087 125.121 167.794C125.218 167.526 125.406 167.301 125.652 167.157L129.19 165.142C129.264 165.078 129.358 165.043 129.456 165.043C129.553 165.043 129.647 165.078 129.721 165.142C129.883 165.327 129.966 165.568 129.951 165.813V170.128Z" fill="#A0CDF9"/>
<path d="M119.842 249.534V190.741L276.274 100.562V159.355L119.842 249.534ZM121.611 191.749V246.563L274.54 158.277V103.462L121.611 191.749Z" fill="#A0CDF9"/>
<path d="M293.721 13.5859V27.6013L97.9141 140.573V126.558L101.551 124.453C102.515 123.887 102.843 123.038 103.32 121.394L104.55 117.114C104.94 115.628 105.347 114.611 106.32 114.054L148.509 89.7021C149.492 89.1362 150.279 89.0743 151.005 90.3034L152.518 93.0534C153.075 94.0084 153.349 94.5743 154.287 94.0084L293.721 13.5859Z" fill="#A0CDF9"/>
<path d="M285.42 10.4685C286.473 9.8672 287.313 10.3535 287.313 11.565C287.279 12.2211 287.09 12.8597 286.76 13.4284C286.431 13.9971 285.972 14.4797 285.42 14.8367C284.376 15.438 283.535 14.9516 283.535 13.7491C283.569 13.0927 283.758 12.4537 284.085 11.8837C284.413 11.3137 284.87 10.8289 285.42 10.4685Z" fill="white"/>
<path d="M277.415 15.0742C278.459 14.464 279.309 14.9592 279.309 16.1618C279.272 16.8174 279.082 17.4552 278.753 18.0236C278.424 18.592 277.965 19.075 277.415 19.4335C276.371 20.0436 275.521 19.5485 275.521 18.3459C275.558 17.6903 275.748 17.0525 276.077 16.4841C276.406 15.9157 276.865 15.4327 277.415 15.0742Z" fill="white"/>
<path d="M269.401 19.6875C270.445 19.0862 271.295 19.5725 271.295 20.7751C271.258 21.4319 271.068 22.0709 270.739 22.6408C270.41 23.2106 269.952 23.6952 269.401 24.0557C268.357 24.6569 267.508 24.1706 267.508 22.9592C267.544 22.3036 267.735 21.6658 268.064 21.0974C268.393 20.529 268.851 20.046 269.401 19.6875Z" fill="white"/>
<path d="M121.137 122.057V119.316C121.17 118.703 121.347 118.106 121.655 117.574C121.962 117.043 122.391 116.591 122.906 116.256L281.992 24.5156C282.966 23.9497 283.762 24.4095 283.762 25.5414V28.2737C283.728 28.8879 283.551 29.4856 283.243 30.0186C282.936 30.5516 282.507 31.0049 281.992 31.342L122.906 123.074C121.96 123.658 121.137 123.189 121.137 122.057Z" fill="#FAFAFA"/>
<path opacity="0.2" d="M279.706 31.8443C279.659 31.8536 279.611 31.8536 279.564 31.8443C279.477 31.8 279.407 31.7287 279.364 31.6409C279.321 31.5532 279.307 31.4539 279.326 31.3579L279.485 30.0492L278.874 29.6071C278.818 29.5669 278.773 29.5137 278.742 29.4521C278.711 29.3905 278.696 29.3223 278.697 29.2534C278.698 29.1469 278.723 29.0419 278.769 28.9457C278.814 28.8495 278.881 28.7644 278.963 28.6963L279.901 27.9801C279.92 27.9562 279.935 27.9293 279.945 27.9005L280.361 26.5299C280.387 26.4184 280.445 26.317 280.529 26.2383C280.612 26.1597 280.717 26.1074 280.83 26.0878C280.907 26.0799 280.985 26.0971 281.052 26.1369C281.119 26.1768 281.171 26.237 281.201 26.3089L281.547 27.0516L282.343 26.751C282.415 26.7191 282.495 26.7113 282.572 26.7288C282.648 26.7464 282.717 26.7883 282.768 26.8483C282.831 26.9439 282.865 27.0562 282.865 27.171C282.865 27.2858 282.831 27.3981 282.768 27.4938L282.122 28.7317C282.116 28.7579 282.116 28.7851 282.122 28.8113L282.281 29.9608C282.29 30.0656 282.276 30.171 282.241 30.27C282.206 30.3691 282.15 30.4596 282.077 30.5356C282.031 30.5865 281.973 30.6258 281.908 30.6504C281.844 30.675 281.775 30.6841 281.706 30.6771L280.945 30.5886L280.122 31.6409C280.075 31.7066 280.012 31.7597 279.94 31.7952C279.867 31.8307 279.787 31.8476 279.706 31.8443ZM279.255 29.1915L279.874 29.6336C279.939 29.6856 279.988 29.7543 280.016 29.8323C280.044 29.9103 280.05 29.9946 280.033 30.0758L279.927 30.96L280.485 30.2526C280.532 30.1873 280.594 30.1351 280.667 30.101C280.74 30.0669 280.82 30.0522 280.901 30.0581L281.67 30.1465C281.677 30.1204 281.677 30.0931 281.67 30.0669L281.511 28.9174C281.494 28.774 281.522 28.6288 281.591 28.5018L282.184 27.3877L281.573 27.6264C281.484 27.6621 281.384 27.6618 281.295 27.6255C281.206 27.5892 281.134 27.5198 281.095 27.4319L280.812 26.8483L280.441 28.0597C280.404 28.1992 280.323 28.3232 280.21 28.4134L279.273 29.1385C279.264 29.1521 279.258 29.1671 279.255 29.1827V29.1915Z" fill="url(#paint3_linear_1028_4032)"/>
<g opacity="0.3">
<path d="M106.035 129.078L103.256 130.678L104.309 128.645C104.353 128.568 104.375 128.481 104.375 128.393C104.375 128.304 104.353 128.218 104.309 128.141C104.229 128.043 104.088 128.141 103.991 128.291L102.495 131.191C102.477 131.225 102.462 131.261 102.451 131.297C102.443 131.347 102.443 131.398 102.451 131.448C102.441 131.488 102.441 131.531 102.451 131.572C102.46 131.595 102.476 131.617 102.495 131.633L103.999 132.792C104.021 132.808 104.047 132.817 104.075 132.817C104.102 132.817 104.128 132.808 104.15 132.792C104.228 132.741 104.287 132.667 104.318 132.58C104.398 132.394 104.389 132.182 104.318 132.111L103.265 131.297L106.035 129.759C106.105 129.703 106.162 129.632 106.2 129.55C106.238 129.469 106.258 129.38 106.256 129.29C106.247 129.096 106.15 128.972 106.035 129.078Z" fill="url(#paint4_linear_1028_4032)"/>
<path d="M108.34 127.736L111.119 126.136L110.057 125.322C110.011 125.253 109.986 125.171 109.986 125.088C109.986 125.004 110.011 124.923 110.057 124.853C110.137 124.659 110.278 124.562 110.367 124.632L111.88 125.791V125.853C111.885 125.897 111.885 125.941 111.88 125.985C111.884 126.032 111.884 126.08 111.88 126.127C111.88 126.127 111.88 126.206 111.88 126.242L110.367 129.133C110.339 129.203 110.289 129.262 110.225 129.301C110.214 129.313 110.201 129.322 110.187 129.328C110.172 129.335 110.157 129.338 110.141 129.338C110.125 129.338 110.11 129.335 110.095 129.328C110.081 129.322 110.068 129.313 110.057 129.301C110.013 129.226 109.991 129.141 109.991 129.054C109.991 128.967 110.013 128.881 110.057 128.806L111.119 126.772L108.34 128.373C108.216 128.444 108.119 128.373 108.119 128.161C108.124 128.078 108.147 127.998 108.185 127.925C108.223 127.852 108.276 127.788 108.34 127.736Z" fill="url(#paint5_linear_1028_4032)"/>
<path d="M117.444 119.733C117.444 119.565 117.285 119.592 117.214 119.733L116.834 120.671C116.179 120.6 115.4 121.228 114.869 122.351C114.179 123.81 114.179 125.525 114.869 126.188C115.036 126.344 115.251 126.438 115.479 126.452C115.706 126.467 115.932 126.402 116.117 126.268C116.67 125.897 117.101 125.371 117.356 124.756C117.4 124.683 117.424 124.599 117.424 124.513C117.424 124.427 117.4 124.343 117.356 124.27C117.276 124.181 117.134 124.27 117.046 124.447C116.533 125.534 115.692 126.02 115.179 125.525C114.666 125.03 114.666 123.757 115.179 122.66C115.551 121.882 116.064 121.422 116.533 121.396L116.241 122.094C116.17 122.28 116.241 122.448 116.356 122.377L117.488 121.635C117.533 121.598 117.569 121.55 117.59 121.496C117.612 121.442 117.619 121.383 117.612 121.325L117.444 119.733Z" fill="url(#paint6_linear_1028_4032)"/>
<path d="M148.187 95.3721L149.205 93.2322C149.263 93.1298 149.294 93.014 149.294 92.8962C149.294 92.7784 149.263 92.6627 149.205 92.5602C149.081 92.4453 148.886 92.5602 148.771 92.8167L147.754 94.9565L146.745 93.9839C146.621 93.8689 146.427 93.9839 146.312 94.2315C146.25 94.331 146.217 94.4458 146.217 94.563C146.217 94.6803 146.25 94.7951 146.312 94.8946L147.32 95.8762L146.312 98.0249C146.25 98.1244 146.217 98.2393 146.217 98.3565C146.217 98.4737 146.25 98.5885 146.312 98.6881C146.341 98.7142 146.379 98.7286 146.418 98.7286C146.457 98.7286 146.495 98.7142 146.524 98.6881C146.619 98.6201 146.695 98.5287 146.745 98.4228L147.754 96.2829L148.771 97.2556C148.801 97.28 148.839 97.2933 148.878 97.2933C148.916 97.2933 148.954 97.28 148.984 97.2556C149.083 97.1919 149.16 97.0993 149.205 96.9903C149.262 96.8892 149.293 96.775 149.293 96.6587C149.293 96.5425 149.262 96.4282 149.205 96.3271L148.187 95.3721Z" fill="url(#paint7_linear_1028_4032)"/>
<path d="M285.854 23.5568C285.746 23.5586 285.639 23.5307 285.546 23.4761C285.452 23.4216 285.375 23.3424 285.324 23.2473C285.243 23.1076 285.221 22.9418 285.263 22.7861C285.304 22.6304 285.406 22.4974 285.545 22.4161L290.526 19.5423C290.666 19.4619 290.832 19.44 290.988 19.4814C291.144 19.5229 291.277 19.6242 291.358 19.7633C291.405 19.8349 291.437 19.9154 291.452 19.9999C291.466 20.0844 291.463 20.1709 291.442 20.254C291.421 20.3371 291.383 20.415 291.331 20.4828C291.278 20.5505 291.212 20.6066 291.137 20.6476L286.155 23.5214C286.059 23.5572 285.956 23.5693 285.854 23.5568Z" fill="url(#paint8_linear_1028_4032)"/>
<path d="M285.854 26.3927C285.746 26.3945 285.639 26.3666 285.546 26.3121C285.452 26.2575 285.375 26.1784 285.324 26.0832C285.243 25.9436 285.221 25.7778 285.263 25.622C285.304 25.4663 285.406 25.3333 285.545 25.252L290.526 22.3782C290.666 22.2978 290.832 22.276 290.988 22.3174C291.144 22.3588 291.277 22.4601 291.358 22.5993C291.405 22.6708 291.437 22.7514 291.452 22.8358C291.466 22.9203 291.463 23.0068 291.442 23.0899C291.421 23.1731 291.383 23.251 291.331 23.3187C291.278 23.3865 291.212 23.4426 291.137 23.4835L286.155 26.3927C286.056 26.4167 285.953 26.4167 285.854 26.3927Z" fill="url(#paint9_linear_1028_4032)"/>
<path d="M285.854 29.3068C285.746 29.3086 285.639 29.2807 285.546 29.2261C285.452 29.1716 285.375 29.0924 285.324 28.9973C285.243 28.8576 285.221 28.6918 285.263 28.5361C285.304 28.3804 285.406 28.2474 285.545 28.1661L290.526 25.2923C290.666 25.2119 290.832 25.19 290.988 25.2314C291.144 25.2729 291.277 25.3742 291.358 25.5133C291.405 25.5849 291.437 25.6654 291.452 25.7499C291.466 25.8344 291.463 25.9209 291.442 26.004C291.421 26.0871 291.383 26.165 291.331 26.2328C291.278 26.3005 291.212 26.3566 291.137 26.3976L286.155 29.2714C286.059 29.3072 285.956 29.3193 285.854 29.3068Z" fill="url(#paint10_linear_1028_4032)"/>
</g>
<path d="M97.9143 126.561V140.576L92.6406 137.552V123.555L97.9143 126.561Z" fill="#A0CDF9"/>
<path d="M99.3437 286.516H99.2729C99.2172 286.547 99.1577 286.571 99.096 286.587H98.9721C98.8921 286.617 98.809 286.637 98.7243 286.648C98.6716 286.657 98.6178 286.657 98.5651 286.648H98.2907C97.5932 286.708 96.8921 286.586 96.2556 286.295C92.9374 284.88 92.6543 283.324 92.6543 282.201V123.422L97.9634 126.446V285.34C97.9634 286.136 98.3615 286.604 98.9367 286.604C99.0157 286.618 99.0965 286.618 99.1756 286.604L99.3437 286.516Z" fill="url(#paint11_linear_1028_4032)"/>
<path d="M168.926 275.56L166.779 274.345C166.549 274.195 166.357 273.993 166.22 273.756C166.082 273.518 166.003 273.251 165.988 272.977V217.762C166.003 217.487 166.082 217.221 166.219 216.983C166.357 216.745 166.548 216.543 166.779 216.394L276.378 153.179C276.624 153.056 276.894 152.992 277.169 152.992C277.443 152.992 277.714 153.056 277.96 153.179L280.107 154.395C280.337 154.545 280.528 154.747 280.666 154.984C280.803 155.222 280.882 155.488 280.897 155.763V210.96C280.883 211.234 280.804 211.501 280.666 211.739C280.529 211.976 280.337 212.178 280.107 212.328L170.514 275.56C170.268 275.687 169.996 275.753 169.72 275.753C169.444 275.753 169.171 275.687 168.926 275.56Z" fill="url(#paint12_linear_1028_4032)"/>
<path d="M262.363 214.82V213.447C262.371 213.276 262.424 213.112 262.518 212.97C262.612 212.829 262.743 212.717 262.896 212.647L263.21 212.463C263.577 212.241 263.742 212.295 263.742 212.614V213.987C263.733 214.157 263.679 214.322 263.585 214.463C263.492 214.604 263.362 214.716 263.21 214.787L262.896 214.971C262.56 215.187 262.363 215.139 262.363 214.82ZM262.656 211.673C262.587 211.636 262.555 211.533 262.555 211.365V205.154C262.563 204.983 262.616 204.817 262.71 204.675C262.804 204.533 262.934 204.42 263.087 204.348L263.524 204.094C263.64 204.006 263.783 203.962 263.928 203.97C264.03 203.97 264.077 204.056 264.077 204.186L263.593 210.733C263.583 210.887 263.543 211.038 263.476 211.176C263.381 211.313 263.252 211.423 263.103 211.495L263.029 211.544C262.896 211.668 262.736 211.706 262.672 211.673H262.656Z" fill="white"/>
<path d="M268.203 211.234V209.861C268.211 209.691 268.264 209.526 268.358 209.384C268.452 209.243 268.583 209.131 268.735 209.061L269.05 208.877C269.417 208.655 269.582 208.709 269.582 209.028V210.401C269.573 210.571 269.519 210.736 269.425 210.877C269.331 211.018 269.202 211.13 269.05 211.201L268.735 211.385C268.4 211.602 268.203 211.553 268.203 211.234ZM268.496 208.088C268.427 208.05 268.395 207.947 268.395 207.779V201.568C268.402 201.397 268.456 201.231 268.55 201.089C268.644 200.947 268.774 200.834 268.927 200.762L269.364 200.508C269.48 200.42 269.623 200.376 269.768 200.384C269.869 200.384 269.917 200.47 269.917 200.6L269.433 207.147C269.423 207.301 269.383 207.452 269.316 207.59C269.221 207.727 269.092 207.837 268.943 207.909L268.869 207.958C268.735 208.082 268.576 208.12 268.512 208.088H268.496Z" fill="white"/>
<path d="M273.344 207.812V206.439C273.351 206.269 273.405 206.104 273.499 205.963C273.593 205.821 273.723 205.709 273.876 205.639L274.19 205.455C274.557 205.233 274.723 205.287 274.723 205.606V206.979C274.714 207.149 274.66 207.314 274.566 207.455C274.472 207.596 274.342 207.708 274.19 207.78L273.876 207.963C273.541 208.18 273.344 208.131 273.344 207.812ZM273.637 204.666C273.567 204.628 273.535 204.525 273.535 204.358V198.146C273.543 197.975 273.597 197.81 273.691 197.668C273.785 197.525 273.915 197.412 274.068 197.34L274.504 197.086C274.621 196.998 274.764 196.954 274.909 196.962C275.01 196.962 275.058 197.048 275.058 197.178L274.573 203.725C274.563 203.879 274.523 204.03 274.456 204.168C274.361 204.305 274.233 204.415 274.084 204.487L274.009 204.536C273.876 204.66 273.716 204.698 273.653 204.666H273.637Z" fill="white"/>
<path opacity="0.4" d="M280.87 155.525C280.767 155.197 280.462 155.094 280.11 155.307L170.517 218.54C170.282 218.693 170.09 218.902 169.957 219.147L166.229 217.002C166.36 216.755 166.553 216.545 166.788 216.394L276.393 153.179C276.639 153.056 276.909 152.992 277.184 152.992C277.459 152.992 277.729 153.056 277.975 153.179L280.116 154.395C280.311 154.523 280.478 154.689 280.608 154.883C280.738 155.078 280.827 155.296 280.87 155.525Z" fill="white"/>
<path opacity="0.15" d="M170.319 275.646C170.093 275.729 169.853 275.765 169.613 275.75C169.374 275.735 169.139 275.671 168.926 275.561L166.785 274.346C166.555 274.195 166.364 273.993 166.227 273.756C166.09 273.518 166.01 273.252 165.994 272.978V217.762C166.001 217.488 166.078 217.22 166.219 216.984L169.948 219.13C169.803 219.365 169.721 219.633 169.71 219.908V275.105C169.71 275.537 169.972 275.75 170.319 275.646Z" fill="black"/>
<path d="M172.188 274.598V280.227C172.187 280.422 172.249 280.612 172.364 280.77C172.48 280.927 172.643 281.043 172.83 281.101C173.016 281.159 173.216 281.155 173.401 281.091C173.585 281.027 173.744 280.905 173.854 280.743L182.071 268.891L172.188 274.598Z" fill="url(#paint13_linear_1028_4032)"/>
<path d="M225.396 212.531L231.478 209.018C232.202 208.599 232.792 208.897 232.792 209.687C232.759 210.128 232.623 210.555 232.395 210.934C232.167 211.313 231.853 211.633 231.478 211.869L225.396 215.382C224.666 215.802 224.076 215.504 224.076 214.72C224.108 214.277 224.245 213.848 224.474 213.468C224.703 213.087 225.019 212.767 225.396 212.531Z" fill="#FAFAFA"/>
<path d="M235.998 206.413L251.496 197.471C252.226 197.052 252.816 197.35 252.816 198.134C252.783 198.577 252.647 199.006 252.418 199.386C252.188 199.766 251.872 200.087 251.496 200.322L235.998 209.263C235.268 209.683 234.678 209.385 234.678 208.595C234.711 208.153 234.848 207.725 235.077 207.346C235.306 206.967 235.622 206.647 235.998 206.413Z" fill="#FAFAFA"/>
<path d="M255.365 195.235L272.858 185.151C273.581 184.732 274.171 185.029 274.171 185.82C274.139 186.261 274.003 186.688 273.774 187.067C273.546 187.446 273.232 187.766 272.858 188.002L255.365 198.086C254.641 198.505 254.051 198.207 254.051 197.423C254.083 196.981 254.218 196.553 254.447 196.172C254.675 195.792 254.989 195.471 255.365 195.235Z" fill="#FAFAFA"/>
<path d="M225.388 195.429L240.886 186.463C241.616 186.044 242.2 186.342 242.2 187.132C242.169 187.573 242.033 188.001 241.805 188.38C241.577 188.76 241.262 189.08 240.886 189.314L225.388 198.255C224.658 198.675 224.068 198.377 224.068 197.593C224.104 197.154 224.242 196.73 224.471 196.354C224.701 195.979 225.015 195.662 225.388 195.429Z" fill="#FAFAFA"/>
<path d="M244.755 184.259L259.086 175.987C259.815 175.567 260.405 175.865 260.405 176.655C260.372 177.097 260.236 177.525 260.006 177.904C259.777 178.283 259.462 178.603 259.086 178.838L244.755 187.11C244.026 187.53 243.436 187.232 243.436 186.442C243.47 186 243.607 185.573 243.836 185.194C244.065 184.815 244.38 184.495 244.755 184.259Z" fill="#FAFAFA"/>
<path d="M263.038 173.701L273.269 167.799C273.999 167.38 274.589 167.678 274.589 168.468C274.558 168.912 274.422 169.342 274.192 169.723C273.963 170.105 273.647 170.426 273.269 170.662L263.038 176.564C262.315 176.984 261.725 176.686 261.725 175.902C261.755 175.458 261.889 175.027 262.118 174.644C262.346 174.262 262.661 173.939 263.038 173.701Z" fill="#FAFAFA"/>
<path d="M225.388 203.989L254.584 187.127C255.308 186.708 255.898 187.006 255.898 187.796C255.865 188.237 255.729 188.664 255.501 189.043C255.272 189.422 254.958 189.743 254.584 189.978L225.388 206.84C224.658 207.259 224.068 206.961 224.068 206.171C224.101 205.729 224.238 205.301 224.467 204.922C224.697 204.543 225.012 204.223 225.388 203.989Z" fill="#FAFAFA"/>
<path d="M258.849 184.672L272.839 176.612C273.568 176.193 274.158 176.49 274.158 177.275C274.126 177.717 273.99 178.146 273.761 178.527C273.531 178.907 273.215 179.228 272.839 179.463L258.849 187.523C258.119 187.942 257.529 187.644 257.535 186.854C257.568 186.413 257.704 185.986 257.932 185.607C258.16 185.228 258.474 184.908 258.849 184.672Z" fill="#FAFAFA"/>
<path d="M196.827 206.313C184.577 213.388 174.644 230.572 174.65 244.71C174.656 258.848 184.583 264.58 196.833 257.511C209.083 250.442 219.022 233.246 219.009 219.114C218.997 204.982 209.065 199.232 196.827 206.313Z" fill="#A0CDF9"/>
<path d="M206.093 239.954C201.957 239.784 190.973 238.386 190.973 238.386C187.698 236.254 185.054 233.286 183.315 229.789C181.576 226.291 180.805 222.393 181.083 218.497L181.326 215.081C181.532 211.932 182.806 208.946 184.937 206.617C187.069 204.287 189.932 202.754 193.053 202.268C194.939 201.983 196.864 202.125 198.688 202.684C200.511 203.243 202.186 204.204 203.587 205.496C204.989 206.789 206.082 208.38 206.785 210.152C207.488 211.923 207.784 213.83 207.651 215.732C207.529 217.409 207.711 218.941 208.867 220.254C209.531 220.914 210.268 221.497 211.063 221.992C212.192 222.726 213.176 223.661 213.964 224.752C214.354 225.301 214.628 225.924 214.767 226.583C214.906 227.241 214.908 227.922 214.773 228.581C214.54 229.42 214.071 230.175 213.423 230.757C213.305 230.839 213.225 230.963 213.198 231.104C213.202 231.206 213.233 231.304 213.289 231.39C214.274 233.177 214.566 235.48 213.514 237.231C212.797 238.323 211.721 239.131 210.473 239.516C209.239 239.894 207.949 240.059 206.659 240.003C206.513 239.954 206.3 239.954 206.093 239.954Z" fill="#263238"/>
<path d="M186.718 240.059C186.411 242.347 185.216 244.423 183.391 245.839C182.791 246.311 182.122 246.688 181.408 246.958L178.288 256.628C175.989 253.924 174.639 249.869 174.639 244.691C174.655 242.608 174.859 240.531 175.247 238.485C176.847 234.522 178.896 232.868 183.361 232.406C183.58 232.54 187.473 235.184 186.718 240.059Z" fill="#FCE1C8"/>
<path d="M234.383 239.621C231.751 244.203 228.886 248.648 225.801 252.938C225.034 253.96 222.893 256.78 221.774 257.053C220.351 257.406 219.14 256.281 218.38 255.759C215.801 253.972 202.456 240.715 202.456 240.715C198.302 234.928 199.348 231.239 199.914 231.233C200.479 231.227 204.737 230.114 208.38 233.664C211.142 236.357 220.576 246.1 220.576 246.1C222.802 243.487 224.262 242.192 226.482 239.572C227.564 238.296 229.213 236.922 229.286 235.165C229.278 234.363 229.207 233.562 229.073 232.77C228.939 230.94 229.055 229.099 229.42 227.3C229.427 227.218 229.447 227.138 229.48 227.063C229.54 226.962 229.632 226.885 229.742 226.844C229.946 226.785 230.165 226.795 230.363 226.873C230.561 226.951 230.728 227.093 230.837 227.276C231.046 227.648 231.16 228.065 231.171 228.491C231.182 228.91 231.273 229.323 231.439 229.707C231.474 229.786 231.528 229.855 231.597 229.908C231.674 229.959 231.766 229.985 231.859 229.981C232.363 229.981 232.637 229.433 232.82 229.032C233.259 228.094 233.614 227.117 233.878 226.115C234.06 225.428 234.377 224.765 234.614 224.085C234.707 223.681 234.919 223.315 235.222 223.033C235.77 222.626 236.548 222.851 237.162 223.161C237.501 223.329 237.821 223.533 238.117 223.768C238.992 224.567 239.569 225.638 239.754 226.808C240 228.16 239.908 229.553 239.486 230.862C238.964 232.704 238.097 234.43 236.931 235.949C236.104 237.177 235.161 238.338 234.383 239.621Z" fill="#FCE1C8"/>
<path d="M204.694 248.213L204.542 251.465C202.253 253.812 199.661 255.844 196.835 257.507C194.327 259.027 191.535 260.021 188.63 260.43C186.587 260.706 184.507 260.47 182.578 259.744L183.034 258.309L181.404 246.973C181.648 246.741 181.864 246.482 182.049 246.201C182.14 246.073 182.232 245.934 182.335 245.769C182.453 245.587 182.56 245.398 182.657 245.204C182.73 245.07 182.797 244.931 182.87 244.779C182.943 244.627 183.01 244.475 183.083 244.311L183.205 244.037C183.278 243.855 183.351 243.654 183.424 243.429C183.448 243.372 183.468 243.313 183.484 243.253C183.829 242.215 184.073 241.146 184.214 240.062C184.823 235.558 183.703 232.859 183.345 232.397C183.533 232.336 187.681 232.105 187.681 232.105L195.996 231.133L199.98 231.285C203.014 233.158 203.594 235.24 204.904 238.556C207.027 243.777 204.694 248.213 204.694 248.213Z" fill="#FAFAFA"/>
<path opacity="0.1" d="M188.63 260.427C186.587 260.703 184.507 260.467 182.578 259.741L183.034 258.306L181.404 246.97C181.648 246.738 181.864 246.479 182.049 246.198C182.14 246.07 182.232 245.931 182.335 245.766C182.453 245.584 182.56 245.395 182.657 245.201C182.73 245.067 182.797 244.928 182.87 244.776C182.943 244.624 183.01 244.472 183.083 244.308L183.205 244.034C183.278 243.852 183.351 243.651 183.424 243.426C183.448 243.369 183.468 243.31 183.484 243.25C183.448 243.858 183.399 244.806 183.387 245.833C183.37 246.994 183.423 248.155 183.545 249.31C183.91 252.276 187.091 258.744 188.338 259.771C188.446 259.84 188.531 259.938 188.583 260.055C188.635 260.172 188.651 260.301 188.63 260.427Z" fill="black"/>
<path d="M204.275 209.773C205.06 210.71 206.033 213.086 205.23 220.654C204.549 227.066 202.335 228.483 201.252 228.853C200.17 229.224 198.175 228.774 196.24 228.288L195.979 231.418C197.835 232.871 199.259 234.526 199.662 236.54C200.065 239.361 195.073 239.667 190.888 235.722C188.649 233.613 187.238 232.123 187.238 232.123L188.059 222.848C188.059 222.848 186.843 223.875 185.018 222.003C183.522 220.459 183.194 218.034 184.538 216.855C184.889 216.578 185.302 216.389 185.741 216.302C186.18 216.216 186.634 216.236 187.064 216.359C187.494 216.483 187.889 216.707 188.215 217.013C188.542 217.319 188.791 217.698 188.941 218.119C188.941 218.119 192.062 218.496 196.417 216.551C200.772 214.606 203.789 212.241 204.275 209.773Z" fill="#FCE1C8"/>
<path d="M198.489 218.611C198.493 218.724 198.475 218.836 198.434 218.94C198.393 219.045 198.331 219.14 198.252 219.219C198.172 219.299 198.077 219.361 197.973 219.402C197.868 219.443 197.756 219.462 197.644 219.458C197.532 219.454 197.421 219.427 197.32 219.378C197.219 219.329 197.129 219.26 197.056 219.175C196.983 219.089 196.928 218.99 196.895 218.883C196.862 218.775 196.852 218.662 196.865 218.551C196.86 218.438 196.879 218.326 196.92 218.222C196.961 218.117 197.023 218.022 197.102 217.943C197.181 217.863 197.276 217.801 197.381 217.76C197.485 217.719 197.597 217.699 197.71 217.704C197.822 217.708 197.932 217.735 198.033 217.784C198.135 217.833 198.225 217.902 198.298 217.987C198.371 218.073 198.426 218.172 198.459 218.279C198.491 218.387 198.502 218.5 198.489 218.611Z" fill="#263238"/>
<path d="M197.579 223.703L199.666 224.56C199.616 224.7 199.538 224.829 199.437 224.939C199.336 225.048 199.214 225.136 199.079 225.197C198.943 225.259 198.796 225.292 198.647 225.295C198.498 225.299 198.35 225.272 198.212 225.217C197.937 225.089 197.719 224.863 197.602 224.583C197.485 224.302 197.477 223.989 197.579 223.703Z" fill="#F0D0B3"/>
<path d="M205.13 216.981L203.354 216.087C203.406 215.968 203.482 215.861 203.577 215.772C203.672 215.684 203.784 215.615 203.906 215.572C204.029 215.528 204.159 215.509 204.289 215.518C204.419 215.526 204.545 215.56 204.661 215.619C204.899 215.743 205.08 215.953 205.167 216.207C205.254 216.46 205.241 216.737 205.13 216.981Z" fill="#263238"/>
<path d="M204.27 218.901C204.258 219.059 204.2 219.209 204.103 219.334C204.006 219.46 203.875 219.554 203.725 219.605C203.575 219.656 203.413 219.662 203.26 219.622C203.107 219.582 202.969 219.499 202.863 219.381C202.757 219.264 202.687 219.118 202.663 218.961C202.64 218.805 202.662 218.645 202.729 218.501C202.795 218.357 202.902 218.236 203.036 218.153C203.171 218.069 203.327 218.027 203.485 218.032C203.594 218.037 203.7 218.064 203.799 218.11C203.897 218.157 203.985 218.223 204.058 218.303C204.131 218.384 204.187 218.479 204.224 218.581C204.26 218.684 204.276 218.792 204.27 218.901Z" fill="#263238"/>
<path d="M201.025 217.742L200.545 223L203.173 222.423L201.025 217.742Z" fill="#F0D0B3"/>
<path d="M196.236 228.289C194.186 227.846 190.038 226.271 189.545 224.539C189.74 225.412 190.198 226.203 190.859 226.806C192.039 228.022 196.157 229.572 196.157 229.572L196.236 228.289Z" fill="#F0D0B3"/>
<path d="M188.467 220.449C188.898 220.449 189.311 220.278 189.615 219.974C189.92 219.669 190.091 219.256 190.091 218.826C190.091 218.396 189.92 217.983 189.615 217.678C189.311 217.374 188.898 217.203 188.467 217.203V220.449Z" fill="#263238"/>
<path d="M238.057 152.048L235.91 150.832C235.681 150.681 235.491 150.478 235.355 150.241C235.219 150.003 235.14 149.738 235.125 149.464V94.2426C235.14 93.9686 235.22 93.7021 235.357 93.4646C235.495 93.227 235.686 93.025 235.916 92.8749L345.521 29.6602C345.765 29.5344 346.037 29.4688 346.312 29.4688C346.587 29.4688 346.858 29.5344 347.102 29.6602L349.243 30.8759C349.474 31.0256 349.665 31.2275 349.802 31.4651C349.94 31.7028 350.019 31.9695 350.034 32.2435V87.4409C350.02 87.715 349.941 87.9819 349.803 88.2196C349.666 88.4573 349.474 88.6591 349.243 88.8085L239.644 152.023C239.4 152.151 239.129 152.22 238.853 152.224C238.578 152.228 238.305 152.168 238.057 152.048Z" fill="#79B9FB"/>
<path d="M239.638 95.0247L349.237 31.81C349.675 31.5608 350.028 31.7614 350.028 32.2659V87.4633C350.014 87.7374 349.935 88.0043 349.797 88.242C349.66 88.4797 349.468 88.6815 349.237 88.8309L239.638 152.046C239.2 152.295 238.848 152.088 238.848 151.59V96.3923C238.862 96.1182 238.941 95.8513 239.079 95.6136C239.216 95.3759 239.408 95.1741 239.638 95.0247Z" fill="url(#paint14_linear_1028_4032)"/>
<path d="M239.462 152.123C239.235 152.206 238.994 152.242 238.753 152.227C238.512 152.212 238.277 152.148 238.063 152.038L235.922 150.822C235.692 150.672 235.501 150.47 235.364 150.232C235.226 149.995 235.147 149.728 235.131 149.455V94.239C235.139 93.964 235.219 93.696 235.362 93.4609L239.084 95.6066C238.941 95.8416 238.862 96.1097 238.853 96.3846V151.582C238.853 152.014 239.103 152.238 239.462 152.123Z" fill="#1862D0"/>
<path d="M244.56 118.5L250.642 114.987C251.372 114.568 251.962 114.865 251.962 115.65C251.93 116.092 251.794 116.521 251.564 116.902C251.335 117.282 251.019 117.603 250.642 117.838L244.56 121.351C243.836 121.77 243.246 121.473 243.246 120.682C243.279 120.241 243.415 119.814 243.643 119.435C243.871 119.056 244.185 118.736 244.56 118.5Z" fill="white"/>
<path d="M255.17 112.373L270.667 103.432C271.391 103.013 271.981 103.311 271.981 104.101C271.948 104.542 271.812 104.969 271.584 105.348C271.356 105.727 271.042 106.047 270.667 106.283L255.163 115.23C254.44 115.65 253.85 115.352 253.85 114.562C253.882 114.119 254.018 113.69 254.247 113.31C254.477 112.929 254.793 112.609 255.17 112.373Z" fill="white"/>
<path d="M274.529 101.185L291.237 91.5573C291.967 91.1379 292.557 91.4358 292.557 92.2199C292.525 92.6627 292.389 93.0917 292.159 93.4719C291.93 93.8521 291.614 94.1729 291.237 94.4081L274.529 104.036C273.799 104.456 273.209 104.158 273.209 103.374C273.241 102.931 273.377 102.502 273.607 102.122C273.836 101.741 274.152 101.421 274.529 101.185Z" fill="white"/>
<path d="M244.554 101.397L260.058 92.4558C260.782 92.0364 261.372 92.3342 261.372 93.1183C261.34 93.5605 261.204 93.9889 260.976 94.369C260.748 94.7491 260.433 95.0703 260.058 95.3065L244.554 104.223C243.83 104.643 243.24 104.345 243.24 103.555C243.277 103.118 243.415 102.696 243.643 102.321C243.871 101.947 244.183 101.63 244.554 101.397Z" fill="white"/>
<path d="M263.925 90.2456L278.256 81.979C278.985 81.5596 279.569 81.8575 279.569 82.6477C279.538 83.0891 279.403 83.5169 279.174 83.8961C278.946 84.2753 278.631 84.5952 278.256 84.8298L263.919 93.1024C263.195 93.5218 262.605 93.224 262.605 92.4338C262.638 91.991 262.774 91.562 263.003 91.1818C263.233 90.8015 263.549 90.4808 263.925 90.2456Z" fill="white"/>
<path d="M282.209 79.6605L291.661 74.19C292.384 73.7706 292.974 74.0684 292.974 74.8586C292.942 75.2997 292.806 75.7269 292.577 76.1059C292.349 76.4849 292.035 76.8051 291.661 77.0407L282.209 82.5112C281.479 82.9306 280.889 82.6328 280.889 81.8426C280.922 81.4008 281.058 80.9731 281.288 80.594C281.517 80.2149 281.833 79.8951 282.209 79.6605Z" fill="white"/>
<path d="M244.554 109.951L273.78 93.0962C274.51 92.6768 275.1 92.9747 275.1 93.7648C275.067 94.2066 274.93 94.6344 274.701 95.0135C274.472 95.3926 274.156 95.7124 273.78 95.947L244.554 112.808C243.83 113.228 243.24 112.93 243.24 112.14C243.272 111.698 243.408 111.269 243.636 110.889C243.864 110.509 244.179 110.188 244.554 109.951Z" fill="white"/>
<path d="M278.019 90.6396L291.224 83.0417C291.954 82.6223 292.544 82.9202 292.544 83.7043C292.512 84.1471 292.376 84.5761 292.146 84.9563C291.917 85.3365 291.601 85.6573 291.224 85.8925L278.019 93.4904C277.289 93.9159 276.699 93.6119 276.699 92.8278C276.731 92.385 276.868 91.9561 277.097 91.5758C277.326 91.1956 277.642 90.8748 278.019 90.6396Z" fill="white"/>
<path d="M347.555 89.7734L348.437 97.0674C348.457 97.2357 348.431 97.4063 348.359 97.5602C348.288 97.7141 348.176 97.8451 348.034 97.9385C347.893 98.0319 347.728 98.0841 347.558 98.0891C347.389 98.0942 347.221 98.0519 347.074 97.967L340.092 93.9675L347.555 89.7734Z" fill="url(#paint15_linear_1028_4032)"/>
<path d="M322.243 49.6672C309.993 56.7423 300.061 73.9258 300.061 88.064C300.061 102.202 310.017 107.934 322.243 100.865C334.469 93.7959 344.438 76.6003 344.426 62.4681C344.414 48.336 334.481 42.5981 322.243 49.6672Z" fill="#A0CDF9"/>
<path d="M277.172 81.251C279.807 85.8328 282.673 90.2778 285.76 94.5686C286.52 95.5898 288.661 98.4041 289.781 98.6837C291.21 99.0362 292.42 97.9117 293.175 97.389C295.753 95.5959 309.098 82.339 309.098 82.339C313.253 76.5524 312.206 72.8629 311.641 72.8629C311.075 72.8629 306.817 71.7445 303.174 75.2942C300.413 77.9869 290.979 87.7305 290.979 87.7305C288.753 85.1168 287.293 83.8221 285.073 81.2024C283.99 79.9259 282.348 78.5522 282.269 76.8017C282.278 75.9988 282.351 75.198 282.488 74.4068C282.616 72.5757 282.498 70.7357 282.135 68.9363C282.127 68.8546 282.106 68.7747 282.074 68.6992C282.016 68.5971 281.923 68.5194 281.813 68.4804C281.607 68.4215 281.388 68.4325 281.19 68.5117C280.992 68.591 280.826 68.7339 280.718 68.9181C280.51 69.2901 280.397 69.7077 280.389 70.1337C280.376 70.5527 280.283 70.9653 280.116 71.3494C280.079 71.4277 280.025 71.4964 279.957 71.55C279.88 71.5959 279.792 71.621 279.702 71.6229C279.191 71.6229 278.923 71.0698 278.735 70.6686C278.298 69.7308 277.944 68.7566 277.677 67.7571C277.494 67.0702 277.178 66.4077 276.941 65.7269C276.849 65.3214 276.637 64.9529 276.332 64.6693C275.779 64.2681 275 64.493 274.392 64.7969C274.05 64.9639 273.728 65.1677 273.431 65.4048C272.559 66.2053 271.983 67.2759 271.795 68.4439C271.552 69.799 271.644 71.1928 272.062 72.5043C272.588 74.3449 273.455 76.0706 274.617 77.5918C275.469 78.8075 276.405 79.9685 277.172 81.251Z" fill="#FCE1C8"/>
<path d="M312.823 72.8449C312.823 72.8449 308.669 71.2098 304.916 73.629C301.163 76.0482 290.975 87.7368 290.975 87.7368L288.414 84.8921C288.414 84.8921 287.058 89.9189 282.812 90.3626C282.812 90.3626 286.146 95.7967 288.007 97.8025C289.868 99.8084 291.352 99.4376 293.481 97.8025C295.61 96.1675 305.987 86.5941 305.987 86.5941C308.297 85.1691 310.163 83.1258 311.371 80.6958C312.579 78.2657 313.082 75.546 312.823 72.8449Z" fill="url(#paint16_linear_1028_4032)"/>
<path d="M333.885 85.3369L333.702 90.5825C333.246 91.1904 332.772 91.7435 332.291 92.3027C329.444 95.6983 326.048 98.5932 322.243 100.867C315.242 104.909 309.002 104.763 304.939 101.262C304.884 94.8799 304.896 86.9842 305.237 83.4223C305.845 76.9306 308.029 73.6301 311.319 72.9128C312.888 72.5663 324.652 73.6361 324.652 73.6361L331.166 75.2651C331.306 75.3315 331.443 75.4066 331.574 75.49C332.571 76.0979 333.064 77.2345 333.581 78.8696C333.952 80.0549 333.885 83.1305 333.885 85.3369Z" fill="#F5F5F5"/>
<path d="M323.943 54.3848C323.83 55.9573 323.252 57.4609 322.283 58.7051C321.314 59.9492 319.997 60.8779 318.499 61.3734C317.002 61.8689 315.39 61.9089 313.87 61.4883C312.349 61.0678 310.988 60.2056 309.958 59.0111C308.929 57.8166 308.277 56.3435 308.086 54.7784C307.895 53.2134 308.173 51.627 308.885 50.2201C309.597 48.8132 310.711 47.6493 312.086 46.8758C313.461 46.1023 315.034 45.754 316.607 45.8751C318.707 46.0368 320.658 47.0227 322.032 48.6173C323.407 50.2119 324.094 52.2855 323.943 54.3848Z" fill="#263238"/>
<path d="M329.296 60.4609C329.296 60.4609 327.544 66.4116 326.948 67.3659C326.557 67.9498 325.956 68.361 325.27 68.5147L325.689 64.2599L329.296 60.4609Z" fill="#263238"/>
<path d="M328.299 51.6757C328.368 51.4886 328.474 51.3179 328.613 51.1745C328.751 51.0311 328.918 50.9181 329.102 50.8429C329.35 50.768 329.613 50.7534 329.868 50.8004C331.48 51.0131 332.417 52.4598 332.508 54.0098C332.526 55.1473 332.304 56.2759 331.857 57.3224C331.59 58.1465 331.165 58.9105 330.604 59.5714C330.336 59.8686 330.009 60.1069 329.643 60.2712C329.278 60.4354 328.882 60.5221 328.482 60.5257C327.938 60.4788 327.391 60.4951 326.852 60.5744C327.034 59.4641 327.221 58.3558 327.411 57.2495L327.867 54.5264C327.934 54.1252 328.019 53.7241 328.068 53.3108C328.077 52.7691 328.15 52.2304 328.287 51.7061L328.299 51.6757Z" fill="#263238"/>
<path d="M326.122 60.5189C326.585 60.8471 327.339 59.9657 328.002 59.3822C328.665 58.7987 330.672 58.0936 331.493 60.2271C332.314 62.3606 330.277 65.0229 328.677 65.3937C325.958 66.0015 325.69 64.2874 325.69 64.2874L324.754 74.1343C321.104 78.1096 311.902 77.9637 316.056 73.8365L316.36 70.0193C315.162 70.1154 313.957 70.0849 312.765 69.9281C310.831 69.4783 309.724 67.8433 309.292 65.6733C308.599 62.2026 308.447 59.4369 309.767 52.8237C311.214 45.5722 319.736 46.1375 324.115 49.3955C328.494 52.6535 326.122 60.5189 326.122 60.5189Z" fill="#FCE1C8"/>
<path d="M329.106 54.4472C329.3 53.7482 328.954 53.031 329.106 52.3198C329.258 51.6086 329.714 51.3169 329.97 50.7394C330.438 49.6332 329.824 48.7579 328.96 48.0528C325.56 45.2872 320.755 45.0562 316.929 42.9288C316.377 42.5815 315.794 42.2845 315.189 42.0413C314.884 41.9237 314.558 41.8705 314.231 41.8852C313.905 41.8998 313.585 41.982 313.292 42.1264C313.042 42.2898 312.828 42.5015 312.662 42.7489C312.496 42.9963 312.381 43.2745 312.324 43.567C312.247 44.1552 312.22 44.7491 312.245 45.3419C311.686 45.3419 311.187 44.9589 310.615 44.9042C310.002 44.8361 309.383 44.9414 308.827 45.2081C308.453 45.3642 308.146 45.6458 307.957 46.0044C307.844 46.2901 307.796 46.5975 307.817 46.904C307.848 47.8887 308.114 48.8518 308.592 49.7134C309.07 50.575 309.747 51.3101 310.567 51.8578C311.139 52.2224 311.751 52.5202 312.391 52.7453C313.464 53.1768 314.61 53.3996 315.767 53.4017C316.933 53.3985 318.057 52.9657 318.924 52.1861C319.442 53.2624 320.296 54.1413 321.357 54.6903C321.894 54.9545 322.486 55.0873 323.085 55.0778C323.683 55.0683 324.271 54.9167 324.799 54.6356C324.866 56.2525 325.061 57.8572 325.158 59.4983C325.128 60.0223 325.3 60.5379 325.639 60.9389C326.582 61.8141 327.397 59.863 327.968 59.4193C328.303 59.1579 328.333 58.5015 328.376 58.1246C328.418 57.7477 328.455 57.3405 328.467 56.9515C328.423 56.7006 328.403 56.4463 328.406 56.1917C328.589 55.5474 328.948 55.0247 329.106 54.4472Z" fill="#263238"/>
<path d="M329.925 51.4434L332.966 50.0879C332.887 49.8833 332.768 49.6967 332.615 49.5394C332.462 49.3821 332.279 49.2573 332.077 49.1727C331.875 49.0881 331.657 49.0453 331.438 49.0469C331.218 49.0486 331.002 49.0946 330.801 49.1822C330.393 49.3756 330.075 49.7178 329.912 50.1384C329.749 50.559 329.754 51.0261 329.925 51.4434Z" fill="#263238"/>
<path d="M316.359 70.0192C316.359 70.0192 320.787 69.4722 322.374 68.8036C323.305 68.4057 324.094 67.7362 324.637 66.8828C324.339 67.7564 323.867 68.5607 323.25 69.2473C322.034 70.5906 316.268 71.2045 316.268 71.2045L316.359 70.0192Z" fill="#F0D0B3"/>
<path d="M317.44 58.7525C317.434 58.9239 317.479 59.093 317.569 59.2391C317.659 59.3851 317.79 59.5015 317.946 59.5738C318.101 59.6462 318.274 59.6713 318.444 59.6461C318.614 59.6209 318.772 59.5464 318.9 59.432C319.028 59.3175 319.119 59.1681 319.163 59.0023C319.206 58.8364 319.2 58.6615 319.145 58.4992C319.09 58.3368 318.988 58.1942 318.853 58.0891C318.717 57.9839 318.554 57.9208 318.383 57.9076C318.265 57.9011 318.148 57.9178 318.037 57.9567C317.926 57.9956 317.823 58.0561 317.736 58.1346C317.648 58.213 317.577 58.308 317.526 58.4141C317.475 58.5201 317.446 58.6351 317.44 58.7525Z" fill="#263238"/>
<path d="M318.617 55.5307L320.405 56.7038C320.559 56.4581 320.611 56.1624 320.551 55.8789C320.491 55.5955 320.323 55.3464 320.083 55.1842C319.965 55.1073 319.833 55.0553 319.694 55.0311C319.555 55.0069 319.413 55.0111 319.276 55.0435C319.139 55.0759 319.01 55.1358 318.896 55.2195C318.783 55.3033 318.688 55.4091 318.617 55.5307Z" fill="#263238"/>
<path d="M317.494 64.4688L315 65.1921C315.041 65.3585 315.115 65.5151 315.218 65.6525C315.32 65.79 315.449 65.9054 315.597 65.9921C315.745 66.0788 315.909 66.135 316.079 66.1573C316.249 66.1796 316.422 66.1676 316.588 66.1221C316.923 66.0166 317.204 65.7856 317.373 65.4775C317.542 65.1694 317.585 64.8079 317.494 64.4688Z" fill="#F0D0B3"/>
<path d="M310.097 55.5986L311.922 54.4194C311.851 54.2977 311.756 54.1918 311.642 54.1082C311.529 54.0245 311.399 53.9649 311.262 53.9331C311.125 53.9012 310.983 53.8977 310.844 53.9228C310.705 53.9479 310.573 54.0011 310.456 54.079C310.212 54.2376 310.038 54.484 309.972 54.767C309.905 55.05 309.95 55.3478 310.097 55.5986Z" fill="#263238"/>
<path d="M310.44 57.9713C310.434 58.1426 310.479 58.3118 310.569 58.4578C310.659 58.6038 310.79 58.7202 310.946 58.7926C311.101 58.8649 311.274 58.8901 311.444 58.8648C311.614 58.8396 311.772 58.7652 311.9 58.6507C312.028 58.5363 312.119 58.3869 312.163 58.221C312.206 58.0552 312.2 57.8803 312.145 57.7179C312.09 57.5556 311.988 57.413 311.853 57.3078C311.717 57.2027 311.554 57.1396 311.383 57.1264C311.265 57.1198 311.148 57.1365 311.037 57.1754C310.926 57.2144 310.823 57.2748 310.736 57.3533C310.648 57.4318 310.577 57.5268 310.526 57.6328C310.475 57.7389 310.446 57.8539 310.44 57.9713Z" fill="#263238"/>
<path d="M314.573 57.4844L313.879 62.7178L311.209 61.569L314.573 57.4844Z" fill="#F0D0B3"/>
<path d="M339.824 80.7093C338.135 84.2115 336.075 87.5228 333.681 90.5866C333.225 91.1944 332.75 91.7476 332.27 92.3068C329.186 86.8363 328.438 77.7188 330.104 75.0078L331.826 75.2692C333.493 75.4824 335.087 76.0863 336.477 77.0317C337.867 77.977 339.014 79.2371 339.824 80.7093Z" fill="url(#paint17_linear_1028_4032)"/>
<path d="M244.564 139.25C244.476 139.25 244.432 139.116 244.432 138.932C244.433 138.434 244.488 137.938 244.595 137.452C244.719 136.916 244.878 136.39 245.072 135.876L245.324 135.241C245.531 134.732 245.682 134.338 245.776 134.046C245.861 133.812 245.91 133.565 245.921 133.315C245.921 132.659 245.676 132.475 245.186 132.763C245.032 132.854 244.896 132.972 244.783 133.112C244.662 133.256 244.543 133.415 244.425 133.589C244.369 133.696 244.295 133.793 244.206 133.875C244.111 133.932 244.005 133.906 243.898 133.786C243.779 133.65 243.684 133.495 243.615 133.328C243.548 133.178 243.51 133.016 243.502 132.852C243.512 132.521 243.615 132.199 243.797 131.924C244.006 131.587 244.255 131.278 244.538 131.003C244.802 130.74 245.095 130.509 245.412 130.316C246.103 129.916 246.668 129.853 247.064 130.132C247.46 130.412 247.692 131.022 247.692 131.956C247.694 132.383 247.652 132.808 247.566 133.226C247.489 133.584 247.381 133.935 247.246 134.275C247.127 134.58 246.957 134.961 246.737 135.412C246.513 135.862 246.313 136.325 246.14 136.797C245.993 137.207 245.898 137.634 245.858 138.068C245.836 138.236 245.776 138.398 245.682 138.538C245.565 138.681 245.422 138.8 245.261 138.888L245.003 139.04C244.948 139.103 244.88 139.154 244.804 139.19C244.729 139.226 244.647 139.246 244.564 139.25ZM244.287 142.89V141.289C244.303 141.082 244.374 140.883 244.494 140.714C244.613 140.545 244.777 140.412 244.966 140.33L245.324 140.12C245.77 139.86 245.996 139.917 245.996 140.292V141.899C245.981 142.106 245.91 142.305 245.792 142.474C245.673 142.643 245.512 142.776 245.324 142.859L244.966 143.068C244.513 143.316 244.287 143.265 244.287 142.89Z" fill="white"/>
<path d="M251.544 134.367C251.456 134.367 251.412 134.234 251.412 134.049C251.414 133.551 251.468 133.055 251.575 132.569C251.699 132.033 251.859 131.507 252.053 130.993L252.304 130.358C252.512 129.849 252.662 129.456 252.757 129.163C252.842 128.929 252.89 128.682 252.901 128.433C252.901 127.776 252.656 127.592 252.166 127.88C252.012 127.971 251.876 128.089 251.764 128.229C251.642 128.373 251.523 128.532 251.406 128.706C251.35 128.813 251.275 128.91 251.186 128.992C251.092 129.049 250.985 129.024 250.878 128.903C250.76 128.767 250.664 128.612 250.596 128.445C250.528 128.295 250.49 128.133 250.482 127.969C250.493 127.638 250.595 127.316 250.778 127.041C250.986 126.704 251.235 126.395 251.519 126.12C251.782 125.857 252.075 125.626 252.392 125.434C253.083 125.033 253.649 124.97 254.044 125.249C254.44 125.529 254.673 126.139 254.673 127.073C254.674 127.5 254.632 127.926 254.547 128.344C254.469 128.702 254.362 129.052 254.226 129.392C254.107 129.697 253.938 130.078 253.718 130.529C253.493 130.979 253.294 131.442 253.121 131.914C252.974 132.324 252.879 132.751 252.838 133.185C252.817 133.354 252.756 133.515 252.662 133.655C252.545 133.798 252.403 133.917 252.241 134.005L251.984 134.157C251.928 134.22 251.86 134.271 251.785 134.307C251.709 134.343 251.627 134.363 251.544 134.367ZM251.268 138.008V136.407C251.283 136.199 251.355 136 251.474 135.831C251.594 135.662 251.757 135.529 251.946 135.447L252.304 135.237C252.75 134.977 252.976 135.034 252.976 135.409V137.016C252.961 137.223 252.891 137.422 252.772 137.591C252.654 137.76 252.492 137.893 252.304 137.976L251.946 138.186C251.494 138.433 251.268 138.383 251.268 138.008Z" fill="white"/>
<path d="M258.53 130.179C258.442 130.179 258.398 130.046 258.398 129.862C258.4 129.364 258.455 128.867 258.562 128.381C258.686 127.846 258.845 127.319 259.039 126.806L259.291 126.17C259.498 125.662 259.649 125.268 259.743 124.976C259.828 124.741 259.877 124.495 259.887 124.245C259.887 123.589 259.642 123.404 259.152 123.692C258.999 123.784 258.863 123.902 258.75 124.042C258.629 124.186 258.509 124.345 258.392 124.518C258.336 124.626 258.261 124.723 258.172 124.804C258.078 124.861 257.971 124.836 257.865 124.715C257.746 124.579 257.651 124.425 257.582 124.258C257.515 124.108 257.476 123.946 257.469 123.781C257.479 123.45 257.582 123.129 257.764 122.854C257.973 122.517 258.222 122.207 258.505 121.932C258.768 121.669 259.061 121.439 259.378 121.246C260.069 120.846 260.635 120.782 261.031 121.062C261.426 121.341 261.659 121.951 261.659 122.885C261.661 123.312 261.619 123.738 261.533 124.156C261.455 124.514 261.348 124.865 261.213 125.205C261.093 125.509 260.924 125.891 260.704 126.342C260.479 126.792 260.28 127.254 260.107 127.727C259.96 128.137 259.865 128.564 259.824 128.998C259.803 129.166 259.743 129.327 259.649 129.468C259.532 129.611 259.389 129.729 259.228 129.817L258.97 129.97C258.914 130.033 258.847 130.083 258.771 130.119C258.696 130.155 258.614 130.176 258.53 130.179ZM258.254 133.82V132.219C258.27 132.012 258.341 131.813 258.461 131.643C258.58 131.474 258.743 131.342 258.932 131.26L259.291 131.05C259.737 130.789 259.963 130.847 259.963 131.221V132.829C259.948 133.036 259.877 133.234 259.759 133.403C259.64 133.572 259.478 133.706 259.291 133.788L258.932 133.998C258.48 134.246 258.254 134.195 258.254 133.82Z" fill="white"/>
</g>
<defs>
<linearGradient id="paint0_linear_1028_4032" x1="193.738" y1="17.3364" x2="193.738" y2="111.549" gradientUnits="userSpaceOnUse">
<stop stop-color="#208BF9"/>
<stop offset="1" stop-color="#1963F2"/>
</linearGradient>
<linearGradient id="paint1_linear_1028_4032" x1="193.414" y1="-0.320313" x2="193.414" y2="115.376" gradientUnits="userSpaceOnUse">
<stop stop-color="#27ADFF"/>
<stop offset="1" stop-color="#055FE7"/>
</linearGradient>
<linearGradient id="paint2_linear_1028_4032" x1="95.5163" y1="112.352" x2="95.5163" y2="140.603" gradientUnits="userSpaceOnUse">
<stop stop-color="#055FE7"/>
<stop offset="1" stop-color="#27ADFF"/>
</linearGradient>
<linearGradient id="paint3_linear_1028_4032" x1="280.781" y1="26.0859" x2="280.781" y2="31.8512" gradientUnits="userSpaceOnUse">
<stop stop-color="#208BF9"/>
<stop offset="1" stop-color="#0B53DF"/>
</linearGradient>
<linearGradient id="paint4_linear_1028_4032" x1="104.35" y1="128.102" x2="104.35" y2="132.817" gradientUnits="userSpaceOnUse">
<stop stop-color="#208BF9"/>
<stop offset="1" stop-color="#0B53DF"/>
</linearGradient>
<linearGradient id="paint5_linear_1028_4032" x1="110.001" y1="124.609" x2="110.001" y2="129.338" gradientUnits="userSpaceOnUse">
<stop stop-color="#208BF9"/>
<stop offset="1" stop-color="#0B53DF"/>
</linearGradient>
<linearGradient id="paint6_linear_1028_4032" x1="115.983" y1="119.617" x2="115.983" y2="126.454" gradientUnits="userSpaceOnUse">
<stop stop-color="#208BF9"/>
<stop offset="1" stop-color="#0B53DF"/>
</linearGradient>
<linearGradient id="paint7_linear_1028_4032" x1="147.755" y1="92.5156" x2="147.755" y2="98.7286" gradientUnits="userSpaceOnUse">
<stop stop-color="#208BF9"/>
<stop offset="1" stop-color="#0B53DF"/>
</linearGradient>
<linearGradient id="paint8_linear_1028_4032" x1="288.351" y1="19.4609" x2="288.351" y2="23.5616" gradientUnits="userSpaceOnUse">
<stop stop-color="#208BF9"/>
<stop offset="1" stop-color="#0B53DF"/>
</linearGradient>
<linearGradient id="paint9_linear_1028_4032" x1="288.351" y1="22.2969" x2="288.351" y2="26.4107" gradientUnits="userSpaceOnUse">
<stop stop-color="#208BF9"/>
<stop offset="1" stop-color="#0B53DF"/>
</linearGradient>
<linearGradient id="paint10_linear_1028_4032" x1="288.351" y1="25.2109" x2="288.351" y2="29.3116" gradientUnits="userSpaceOnUse">
<stop stop-color="#208BF9"/>
<stop offset="1" stop-color="#0B53DF"/>
</linearGradient>
<linearGradient id="paint11_linear_1028_4032" x1="95.999" y1="137.549" x2="95.999" y2="286.666" gradientUnits="userSpaceOnUse">
<stop stop-color="#1584F2"/>
<stop offset="1" stop-color="#055FE7"/>
</linearGradient>
<linearGradient id="paint12_linear_1028_4032" x1="223.756" y1="169.749" x2="223.756" y2="259.005" gradientUnits="userSpaceOnUse">
<stop stop-color="#208BF9"/>
<stop offset="1" stop-color="#1963F2"/>
</linearGradient>
<linearGradient id="paint13_linear_1028_4032" x1="177.156" y1="270.563" x2="177.156" y2="279.471" gradientUnits="userSpaceOnUse">
<stop stop-color="#208BF9"/>
<stop offset="1" stop-color="#1963F2"/>
</linearGradient>
<linearGradient id="paint14_linear_1028_4032" x1="294.741" y1="48.1446" x2="294.741" y2="135.718" gradientUnits="userSpaceOnUse">
<stop stop-color="#208BF9"/>
<stop offset="1" stop-color="#1963F2"/>
</linearGradient>
<linearGradient id="paint15_linear_1028_4032" x1="344.29" y1="90.9086" x2="344.29" y2="96.9549" gradientUnits="userSpaceOnUse">
<stop stop-color="#208BF9"/>
<stop offset="1" stop-color="#1963F2"/>
</linearGradient>
<linearGradient id="paint16_linear_1028_4032" x1="297.851" y1="72.3047" x2="297.851" y2="99.1714" gradientUnits="userSpaceOnUse">
<stop stop-color="#27ADFF"/>
<stop offset="1" stop-color="#055FE7"/>
</linearGradient>
<linearGradient id="paint17_linear_1028_4032" x1="334.531" y1="75.0078" x2="334.531" y2="92.3068" gradientUnits="userSpaceOnUse">
<stop stop-color="#27ADFF"/>
<stop offset="1" stop-color="#055FE7"/>
</linearGradient>
<clipPath id="clip0_1028_4032">
<rect width="397" height="315" fill="white"/>
</clipPath>
</defs>
</svg>
