<svg width="35" height="38" viewBox="0 0 35 38" fill="none" xmlns="http://www.w3.org/2000/svg">
<path d="M0 6C0 4.89543 0.870558 4 1.94444 4H33.0556C34.1294 4 35 4.89543 35 6V32C35 35.3137 32.3883 38 29.1667 38H5.83333C2.61167 38 0 35.3137 0 32V6Z" fill="white"/>
<path d="M5.83333 2C5.83333 0.895431 6.70389 0 7.77778 0C8.85167 0 9.72222 0.895431 9.72222 2V6C9.72222 7.10457 8.85167 8 7.77778 8C6.70389 8 5.83333 7.10457 5.83333 6V2Z" fill="#75B857"/>
<path d="M15.5556 2C15.5556 0.895431 16.4261 0 17.5 0C18.5739 0 19.4444 0.895431 19.4444 2V6C19.4444 7.10457 18.5739 8 17.5 8C16.4261 8 15.5556 7.10457 15.5556 6V2Z" fill="#75B857"/>
<path d="M25.2778 2C25.2778 0.895431 26.1483 0 27.2222 0C28.2961 0 29.1667 0.895431 29.1667 2V6C29.1667 7.10457 28.2961 8 27.2222 8C26.1483 8 25.2778 7.10457 25.2778 6V2Z" fill="#75B857"/>
<path d="M14.183 25.4282C14.3637 25.6156 14.5788 25.7644 14.8157 25.866C15.0527 25.9675 15.3068 26.0198 15.5635 26.0198C15.8202 26.0198 16.0744 25.9675 16.3113 25.866C16.5482 25.7644 16.7633 25.6156 16.9441 25.4282L24.7218 17.4282C24.9031 17.2417 25.047 17.0203 25.1451 16.7767C25.2432 16.533 25.2937 16.2719 25.2937 16.0082C25.2937 15.7445 25.2432 15.4833 25.1451 15.2397C25.047 14.996 24.9031 14.7747 24.7218 14.5882C24.5406 14.4017 24.3253 14.2538 24.0884 14.1529C23.8516 14.0519 23.5977 14 23.3413 14C23.0849 14 22.831 14.0519 22.5941 14.1529C22.3573 14.2538 22.142 14.4017 21.9607 14.5882L15.5635 21.1882L13.0552 18.5882C12.689 18.2116 12.1924 18 11.6746 18C11.1568 18 10.6602 18.2116 10.2941 18.5882C9.92792 18.9648 9.72222 19.4756 9.72222 20.0082C9.72222 20.5408 9.92792 21.0516 10.2941 21.4282L14.183 25.4282Z" fill="#75B857"/>
</svg>
