<svg width="1151" height="9" viewBox="0 0 1151 9" fill="none" xmlns="http://www.w3.org/2000/svg">
<line x1="592.5" y1="4.5" x2="1150.5" y2="4.50005" stroke="#1F87F8" stroke-linecap="round" stroke-dasharray="4 4"/>
<line x1="0.5" y1="4.5" x2="559.5" y2="4.5" stroke="#1F87F8" stroke-linecap="round" stroke-dasharray="4 4"/>
<path d="M575.646 4.85355C575.842 5.04882 576.158 5.04882 576.354 4.85355L579.536 1.67157C579.731 1.47631 579.731 1.15973 579.536 0.964466C579.34 0.769204 579.024 0.769204 578.828 0.964466L576 3.79289L573.172 0.964466C572.976 0.769204 572.66 0.769204 572.464 0.964466C572.269 1.15973 572.269 1.47631 572.464 1.67157L575.646 4.85355ZM575.5 4L575.5 4.5L576.5 4.5L576.5 4L575.5 4Z" fill="#1F87F8"/>
<path d="M575.646 8.85355C575.842 9.04882 576.158 9.04882 576.354 8.85355L579.536 5.67157C579.731 5.47631 579.731 5.15973 579.536 4.96447C579.34 4.7692 579.024 4.7692 578.828 4.96447L576 7.79289L573.172 4.96447C572.976 4.7692 572.66 4.7692 572.464 4.96447C572.269 5.15973 572.269 5.47631 572.464 5.67157L575.646 8.85355ZM575.5 8L575.5 8.5L576.5 8.5L576.5 8L575.5 8Z" fill="#1F87F8"/>
</svg>
