<svg width="48" height="48" viewBox="0 0 48 48" fill="none" xmlns="http://www.w3.org/2000/svg">
<path d="M8.05908 18.9481C8.05908 23.2058 9.75044 27.2891 12.7611 30.2997C15.7717 33.3104 19.855 35.0017 24.1127 35.0017C28.3704 35.0017 32.4537 33.3104 35.4643 30.2997C38.4749 27.2891 40.1663 23.2058 40.1663 18.9481C40.1663 14.6905 38.4749 10.6072 35.4643 7.59652C32.4537 4.58589 28.3704 2.89453 24.1127 2.89453C19.855 2.89453 15.7717 4.58589 12.7611 7.59652C9.75044 10.6072 8.05908 14.6905 8.05908 18.9481Z" fill="white"/>
<path d="M25.2982 10.404L27.0214 13.896C27.2134 14.2872 27.5878 14.5584 28.0174 14.6208L31.8718 15.18C32.9566 15.3384 33.391 16.6728 32.6062 17.4384L29.8174 20.1552C29.6639 20.3051 29.5491 20.49 29.4826 20.6939C29.4162 20.8979 29.4001 21.1149 29.4358 21.3264L30.0934 25.164C30.2782 26.2464 29.143 27.0696 28.1734 26.5584L24.727 24.7464C24.537 24.6471 24.3258 24.5952 24.1114 24.5952C23.897 24.5952 23.6858 24.6471 23.4958 24.7464L20.0494 26.5584C19.0774 27.0696 17.9446 26.244 18.1294 25.164L18.787 21.3264C18.8614 20.8968 18.7174 20.46 18.4054 20.1552L15.619 17.4384C14.8342 16.6728 15.2662 15.3384 16.3534 15.18L20.2078 14.6208C20.6398 14.5584 21.0118 14.2872 21.2038 13.896L22.927 10.404C23.4118 9.42002 24.8134 9.42002 25.2982 10.404ZM4.01499 37.3128L7.94139 30.5232C8.23659 30.0144 8.93979 29.94 9.33339 30.3744C10.8166 32.0112 14.3422 35.4024 19.1614 36.8232C19.6894 36.9792 19.9342 37.5936 19.6702 38.0784C18.3142 40.584 17.0158 42.9456 16.2958 44.2512C16.0102 44.7696 15.3022 44.8536 14.899 44.4192L10.7854 39.9624C10.6606 39.8256 10.495 39.7344 10.3126 39.6984L4.59819 38.5968C4.01499 38.484 3.71499 37.8288 4.01499 37.3128ZM44.2006 37.3128L40.2742 30.5232C39.979 30.0144 39.2758 29.94 38.8822 30.3744C37.399 32.0112 33.8734 35.4024 29.0542 36.8232C28.5262 36.9792 28.2814 37.5936 28.5454 38.0784C29.9014 40.584 31.1998 42.9456 31.9198 44.2512C32.2054 44.7696 32.9134 44.8536 33.3166 44.4192L37.4302 39.9624C37.555 39.8256 37.7206 39.7344 37.903 39.6984L43.6174 38.5968C44.2006 38.484 44.5006 37.8288 44.2006 37.3128Z" fill="#036BCF"/>
</svg>
