<svg width="500" height="349" viewBox="0 0 500 349" fill="none" xmlns="http://www.w3.org/2000/svg">
<g clip-path="url(#clip0_958_4119)">
<path d="M378.839 242.746C449.72 267.743 449.72 308.262 378.839 333.254C307.957 358.246 193.032 358.251 122.158 333.254C51.2843 308.257 51.2768 267.738 122.158 242.746C193.04 217.754 307.965 217.749 378.839 242.746Z" fill="#1F87F8" fill-opacity="0.05"/>
<path d="M164.731 40.3221C164.739 40.221 164.756 40.1207 164.782 40.0226C164.776 40.0122 164.773 40.0004 164.773 39.9884C164.773 39.9764 164.776 39.9646 164.782 39.9542C164.793 39.8538 164.819 39.7556 164.859 39.6633C164.898 39.5099 164.965 39.3649 165.056 39.2355C165.079 39.1695 165.113 39.1085 165.159 39.0558C165.189 39.0121 165.223 38.9719 165.262 38.936C165.324 38.8564 165.396 38.7846 165.476 38.7221C165.565 38.6597 165.659 38.6053 165.758 38.5595C166.127 38.4222 166.524 38.3762 166.914 38.4254C167.305 38.4745 167.678 38.6174 168.001 38.8419L360.164 149.408C361.996 150.469 363.494 153.053 363.494 156.758V317.662C363.495 318.072 363.384 318.474 363.173 318.825C362.961 319.177 362.658 319.464 362.296 319.655L362.15 319.749L361.979 319.852C361.887 319.896 361.789 319.928 361.688 319.946C361.551 319.983 361.41 320.003 361.269 320.006C360.879 320.001 360.497 319.892 360.164 319.69L360.07 319.638L356.894 317.799L168.044 208.995C167.072 208.365 166.263 207.514 165.683 206.511C165.103 205.509 164.768 204.384 164.705 203.228V40.7414C164.705 40.5959 164.722 40.4334 164.731 40.3221Z" fill="white"/>
<path d="M166.563 39.3248C166.432 39.3242 166.304 39.3535 166.186 39.4103H166.126H166.075L165.989 39.5216L165.912 39.6328C165.884 39.6742 165.863 39.7207 165.852 39.7697L165.767 40.0349V40.0863C165.767 40.0863 165.767 40.1547 165.767 40.1804C165.767 40.2061 165.767 40.4029 165.767 40.5141V203.257C165.83 204.244 166.12 205.203 166.614 206.059C167.109 206.915 167.794 207.646 168.617 208.194L357.365 316.955L360.464 318.735L360.549 318.778L360.635 318.829C360.812 318.937 361.011 319.001 361.217 319.017H361.269H361.483H361.551L361.637 318.966L361.722 318.915C361.933 318.804 362.109 318.638 362.231 318.435C362.354 318.231 362.417 317.997 362.416 317.76V156.805C362.416 153.211 360.935 151.08 359.557 150.276L167.573 39.6499C167.269 39.4578 166.922 39.3459 166.563 39.3248ZM166.563 38.375C167.086 38.3943 167.596 38.5475 168.044 38.8199L360.164 149.412C361.996 150.473 363.494 153.057 363.494 156.762V317.665C363.495 318.075 363.384 318.478 363.173 318.829C362.961 319.18 362.658 319.467 362.296 319.659L362.15 319.753L361.979 319.856C361.887 319.9 361.789 319.932 361.688 319.95C361.551 319.987 361.41 320.007 361.269 320.01H361.217C360.845 319.996 360.482 319.887 360.164 319.693L360.07 319.642L356.894 317.802L168.044 208.999C167.072 208.368 166.263 207.517 165.683 206.515C165.103 205.513 164.768 204.388 164.705 203.232V40.7451C164.705 40.5997 164.705 40.4628 164.705 40.3259C164.713 40.2247 164.731 40.1245 164.757 40.0264C164.751 40.016 164.747 40.0042 164.747 39.9922C164.747 39.9801 164.751 39.9683 164.757 39.9579C164.767 39.8575 164.793 39.7594 164.834 39.667C164.873 39.5136 164.939 39.3686 165.031 39.2392C165.053 39.1732 165.088 39.1122 165.133 39.0595C165.163 39.0158 165.197 38.9756 165.236 38.9397C165.298 38.8601 165.37 38.7883 165.45 38.7258C165.539 38.6635 165.634 38.6091 165.732 38.5632C165.971 38.4513 166.231 38.3956 166.494 38.4007L166.563 38.375Z" fill="#1A7AF3"/>
<path d="M165.801 38.5348C166.17 38.3975 166.567 38.3515 166.957 38.4006C167.348 38.4498 167.721 38.5927 168.044 38.8171L360.165 149.409C361.133 150.042 361.938 150.894 362.517 151.896C363.095 152.898 363.43 154.021 363.494 155.176V161.628L370 157.846V151.463C369.941 150.305 369.61 149.178 369.033 148.173C368.455 147.168 367.649 146.313 366.679 145.678L174.55 35.1208C174.205 34.8671 173.797 34.7143 173.371 34.6795C172.944 34.6447 172.517 34.7294 172.136 34.924C171.528 35.3004 166.512 38.1668 165.801 38.5348Z" fill="url(#paint0_linear_958_4119)"/>
<path d="M164.714 40.7142C164.714 38.6178 166.212 37.7622 168.044 38.8232L360.164 149.406C361.134 150.038 361.941 150.89 362.519 151.892C363.098 152.894 363.432 154.018 363.494 155.174V161.634L164.714 47.217V40.7142Z" fill="url(#paint1_linear_958_4119)"/>
<path d="M181.591 50.0539C182.011 50.3683 182.353 50.7749 182.59 51.2422C182.827 51.7095 182.954 52.2251 182.961 52.7492C182.961 53.7931 182.328 54.2722 181.549 53.8187C181.121 53.5088 180.771 53.1042 180.526 52.6366C180.281 52.169 180.148 51.6512 180.136 51.1235C180.179 50.0796 180.812 49.6004 181.591 50.0539Z" fill="#FAFAFA"/>
<path d="M176.509 47.0911C176.938 47.4019 177.289 47.8078 177.534 48.277C177.779 48.7462 177.912 49.2657 177.922 49.7949C177.922 50.8302 177.288 51.3094 176.509 50.8559C176.082 50.5459 175.732 50.1413 175.487 49.6738C175.242 49.2062 175.109 48.6883 175.097 48.1606C175.097 47.1338 175.731 46.6547 176.509 47.0911Z" fill="#FAFAFA"/>
<path d="M171.424 44.1662C171.852 44.4771 172.203 44.883 172.448 45.3522C172.693 45.8213 172.826 46.3409 172.836 46.87C172.836 47.9054 172.202 48.3845 171.424 47.9396C170.993 47.6297 170.641 47.2241 170.395 46.7549C170.148 46.2857 170.014 45.7657 170.003 45.2358C170.003 44.2004 170.636 43.7213 171.424 44.1662Z" fill="#FAFAFA"/>
<path d="M362.296 319.646L362.467 319.552L368.228 316.223C368.689 315.954 369.084 315.582 369.38 315.137C369.677 314.693 369.868 314.186 369.94 313.656C369.952 313.494 369.952 313.331 369.94 313.169V157.844L363.434 161.634V317.661C363.44 318.039 363.348 318.412 363.166 318.743C362.985 319.075 362.72 319.353 362.398 319.552C362.363 319.58 362.326 319.606 362.287 319.629L362.296 319.646Z" fill="url(#paint2_linear_958_4119)"/>
<path d="M226.647 143.557C226.647 137.467 222.384 130.047 217.081 126.987C214.25 125.355 211.705 125.294 209.938 126.514L207.85 127.77C209.579 126.857 211.929 127.032 214.515 128.525C219.818 131.589 224.101 139.005 224.081 145.095C224.081 148.11 223.016 150.231 221.307 151.238L223.673 149.802C223.847 149.714 224.015 149.613 224.175 149.501C225.713 148.416 226.639 146.376 226.647 143.557Z" fill="url(#paint3_linear_958_4119)"/>
<path d="M224.087 145.095C224.108 139.004 219.825 131.588 214.522 128.525C211.935 127.032 209.586 126.856 207.856 127.77C207.694 127.854 207.537 127.948 207.387 128.052C205.845 129.12 204.903 131.168 204.895 134.007C204.895 140.098 209.161 147.522 214.464 150.581C217.145 152.131 219.568 152.266 221.318 151.234C223.068 150.202 224.079 148.109 224.087 145.095Z" fill="url(#paint4_linear_958_4119)"/>
<path d="M215.806 149.157C210.797 146.264 206.734 139.228 206.75 133.472C206.75 131.281 207.374 129.58 208.492 128.609C208.439 128.634 208.386 128.65 208.333 128.679C208.212 128.742 208.095 128.813 207.982 128.891L207.929 128.923C206.636 129.845 205.922 131.653 205.914 134.018C205.914 139.774 209.961 146.807 214.974 149.703C216.116 150.414 217.421 150.818 218.764 150.878C219.478 150.892 220.183 150.713 220.803 150.36C220.999 150.241 221.183 150.104 221.354 149.952C220.808 150.21 220.212 150.341 219.608 150.336C218.26 150.278 216.95 149.872 215.806 149.157Z" fill="#ECF4FE"/>
<path d="M214.005 129.413C212.863 128.701 211.556 128.295 210.212 128.234C209.616 128.23 209.027 128.357 208.486 128.606C207.368 129.577 206.748 131.278 206.744 133.468C206.744 139.224 210.791 146.261 215.8 149.153C216.941 149.866 218.246 150.272 219.59 150.332C220.193 150.337 220.79 150.206 221.336 149.948C222.441 148.978 223.049 147.285 223.057 145.094C223.073 139.338 219.01 132.306 214.005 129.413Z" fill="#ECF4FE"/>
<path d="M278.401 240.252C278.417 234.157 274.134 226.745 268.831 223.682C266 222.05 263.45 221.989 261.688 223.213L259.6 224.469C261.329 223.555 263.679 223.731 266.265 225.224C271.568 228.287 275.847 235.703 275.831 241.794C275.831 244.808 274.762 246.93 273.053 247.937L275.419 246.505C275.592 246.413 275.759 246.311 275.921 246.199C277.463 245.11 278.393 243.071 278.401 240.252Z" fill="url(#paint5_linear_958_4119)"/>
<path d="M275.837 241.79C275.837 235.7 271.575 228.284 266.272 225.22C263.685 223.727 261.336 223.552 259.606 224.465C259.442 224.549 259.284 224.643 259.133 224.747C257.595 225.816 256.653 227.863 256.645 230.703C256.645 236.793 260.911 244.217 266.214 247.277C268.895 248.827 271.318 248.961 273.064 247.929C274.809 246.897 275.829 244.805 275.837 241.79Z" fill="url(#paint6_linear_958_4119)"/>
<path d="M267.556 245.844C262.547 242.952 258.484 235.915 258.5 230.159C258.5 227.969 259.124 226.268 260.242 225.297L260.083 225.366C259.961 225.431 259.843 225.501 259.728 225.578L259.679 225.611C258.386 226.533 257.672 228.34 257.664 230.706C257.664 236.462 261.711 243.499 266.72 246.391C267.862 247.1 269.167 247.504 270.51 247.566C271.224 247.58 271.928 247.401 272.549 247.048C272.745 246.929 272.929 246.792 273.1 246.64C272.554 246.897 271.957 247.028 271.354 247.023C270.008 246.965 268.699 246.559 267.556 245.844Z" fill="#ECF4FE"/>
<path d="M265.759 226.109C264.619 225.396 263.313 224.989 261.969 224.93C261.374 224.925 260.785 225.052 260.244 225.301C259.126 226.272 258.506 227.973 258.502 230.164C258.502 235.919 262.549 242.956 267.558 245.848C268.698 246.561 270.004 246.968 271.348 247.027C271.951 247.032 272.548 246.901 273.093 246.644C274.199 245.673 274.807 243.98 274.815 241.789C274.831 236.034 270.768 229.001 265.759 226.109Z" fill="#ECF4FE"/>
<path d="M307 224C307 218.64 303.247 212.109 298.581 209.417C296.088 207.977 293.845 207.924 292.295 209.009L290.459 210.09C291.981 209.274 294.049 209.441 296.325 210.755C300.992 213.447 304.761 219.978 304.749 225.338C304.749 227.989 303.806 229.858 302.301 230.747L304.382 229.487C304.534 229.408 304.682 229.32 304.822 229.221H304.842C306.176 228.275 306.992 226.48 307 224Z" fill="url(#paint7_linear_958_4119)"/>
<path d="M304.734 225.351C304.734 219.991 300.977 213.46 296.31 210.767C294.034 209.454 291.966 209.295 290.444 210.103C290.304 210.176 290.168 210.258 290.036 210.347C288.682 211.29 287.854 213.093 287.846 215.589C287.846 220.953 291.603 227.488 296.269 230.181C298.627 231.543 300.757 231.661 302.299 230.756C303.84 229.85 304.734 228.002 304.734 225.351Z" fill="url(#paint8_linear_958_4119)"/>
<path d="M297.445 228.923C293.036 226.378 289.462 220.186 289.475 215.119C289.475 213.19 290.025 211.693 291.008 210.836C290.963 210.856 290.914 210.873 290.87 210.897C290.763 210.953 290.659 211.016 290.56 211.085L290.515 211.113C289.377 211.929 288.748 213.516 288.74 215.601C288.74 220.667 292.301 226.859 296.715 229.409C297.718 230.036 298.866 230.393 300.048 230.445C300.674 230.457 301.292 230.297 301.835 229.984C302.007 229.881 302.17 229.763 302.32 229.629C301.839 229.854 301.313 229.968 300.782 229.964C299.599 229.91 298.45 229.551 297.445 228.923Z" fill="#ECF4FE"/>
<path d="M295.875 211.548C294.871 210.919 293.721 210.56 292.538 210.508C292.013 210.503 291.493 210.615 291.016 210.834C290.033 211.691 289.487 213.188 289.482 215.118C289.482 220.184 293.044 226.376 297.453 228.922C298.458 229.548 299.607 229.905 300.79 229.958C301.321 229.962 301.847 229.848 302.328 229.623C303.303 228.767 303.837 227.278 303.841 225.348C303.858 220.282 300.28 214.094 295.875 211.548Z" fill="#ECF4FE"/>
<path d="M263.944 148.361C263.944 143.642 260.64 137.898 256.536 135.528C254.342 134.263 252.371 134.214 251.005 135.161L249.373 136.132C250.715 135.426 252.534 135.565 254.537 136.719C258.641 139.089 261.958 144.833 261.945 149.552C261.945 151.886 261.129 153.53 259.796 154.309L261.627 153.199C261.762 153.126 261.892 153.048 262.035 152.963C263.226 152.122 263.944 150.527 263.944 148.361Z" fill="url(#paint9_linear_958_4119)"/>
<path d="M261.966 149.554C261.966 144.835 258.662 139.091 254.558 136.721C252.556 135.567 250.736 135.428 249.394 136.134C249.269 136.2 249.148 136.273 249.031 136.354C247.836 137.17 247.106 138.765 247.102 140.964C247.102 145.683 250.406 151.431 254.514 153.805C256.59 155 258.466 155.106 259.817 154.307C261.167 153.507 261.958 151.888 261.966 149.554Z" fill="url(#paint10_linear_958_4119)"/>
<path d="M255.55 152.694C251.666 150.455 248.521 145.005 248.533 140.55C248.533 138.854 249.019 137.532 249.883 136.781C249.843 136.781 249.802 136.814 249.761 136.838C249.667 136.887 249.576 136.94 249.488 136.997L249.447 137.026C248.448 137.74 247.893 139.139 247.889 140.971C247.889 145.429 251.022 150.879 254.901 153.119C255.786 153.669 256.797 153.983 257.838 154.028C258.389 154.036 258.931 153.895 259.409 153.62C259.554 153.529 259.691 153.424 259.816 153.306C259.394 153.505 258.933 153.605 258.466 153.6C257.432 153.554 256.428 153.242 255.55 152.694Z" fill="#ECF4FE"/>
<path d="M254.151 137.414C253.268 136.861 252.258 136.546 251.218 136.5C250.756 136.495 250.299 136.593 249.88 136.786C249.015 137.536 248.533 138.858 248.529 140.555C248.529 145.01 251.662 150.459 255.546 152.699C256.428 153.252 257.438 153.567 258.479 153.613C258.945 153.618 259.407 153.517 259.829 153.319C260.69 152.564 261.159 151.255 261.163 149.554C261.179 145.099 258.034 139.653 254.151 137.414Z" fill="#ECF4FE"/>
<path d="M302.835 190.339C302.835 185.619 299.531 179.876 295.423 177.506C293.232 176.237 291.258 176.192 289.891 177.139L288.26 178.11C289.598 177.404 291.417 177.538 293.42 178.697C297.528 181.067 300.844 186.811 300.832 191.53C300.832 193.864 300.016 195.508 298.678 196.287L300.51 195.177C300.644 195.108 300.774 195.031 300.897 194.945C302.109 194.1 302.827 192.542 302.835 190.339Z" fill="url(#paint11_linear_958_4119)"/>
<path d="M300.843 191.532C300.843 186.813 297.539 181.069 293.431 178.699C291.428 177.54 289.609 177.406 288.271 178.111C288.144 178.177 288.022 178.251 287.904 178.332C286.713 179.148 285.983 180.747 285.979 182.945C285.979 187.665 289.283 193.413 293.391 195.783C295.463 196.982 297.343 197.088 298.694 196.289C300.044 195.489 300.835 193.866 300.843 191.532Z" fill="url(#paint12_linear_958_4119)"/>
<path d="M294.436 194.679C290.557 192.439 287.412 186.989 287.424 182.531C287.424 180.834 287.909 179.516 288.774 178.766L288.648 178.819C288.554 178.868 288.462 178.922 288.374 178.982L288.338 179.01C287.334 179.724 286.784 181.123 286.775 182.955C286.775 187.414 289.912 192.859 293.792 195.103C294.675 195.654 295.685 195.967 296.725 196.013C297.277 196.022 297.821 195.881 298.299 195.605C298.444 195.513 298.581 195.407 298.707 195.291C298.285 195.49 297.824 195.592 297.357 195.589C296.322 195.54 295.316 195.226 294.436 194.679Z" fill="#ECF4FE"/>
<path d="M293.037 179.386C292.153 178.835 291.141 178.522 290.1 178.477C289.64 178.472 289.184 178.569 288.766 178.762C287.901 179.513 287.42 180.83 287.416 182.527C287.416 186.986 290.549 192.436 294.428 194.676C295.313 195.227 296.324 195.542 297.365 195.589C297.832 195.593 298.294 195.491 298.716 195.291C299.572 194.541 300.045 193.227 300.049 191.53C300.062 187.076 296.917 181.626 293.037 179.386Z" fill="#ECF4FE"/>
<path d="M265.002 185.891C265.002 180.706 261.373 174.397 256.861 171.794C254.454 170.4 252.286 170.351 250.785 171.391L248.992 172.457C250.462 171.682 252.46 171.83 254.661 173.102C259.173 175.706 262.816 182.015 262.802 187.199C262.802 189.762 261.906 191.568 260.436 192.424L262.448 191.205C262.596 191.13 262.738 191.044 262.874 190.95C264.205 190.022 264.993 188.31 265.002 185.891Z" fill="url(#paint13_linear_958_4119)"/>
<path d="M262.815 187.201C262.815 182.016 259.185 175.707 254.673 173.104C252.473 171.831 250.474 171.683 249.005 172.459C248.865 172.531 248.73 172.611 248.601 172.701C247.293 173.597 246.491 175.353 246.486 177.768C246.486 182.953 250.116 189.266 254.628 191.87C256.904 193.187 258.97 193.304 260.453 192.425C261.936 191.547 262.806 189.764 262.815 187.201Z" fill="url(#paint14_linear_958_4119)"/>
<path d="M255.776 190.652C251.515 188.192 248.06 182.205 248.074 177.308C248.074 175.444 248.607 173.996 249.557 173.172L249.418 173.23C249.315 173.284 249.214 173.344 249.118 173.409L249.078 173.441C247.975 174.225 247.37 175.762 247.361 177.774C247.361 182.671 250.807 188.653 255.068 191.118C256.038 191.723 257.148 192.067 258.29 192.117C258.897 192.127 259.495 191.972 260.02 191.669C260.179 191.568 260.329 191.452 260.468 191.324C260.004 191.543 259.497 191.655 258.985 191.651C257.848 191.597 256.743 191.253 255.776 190.652Z" fill="#ECF4FE"/>
<path d="M254.239 173.859C253.268 173.253 252.156 172.909 251.013 172.86C250.507 172.854 250.007 172.961 249.548 173.173C248.598 173.998 248.069 175.445 248.064 177.309C248.064 182.207 251.506 188.193 255.767 190.653C256.738 191.259 257.85 191.605 258.993 191.657C259.506 191.661 260.013 191.549 260.476 191.33C261.417 190.505 261.937 189.062 261.942 187.198C261.955 182.305 258.5 176.319 254.239 173.859Z" fill="#ECF4FE"/>
<path d="M241.231 221.306C241.231 216.59 237.927 210.843 233.823 208.473C231.633 207.208 229.658 207.159 228.292 208.109L226.66 209.08C228.002 208.371 229.822 208.509 231.825 209.664C235.932 212.038 239.249 217.781 239.232 222.497C239.232 224.83 238.417 226.474 237.083 227.258L238.914 226.148C239.056 226.079 239.192 226 239.322 225.911C240.505 225.067 241.227 223.488 241.231 221.306Z" fill="url(#paint15_linear_958_4119)"/>
<path d="M239.248 222.499C239.248 217.783 235.948 212.04 231.84 209.666C229.837 208.511 228.017 208.372 226.675 209.082C226.549 209.145 226.428 209.218 226.312 209.298C225.121 210.114 224.391 211.713 224.383 213.912C224.383 218.628 227.691 224.379 231.795 226.75C233.871 227.949 235.748 228.051 237.098 227.255C238.448 226.46 239.244 224.832 239.248 222.499Z" fill="url(#paint16_linear_958_4119)"/>
<path d="M232.829 225.636C228.945 223.397 225.8 217.947 225.812 213.488C225.812 211.791 226.298 210.473 227.163 209.719L227.04 209.776C226.946 209.824 226.854 209.878 226.767 209.939L226.726 209.968C225.727 210.677 225.172 212.077 225.168 213.908C225.168 218.367 228.301 223.817 232.18 226.056C233.064 226.609 234.076 226.924 235.117 226.97C235.668 226.979 236.211 226.838 236.688 226.562C236.84 226.471 236.983 226.366 237.116 226.248C236.692 226.446 236.23 226.546 235.762 226.542C234.723 226.497 233.712 226.185 232.829 225.636Z" fill="#ECF4FE"/>
<path d="M231.442 210.351C230.557 209.8 229.546 209.485 228.505 209.438C228.043 209.435 227.587 209.532 227.167 209.723C226.302 210.478 225.82 211.795 225.816 213.492C225.816 217.951 228.949 223.401 232.833 225.64C233.716 226.191 234.726 226.504 235.766 226.55C236.233 226.555 236.696 226.454 237.12 226.256C237.977 225.502 238.446 224.192 238.454 222.495C238.466 218.037 235.321 212.591 231.442 210.351Z" fill="#ECF4FE"/>
<path d="M221.352 186.328C221.352 181.612 218.052 175.868 213.944 173.494C211.754 172.23 209.78 172.185 208.413 173.131L206.781 174.102C208.123 173.392 209.943 173.531 211.946 174.69C216.053 177.06 219.37 182.803 219.358 187.523C219.358 189.856 218.542 191.5 217.204 192.279L219.039 191.17C219.173 191.1 219.303 191.022 219.427 190.937C220.63 190.097 221.348 188.514 221.352 186.328Z" fill="url(#paint17_linear_958_4119)"/>
<path d="M219.371 187.526C219.371 182.806 216.067 177.063 211.959 174.693C209.956 173.534 208.137 173.396 206.795 174.105C206.672 174.171 206.55 174.244 206.431 174.322C205.24 175.137 204.51 176.737 204.502 178.935C204.502 183.655 207.81 189.403 211.914 191.773C213.99 192.972 215.871 193.074 217.217 192.279C218.563 191.483 219.363 189.86 219.371 187.526Z" fill="url(#paint18_linear_958_4119)"/>
<path d="M212.95 190.663C209.071 188.424 205.921 182.974 205.934 178.515C205.934 176.818 206.419 175.501 207.288 174.75L207.161 174.803C207.067 174.852 206.976 174.906 206.888 174.966L206.851 174.995C205.848 175.709 205.293 177.104 205.289 178.939C205.289 183.394 208.422 188.844 212.305 191.087C213.188 191.638 214.199 191.951 215.238 191.997C215.789 192.006 216.332 191.865 216.809 191.589C216.962 191.499 217.105 191.394 217.237 191.275C216.814 191.474 216.351 191.576 215.883 191.573C214.843 191.527 213.833 191.213 212.95 190.663Z" fill="url(#paint19_linear_958_4119)"/>
<path d="M211.561 175.379C210.676 174.828 209.665 174.515 208.624 174.469C208.163 174.464 207.708 174.561 207.29 174.755C206.421 175.505 205.944 176.823 205.936 178.52C205.936 182.978 209.072 188.428 212.952 190.668C213.835 191.219 214.845 191.534 215.885 191.581C216.353 191.585 216.816 191.483 217.239 191.284C218.096 190.529 218.569 189.22 218.573 187.523C218.585 183.068 215.44 177.618 211.561 175.379Z" fill="#ECF4FE"/>
<path d="M306.577 155.754C306.577 149.994 302.543 142.982 297.53 140.09C294.854 138.544 292.447 138.487 290.778 139.641L288.82 140.828C290.452 139.963 292.679 140.13 295.127 141.542C300.14 144.438 304.187 151.45 304.171 157.21C304.171 160.066 303.163 162.065 301.544 163.019L303.779 161.665C303.943 161.58 304.101 161.485 304.252 161.379C305.692 160.347 306.569 158.422 306.577 155.754Z" fill="url(#paint20_linear_958_4119)"/>
<path d="M304.153 157.2C304.153 151.44 300.122 144.428 295.109 141.532C292.662 140.12 290.442 139.953 288.803 140.818C288.65 140.898 288.501 140.987 288.358 141.083C286.902 142.095 286.012 144.032 286.004 146.717C285.967 152.481 290.047 159.497 295.048 162.393C297.581 163.853 299.874 163.984 301.526 163.009C303.178 162.034 304.145 160.048 304.153 157.2Z" fill="url(#paint21_linear_958_4119)"/>
<path d="M296.319 161.047C291.583 158.31 287.753 151.664 287.753 146.215C287.753 144.142 288.344 142.543 289.385 141.617L289.234 141.682C289.119 141.744 289.009 141.809 288.899 141.882L288.854 141.915C287.63 142.784 286.953 144.493 286.949 146.729C286.949 152.174 290.776 158.824 295.516 161.561C296.594 162.233 297.828 162.617 299.097 162.674C299.771 162.686 300.434 162.516 301.019 162.181C301.202 162.069 301.376 161.94 301.537 161.797C301.027 162.04 300.469 162.164 299.905 162.16C298.634 162.103 297.399 161.719 296.319 161.047Z" fill="#ECF4FE"/>
<path d="M294.621 142.364C293.541 141.691 292.306 141.308 291.035 141.25C290.472 141.245 289.914 141.365 289.403 141.601C288.347 142.519 287.771 144.126 287.771 146.198C287.771 151.64 291.598 158.293 296.338 161.031C297.418 161.703 298.653 162.087 299.924 162.144C300.488 162.148 301.046 162.024 301.555 161.781C302.604 160.863 303.187 159.264 303.187 157.188C303.195 151.746 299.357 145.105 294.621 142.364Z" fill="#ECF4FE"/>
<path d="M275.273 225.327C275.206 225.326 275.14 225.309 275.081 225.278C274.989 225.226 274.921 225.141 274.89 225.039C274.86 224.938 274.87 224.829 274.918 224.735L290.093 196.67C290.112 196.613 290.143 196.561 290.184 196.518C290.225 196.475 290.275 196.441 290.33 196.419C290.386 196.397 290.446 196.388 290.505 196.391C290.565 196.395 290.623 196.412 290.675 196.44C290.727 196.469 290.773 196.508 290.808 196.556C290.844 196.604 290.868 196.659 290.88 196.718C290.892 196.776 290.891 196.837 290.877 196.895C290.863 196.952 290.836 197.007 290.799 197.053L275.628 225.115C275.593 225.178 275.542 225.232 275.479 225.269C275.417 225.306 275.346 225.326 275.273 225.327Z" fill="#1F87F8"/>
<path d="M277.99 231.162C277.901 231.157 277.816 231.124 277.748 231.066C277.68 231.009 277.633 230.931 277.613 230.844C277.594 230.757 277.603 230.666 277.641 230.585C277.678 230.504 277.74 230.437 277.819 230.395L288.682 225.329C288.731 225.295 288.786 225.273 288.845 225.263C288.903 225.254 288.963 225.257 289.02 225.272C289.077 225.288 289.13 225.316 289.175 225.354C289.22 225.393 289.257 225.44 289.282 225.494C289.307 225.548 289.32 225.606 289.32 225.666C289.32 225.725 289.307 225.783 289.282 225.837C289.257 225.891 289.221 225.938 289.176 225.977C289.13 226.015 289.077 226.043 289.02 226.059L278.157 231.125C278.105 231.149 278.048 231.162 277.99 231.162Z" fill="#1F87F8"/>
<path d="M299.214 207.303C299.111 207.304 299.011 207.265 298.935 207.194C298.859 207.124 298.813 207.027 298.806 206.924L298.313 198.729C298.312 198.626 298.351 198.527 298.42 198.451C298.49 198.376 298.585 198.329 298.688 198.321C298.794 198.315 298.898 198.351 298.978 198.421C299.058 198.492 299.108 198.59 299.116 198.696L299.61 206.891C299.615 206.998 299.579 207.102 299.509 207.182C299.439 207.262 299.34 207.311 299.234 207.32L299.214 207.303Z" fill="#1F87F8"/>
<path d="M295.075 176.131H295.006C294.901 176.111 294.808 176.05 294.747 175.963C294.686 175.875 294.662 175.767 294.68 175.661L296.605 164.839C296.638 164.749 296.702 164.673 296.785 164.625C296.868 164.577 296.966 164.56 297.061 164.577C297.156 164.594 297.241 164.644 297.303 164.718C297.364 164.792 297.397 164.886 297.396 164.982L295.471 175.82C295.449 175.909 295.398 175.988 295.327 176.044C295.255 176.1 295.166 176.13 295.075 176.131Z" fill="#1F87F8"/>
<path d="M283.87 144.092H283.85L265.298 143.276C265.194 143.27 265.096 143.224 265.025 143.148C264.953 143.072 264.914 142.972 264.914 142.868C264.92 142.764 264.966 142.666 265.042 142.595C265.118 142.524 265.218 142.484 265.322 142.484L283.874 143.3C283.983 143.3 284.086 143.343 284.163 143.42C284.239 143.496 284.282 143.6 284.282 143.708C284.282 143.816 284.239 143.92 284.163 143.997C284.086 144.073 283.983 144.116 283.874 144.116L283.87 144.092Z" fill="#1F87F8"/>
<path d="M245.405 139.651C245.372 139.655 245.339 139.655 245.307 139.651L227.203 135.246C227.113 135.208 227.039 135.14 226.995 135.053C226.951 134.966 226.94 134.867 226.963 134.772C226.986 134.677 227.042 134.594 227.122 134.537C227.201 134.481 227.298 134.454 227.395 134.462L245.498 138.868C245.607 138.881 245.705 138.935 245.773 139.021C245.841 139.106 245.872 139.215 245.859 139.323C245.847 139.431 245.792 139.53 245.707 139.598C245.621 139.665 245.513 139.696 245.405 139.684V139.651Z" fill="#1F87F8"/>
<path d="M212.257 170.018H212.204C212.097 170.003 212.001 169.946 211.936 169.861C211.872 169.775 211.843 169.667 211.857 169.561L214.088 153.558C214.096 153.504 214.114 153.453 214.141 153.406C214.169 153.36 214.205 153.319 214.248 153.286C214.291 153.254 214.341 153.23 214.393 153.216C214.445 153.203 214.5 153.2 214.553 153.207C214.607 153.215 214.659 153.233 214.705 153.26C214.752 153.287 214.793 153.324 214.825 153.367C214.858 153.41 214.881 153.459 214.895 153.512C214.909 153.564 214.912 153.619 214.904 153.672L212.677 169.675C212.661 169.774 212.609 169.863 212.532 169.926C212.455 169.989 212.357 170.022 212.257 170.018Z" fill="#1F87F8"/>
<path d="M224.368 208.149C224.296 208.149 224.225 208.13 224.163 208.093C224.101 208.056 224.049 208.004 224.014 207.941L216.618 194.304C216.585 194.212 216.586 194.111 216.621 194.02C216.655 193.929 216.722 193.853 216.808 193.807C216.894 193.76 216.993 193.746 217.089 193.767C217.184 193.788 217.269 193.842 217.328 193.921L224.74 207.553C224.772 207.615 224.787 207.684 224.785 207.753C224.783 207.823 224.763 207.89 224.728 207.95C224.692 208.01 224.642 208.059 224.582 208.094C224.522 208.129 224.454 208.148 224.385 208.149H224.368Z" fill="#1F87F8"/>
<path d="M255.087 229.849C255.041 229.849 254.996 229.842 254.952 229.828L242.078 225.304C241.994 225.258 241.928 225.182 241.894 225.092C241.859 225.001 241.858 224.902 241.891 224.811C241.923 224.719 241.987 224.643 242.07 224.594C242.154 224.546 242.252 224.528 242.348 224.546L255.222 229.069C255.304 229.106 255.373 229.17 255.415 229.25C255.458 229.33 255.473 229.422 255.457 229.511C255.442 229.601 255.397 229.682 255.33 229.743C255.263 229.805 255.177 229.842 255.087 229.849Z" fill="#1F87F8"/>
<path d="M258.079 223.274C257.972 223.274 257.869 223.231 257.793 223.156L222.781 188.311C222.706 188.234 222.664 188.132 222.664 188.025C222.664 187.918 222.706 187.816 222.781 187.74C222.857 187.666 222.958 187.625 223.064 187.625C223.17 187.625 223.272 187.666 223.348 187.74L258.36 222.585C258.414 222.642 258.451 222.713 258.466 222.79C258.48 222.868 258.472 222.948 258.443 223.021C258.413 223.093 258.363 223.156 258.298 223.201C258.233 223.246 258.157 223.271 258.079 223.274Z" fill="#1F87F8"/>
<path d="M218.573 175.412C218.511 175.411 218.45 175.396 218.395 175.369C218.34 175.341 218.292 175.302 218.255 175.253C218.191 175.168 218.164 175.061 218.177 174.956C218.191 174.851 218.245 174.756 218.328 174.69L247.907 152.001C247.947 151.958 247.997 151.925 248.052 151.903C248.106 151.882 248.165 151.872 248.224 151.876C248.283 151.879 248.34 151.895 248.392 151.922C248.444 151.95 248.49 151.988 248.526 152.035C248.561 152.082 248.587 152.136 248.599 152.193C248.612 152.251 248.613 152.31 248.6 152.368C248.588 152.426 248.563 152.48 248.528 152.527C248.493 152.574 248.448 152.613 248.396 152.641L218.817 175.326C218.747 175.381 218.661 175.411 218.573 175.412Z" fill="#1F87F8"/>
<path d="M287.763 176.13C287.703 176.13 287.643 176.116 287.589 176.09C287.534 176.064 287.487 176.026 287.449 175.979L265.225 147.894C265.176 147.809 265.159 147.709 265.177 147.613C265.195 147.517 265.248 147.43 265.324 147.37C265.401 147.309 265.497 147.278 265.595 147.282C265.693 147.286 265.786 147.325 265.857 147.392L288.077 175.478C288.142 175.562 288.172 175.668 288.16 175.774C288.148 175.88 288.094 175.977 288.012 176.045C287.94 176.1 287.853 176.13 287.763 176.13Z" fill="#1F87F8"/>
<g opacity="0.5">
<path d="M275.277 225.327C275.21 225.326 275.144 225.309 275.085 225.278C274.993 225.226 274.925 225.141 274.894 225.039C274.864 224.938 274.874 224.829 274.922 224.735L290.097 196.67C290.116 196.613 290.147 196.561 290.188 196.518C290.229 196.475 290.279 196.441 290.334 196.419C290.39 196.397 290.449 196.388 290.509 196.391C290.568 196.395 290.627 196.412 290.679 196.44C290.731 196.469 290.777 196.508 290.812 196.556C290.848 196.604 290.872 196.659 290.884 196.718C290.896 196.776 290.895 196.837 290.881 196.895C290.867 196.952 290.84 197.007 290.803 197.053L275.632 225.115C275.597 225.178 275.546 225.232 275.483 225.269C275.421 225.306 275.35 225.326 275.277 225.327Z" fill="white"/>
<path d="M277.986 231.162C277.897 231.157 277.812 231.124 277.744 231.066C277.676 231.009 277.629 230.931 277.609 230.844C277.59 230.757 277.6 230.666 277.637 230.585C277.674 230.504 277.736 230.437 277.815 230.395L288.678 225.329C288.727 225.295 288.782 225.273 288.841 225.263C288.899 225.254 288.959 225.257 289.016 225.272C289.073 225.288 289.126 225.316 289.171 225.354C289.217 225.393 289.253 225.44 289.278 225.494C289.303 225.548 289.316 225.606 289.316 225.666C289.316 225.725 289.303 225.783 289.278 225.837C289.253 225.891 289.217 225.938 289.172 225.977C289.127 226.015 289.074 226.043 289.016 226.059L278.153 231.125C278.101 231.149 278.044 231.162 277.986 231.162Z" fill="white"/>
<path d="M299.212 207.303C299.109 207.304 299.009 207.265 298.933 207.194C298.858 207.124 298.811 207.027 298.804 206.924L298.311 198.729C298.31 198.626 298.349 198.527 298.418 198.451C298.488 198.376 298.583 198.329 298.686 198.321C298.792 198.315 298.896 198.351 298.976 198.421C299.056 198.492 299.106 198.59 299.114 198.696L299.608 206.891C299.613 206.998 299.577 207.102 299.507 207.182C299.437 207.262 299.339 207.311 299.232 207.32L299.212 207.303Z" fill="white"/>
<path d="M295.071 176.123H295.002C294.897 176.103 294.804 176.043 294.743 175.955C294.682 175.867 294.658 175.759 294.676 175.654L296.601 164.831C296.634 164.741 296.698 164.665 296.781 164.617C296.865 164.569 296.962 164.552 297.057 164.569C297.152 164.586 297.237 164.636 297.299 164.71C297.36 164.784 297.393 164.878 297.392 164.974L295.467 175.813C295.445 175.901 295.394 175.98 295.323 176.036C295.251 176.092 295.162 176.123 295.071 176.123Z" fill="white"/>
<path d="M283.868 144.092H283.848L265.296 143.276C265.192 143.27 265.094 143.224 265.023 143.148C264.952 143.072 264.912 142.972 264.912 142.868C264.918 142.764 264.964 142.666 265.04 142.595C265.116 142.524 265.216 142.484 265.32 142.484L283.873 143.3C283.981 143.3 284.084 143.343 284.161 143.42C284.237 143.496 284.28 143.6 284.28 143.708C284.28 143.816 284.237 143.92 284.161 143.997C284.084 144.073 283.981 144.116 283.873 144.116L283.868 144.092Z" fill="white"/>
<path d="M245.403 139.651C245.37 139.655 245.337 139.655 245.305 139.651L227.201 135.246C227.111 135.208 227.037 135.14 226.993 135.053C226.949 134.966 226.938 134.867 226.961 134.772C226.984 134.677 227.04 134.594 227.12 134.537C227.199 134.481 227.296 134.454 227.393 134.462L245.496 138.868C245.605 138.881 245.703 138.935 245.771 139.021C245.839 139.106 245.87 139.215 245.857 139.323C245.845 139.431 245.79 139.53 245.705 139.598C245.62 139.665 245.511 139.696 245.403 139.684V139.651Z" fill="white"/>
<path d="M212.255 170.01H212.202C212.095 169.995 211.999 169.938 211.935 169.853C211.87 169.767 211.841 169.66 211.855 169.553L214.086 153.55C214.094 153.497 214.112 153.445 214.139 153.398C214.167 153.352 214.203 153.311 214.246 153.278C214.289 153.246 214.339 153.222 214.391 153.208C214.443 153.195 214.498 153.192 214.551 153.199C214.605 153.207 214.657 153.225 214.703 153.252C214.75 153.28 214.791 153.316 214.823 153.359C214.856 153.402 214.879 153.452 214.893 153.504C214.907 153.556 214.91 153.611 214.902 153.664L212.675 169.667C212.659 169.766 212.607 169.855 212.53 169.919C212.453 169.982 212.355 170.014 212.255 170.01Z" fill="white"/>
<path d="M224.372 208.149C224.3 208.149 224.229 208.13 224.167 208.093C224.104 208.056 224.053 208.004 224.018 207.941L216.622 194.304C216.589 194.212 216.59 194.111 216.625 194.02C216.659 193.929 216.726 193.853 216.812 193.807C216.898 193.76 216.997 193.746 217.093 193.767C217.188 193.788 217.273 193.842 217.332 193.921L224.744 207.553C224.776 207.615 224.791 207.684 224.789 207.753C224.787 207.823 224.767 207.89 224.732 207.95C224.696 208.01 224.646 208.059 224.586 208.094C224.526 208.129 224.458 208.148 224.389 208.149H224.372Z" fill="white"/>
<path d="M255.093 229.849C255.047 229.849 255.002 229.842 254.958 229.828L242.084 225.304C241.999 225.258 241.934 225.182 241.9 225.092C241.865 225.001 241.864 224.902 241.897 224.811C241.929 224.719 241.993 224.643 242.076 224.594C242.16 224.546 242.258 224.528 242.353 224.546L255.228 229.069C255.31 229.106 255.378 229.17 255.421 229.25C255.464 229.33 255.479 229.422 255.463 229.511C255.448 229.601 255.403 229.682 255.336 229.743C255.269 229.805 255.183 229.842 255.093 229.849Z" fill="white"/>
<path d="M258.077 223.274C257.97 223.274 257.867 223.231 257.791 223.156L222.779 188.311C222.704 188.234 222.662 188.132 222.662 188.025C222.662 187.918 222.704 187.816 222.779 187.74C222.855 187.666 222.956 187.625 223.062 187.625C223.168 187.625 223.27 187.666 223.346 187.74L258.358 222.585C258.412 222.642 258.449 222.713 258.464 222.79C258.478 222.868 258.47 222.948 258.441 223.021C258.411 223.093 258.361 223.156 258.296 223.201C258.232 223.246 258.155 223.271 258.077 223.274Z" fill="white"/>
<path d="M218.577 175.412C218.515 175.411 218.454 175.396 218.399 175.369C218.344 175.341 218.296 175.302 218.258 175.253C218.195 175.168 218.167 175.061 218.181 174.956C218.195 174.851 218.249 174.756 218.332 174.69L247.911 152.001C247.951 151.958 248.001 151.925 248.056 151.903C248.11 151.882 248.169 151.872 248.228 151.876C248.287 151.879 248.344 151.895 248.396 151.922C248.448 151.95 248.494 151.988 248.529 152.035C248.565 152.082 248.59 152.136 248.603 152.193C248.616 152.251 248.617 152.31 248.604 152.368C248.592 152.426 248.567 152.48 248.532 152.527C248.497 152.574 248.452 152.613 248.4 152.641L218.821 175.326C218.751 175.381 218.665 175.411 218.577 175.412Z" fill="white"/>
<path d="M287.759 176.13C287.699 176.13 287.639 176.116 287.585 176.09C287.531 176.064 287.483 176.026 287.445 175.979L265.221 147.894C265.172 147.809 265.155 147.709 265.173 147.613C265.191 147.517 265.244 147.43 265.32 147.37C265.397 147.309 265.493 147.278 265.591 147.282C265.689 147.286 265.782 147.325 265.853 147.392L288.073 175.478C288.138 175.562 288.168 175.668 288.156 175.774C288.144 175.88 288.091 175.977 288.008 176.045C287.936 176.1 287.849 176.13 287.759 176.13Z" fill="white"/>
</g>
<path d="M105.897 251.997L105.985 251.909L143.241 210.316C143.628 209.844 143.882 209.276 143.975 208.673C144.069 208.069 143.999 207.451 143.773 206.884C143.213 205.27 142.279 203.811 141.046 202.627C139.814 201.444 138.319 200.568 136.683 200.073C136.101 199.866 135.475 199.814 134.867 199.923C134.259 200.031 133.689 200.297 133.215 200.694L91.9937 238.432L91.9161 238.521L91.7832 238.643C90.8862 239.542 90.1777 240.612 89.6991 241.789C89.2205 242.966 88.9814 244.226 88.9958 245.496C89.0103 246.767 89.2779 248.021 89.7831 249.187C90.2884 250.353 91.0211 251.406 91.9383 252.285C93.8116 254.069 96.3101 255.048 98.8973 255.011C101.485 254.973 103.954 253.923 105.775 252.086L105.897 251.997Z" fill="#37474F"/>
<path d="M136.653 200.117C133.595 199.352 131.812 201.224 132.665 204.169C133.227 205.779 134.16 207.234 135.39 208.416C136.62 209.597 138.112 210.472 139.744 210.969C142.801 211.733 144.596 209.861 143.743 206.927C143.183 205.313 142.248 203.854 141.016 202.67C139.784 201.487 138.289 200.612 136.653 200.117Z" fill="#1F87F8"/>
<path d="M98.1738 240.936L134.078 206.874C133.468 206.057 133 205.144 132.693 204.172C132.467 203.607 132.396 202.992 132.487 202.39C132.579 201.788 132.83 201.222 133.214 200.75L92.0033 238.478L91.9257 238.566L91.7928 238.688C90.8958 239.588 90.1873 240.657 89.7086 241.834C89.23 243.011 88.991 244.271 89.0054 245.542C89.0199 246.812 89.2875 248.067 89.7927 249.232C90.298 250.398 91.0307 251.451 91.9479 252.331C90.3194 249.695 93.4545 245.443 98.1738 240.936Z" fill="white" fill-opacity="0.26"/>
<path d="M155.07 192.741C154.73 191.765 154.165 190.884 153.42 190.168C152.675 189.453 151.771 188.923 150.783 188.621C150.433 188.493 150.055 188.46 149.687 188.524C149.32 188.588 148.976 188.748 148.689 188.987L135.207 202.629C134.973 202.916 134.82 203.261 134.764 203.627C134.707 203.993 134.749 204.367 134.886 204.711C135.227 205.685 135.793 206.564 136.538 207.278C137.283 207.992 138.186 208.52 139.173 208.819C139.523 208.949 139.901 208.983 140.269 208.919C140.637 208.854 140.981 208.694 141.267 208.454L154.749 194.811C154.984 194.527 155.138 194.185 155.195 193.82C155.251 193.456 155.208 193.083 155.07 192.741Z" fill="#E0E0E0"/>
<path opacity="0.25" d="M141.279 196.494L146.286 191.422C147.848 193.847 149.499 196.183 151.205 198.398L146.275 203.381C144.525 201.167 142.863 198.863 141.279 196.494Z" fill="#188AF7"/>
<path d="M141.385 134.254L149.948 129.371C156.407 125.65 165.358 126.181 175.24 131.873C194.992 143.279 211 171.007 211 193.807C211 205.213 207.001 213.219 200.52 216.951L192.001 221.823C189.16 223.423 185.945 224.241 182.684 224.193C177.876 224.193 172.459 222.632 166.71 219.31C146.957 207.915 130.949 180.187 130.949 157.387C130.927 146.003 134.926 137.997 141.385 134.254ZM187.06 166.279C180.79 155.427 172.548 146.69 163.851 141.673C159.98 139.248 155.561 137.832 151.001 137.554C150.342 137.536 149.683 137.566 149.029 137.642C146.315 141.053 144.819 146.247 144.819 152.846C144.819 162.89 148.276 174.396 154.535 185.248C160.794 196.1 169.047 204.826 177.743 209.842C182.418 212.544 186.96 213.972 190.882 213.972C191.445 213.973 192.007 213.94 192.566 213.873C193.066 213.238 193.514 212.564 193.906 211.857C195.768 208.535 196.776 204.106 196.776 198.669C196.776 188.625 193.319 177.097 187.06 166.279Z" fill="url(#paint22_linear_958_4119)"/>
<path opacity="0.1" d="M201.627 160.574L188.189 168.325C187.824 167.65 187.447 166.974 187.081 166.31C185.156 162.967 182.994 159.766 180.612 156.731L194.083 148.98C196.903 152.637 199.425 156.514 201.627 160.574ZM185.342 139.445C187.004 140.962 188.666 142.601 190.172 144.318L176.624 152.069C175.057 150.378 173.397 148.778 171.649 147.274L185.342 139.445Z" fill="white"/>
<path d="M192.048 221.789L200.501 216.961C206.97 213.23 210.98 205.223 210.98 193.818C210.98 193.375 210.98 192.943 210.98 192.5L202.472 197.361C202.472 197.804 202.472 198.247 202.472 198.679C202.461 210.04 198.473 218.069 192.048 221.789Z" fill="url(#paint23_linear_958_4119)"/>
<path d="M140.379 142.768C141.363 141.337 142.646 140.137 144.14 139.251C145.634 138.366 147.303 137.816 149.031 137.641C146.317 141.051 144.822 146.245 144.822 152.845C144.822 162.888 148.278 174.394 154.537 185.246C160.796 196.098 169.049 204.824 177.746 209.84C182.421 212.542 186.963 213.97 190.884 213.97C191.447 213.971 192.01 213.938 192.568 213.871C191.475 215.27 190.085 216.41 188.5 217.21C186.914 218.01 185.171 218.451 183.396 218.5H182.664C178.743 218.5 174.201 217.071 169.526 214.369C160.829 209.353 152.587 200.616 146.317 189.764C140.047 178.912 136.602 167.406 136.602 157.363C136.602 151.15 137.942 146.178 140.379 142.768Z" fill="url(#paint24_linear_958_4119)"/>
<path d="M166.686 136.74C186.438 148.146 202.457 175.874 202.457 198.663C202.457 221.453 186.438 230.71 166.686 219.304C146.933 207.899 130.925 180.182 130.925 157.381C130.925 134.581 146.933 125.345 166.686 136.74ZM169.522 214.388C174.208 217.09 178.739 218.518 182.66 218.518C184.97 218.577 187.249 217.985 189.237 216.81C191.225 215.635 192.843 213.925 193.905 211.874C195.777 208.552 196.774 204.123 196.774 198.685C196.774 188.642 193.329 177.136 187.058 166.295C180.788 155.454 172.546 146.684 163.85 141.657C159.977 139.233 155.559 137.817 150.999 137.537H150.711C141.848 137.537 136.597 144.957 136.597 157.381C136.597 167.436 140.054 178.941 146.313 189.782C152.572 200.623 160.825 209.371 169.522 214.388Z" fill="url(#paint25_linear_958_4119)"/>
<path d="M193.784 166.711C197.077 173.151 199.517 179.993 201.04 187.064C201.778 190.588 202.186 194.173 202.258 197.772C202.351 201.371 201.956 204.966 201.084 208.458C200.24 211.952 198.62 215.211 196.343 217.992C194.005 220.736 190.861 222.674 187.358 223.529C183.841 224.338 180.18 224.281 176.69 223.363C173.194 222.498 169.838 221.145 166.72 219.343C169.826 221.218 173.183 222.642 176.69 223.574C180.212 224.514 183.909 224.594 187.469 223.806C191.042 222.954 194.256 220.997 196.653 218.214C198.998 215.411 200.669 212.107 201.538 208.558C202.393 205.029 202.766 201.401 202.646 197.772C202.553 194.148 202.119 190.541 201.35 186.998C200.585 183.463 199.567 179.988 198.303 176.6C196.996 173.216 195.486 169.914 193.784 166.711Z" fill="url(#paint26_linear_958_4119)"/>
<path d="M150.715 137.541C148.921 137.511 147.14 137.838 145.475 138.504C143.794 139.215 142.295 140.293 141.088 141.66C139.898 143.019 138.947 144.569 138.274 146.245C137.583 147.915 137.081 149.657 136.778 151.438C136.214 154.994 136.113 158.609 136.479 162.191C136.821 165.765 137.489 169.301 138.473 172.755C139.443 176.215 140.68 179.596 142.173 182.865C143.643 186.141 145.331 189.315 147.225 192.366C150.965 198.523 155.586 204.1 160.94 208.921C163.645 211.311 166.593 213.412 169.736 215.189C172.887 217.019 176.344 218.265 179.939 218.865C181.775 219.162 183.648 219.143 185.478 218.81C188.24 218.28 190.74 216.828 192.568 214.69C193.171 214.006 193.705 213.264 194.163 212.476C195.075 210.892 195.761 209.188 196.201 207.415C197.044 203.897 197.351 200.272 197.11 196.663C196.881 193.045 196.299 189.459 195.371 185.954C194.473 182.489 193.31 179.098 191.892 175.811C190.483 172.527 188.855 169.342 187.018 166.277C190.522 172.489 193.15 179.156 194.828 186.087C195.662 189.538 196.163 193.061 196.323 196.607C196.51 200.138 196.163 203.677 195.293 207.105C194.843 208.791 194.165 210.408 193.277 211.911C192.417 213.407 191.264 214.714 189.887 215.753C188.504 216.767 186.909 217.456 185.223 217.769C183.514 218.057 181.769 218.057 180.061 217.769C176.598 217.168 173.272 215.945 170.245 214.159C167.18 212.402 164.303 210.336 161.66 207.991C156.364 203.267 151.789 197.794 148.078 191.746C144.301 185.733 141.346 179.242 139.293 172.445C138.265 169.048 137.553 165.563 137.166 162.036C136.759 158.515 136.808 154.957 137.31 151.449C137.558 149.699 138.004 147.983 138.639 146.333C139.258 144.677 140.153 143.138 141.287 141.782C142.438 140.431 143.876 139.353 145.497 138.626C147.149 137.928 148.921 137.56 150.715 137.541Z" fill="url(#paint27_linear_958_4119)"/>
<path opacity="0.3" d="M146.623 138.148C147.953 137.736 149.34 137.531 150.733 137.539H151.021C155.574 137.821 159.984 139.237 163.849 141.659C172.546 146.675 180.788 155.412 187.058 166.264C193.328 177.116 196.773 188.61 196.773 198.654C196.773 204.069 195.765 208.532 193.904 211.843C193.11 213.3 192.055 214.599 190.791 215.674C189.462 216.091 188.075 216.297 186.681 216.283C182.76 216.283 178.218 214.866 173.543 212.164C164.846 207.148 156.604 198.399 150.334 187.558C144.064 176.717 140.629 165.201 140.629 155.157C140.629 147.262 142.756 141.382 146.623 138.148Z" fill="white"/>
<path d="M285.18 233.061C285.18 231.915 285.592 231.121 286.252 230.757L290.235 228.333C290.896 227.86 291.847 227.872 292.908 228.49L342.442 257.1C343.477 257.777 344.339 258.687 344.957 259.758C345.575 260.829 345.932 262.03 346 263.265L345.794 334.444C345.837 334.878 345.766 335.316 345.589 335.715C345.411 336.113 345.133 336.459 344.782 336.717L340.611 339.245C339.963 339.627 339.06 339.578 338.066 339.002L288.532 310.405C287.496 309.731 286.634 308.822 286.016 307.752C285.399 306.681 285.044 305.48 284.98 304.246L285.18 233.061Z" fill="url(#paint28_linear_958_4119)"/>
<path d="M292.596 238.354C291.171 237.529 290.008 238.196 290.001 239.833C290.051 240.726 290.31 241.596 290.757 242.371C291.205 243.146 291.828 243.805 292.578 244.294C294.008 245.112 295.166 244.452 295.172 242.815C295.124 241.921 294.866 241.051 294.418 240.276C293.97 239.501 293.346 238.842 292.596 238.354Z" fill="white"/>
<path d="M297.012 241L296.999 243.231L309.08 250.201L309.086 247.977L297.012 241Z" fill="white"/>
<path d="M309.001 252V253.346L315.596 257.152L315.602 255.807L309.001 252Z" fill="white"/>
<path d="M297.003 245L296.997 246.346L307.635 252.486L307.641 251.14L297.003 245Z" fill="white"/>
<path d="M316.898 266.904C314.515 265.528 312.576 266.637 312.564 269.371C312.643 270.865 313.075 272.32 313.824 273.616C314.573 274.911 315.618 276.012 316.873 276.826C319.255 278.202 321.189 277.093 321.201 274.353C321.121 272.86 320.689 271.408 319.941 270.113C319.193 268.819 318.151 267.719 316.898 266.904Z" fill="url(#paint29_linear_958_4119)"/>
<path d="M301.802 262.43L291.861 268.097L291.806 286.724L334.909 311.606L334.939 301.071L323.677 281.566L316.713 285.53L320.38 294.61L315.531 286.209L301.802 262.43Z" fill="url(#paint30_linear_958_4119)"/>
<path d="M337.176 272.275L289.788 244.914L289.66 287.95L337.048 315.305L337.176 272.275ZM291.812 286.726L291.867 268.099L301.807 262.432L315.536 286.211L320.386 294.612L316.718 285.52L323.683 281.555L334.939 301.073V311.608L291.836 286.726M316.931 266.905C318.184 267.72 319.226 268.82 319.974 270.114C320.722 271.409 321.154 272.862 321.234 274.354C321.234 277.094 319.288 278.203 316.906 276.828C315.648 276.018 314.598 274.922 313.844 273.63C313.09 272.337 312.652 270.884 312.566 269.39C312.566 266.656 314.518 265.547 316.9 266.923" fill="white"/>
<path opacity="0.5" d="M290.236 228.348C290.896 227.876 291.848 227.888 292.909 228.506L342.443 257.104C343.502 257.77 344.373 258.694 344.977 259.789L340.734 262.214C340.14 261.157 339.289 260.267 338.26 259.625L288.733 231.034C288.374 230.774 287.953 230.613 287.513 230.567C287.073 230.52 286.628 230.589 286.223 230.767L290.236 228.348Z" fill="white"/>
<path opacity="0.1" d="M346 263.267L345.794 334.446C345.837 334.88 345.766 335.318 345.589 335.716C345.411 336.115 345.133 336.46 344.782 336.719L340.611 339.247C340.969 338.99 341.253 338.644 341.434 338.243C341.615 337.841 341.687 337.399 341.642 336.961L341.848 265.782C341.804 264.516 341.43 263.283 340.763 262.206L345.006 259.781C345.626 260.841 345.968 262.04 346 263.267Z" fill="black"/>
<path d="M290.003 293V294.879L320.08 312.245L320.086 310.366L290.003 293Z" fill="#ECF4FE"/>
<path d="M290.009 301L290.003 302.879L320.08 320.245L320.086 318.366L290.009 301Z" fill="#ECF4FE"/>
<path d="M290.002 297.141V299.026L335.408 325.241L335.414 323.356L290.002 297.141Z" fill="#ECF4FE"/>
<path d="M233.282 31.284L368.603 108.634C368.916 108.837 369.176 109.11 369.363 109.431C369.55 109.752 369.658 110.112 369.68 110.482V128.767C369.657 129.136 369.547 129.494 369.359 129.813C369.17 130.131 368.908 130.4 368.595 130.598L366.554 131.754C366.219 131.918 365.851 132.004 365.478 132.004C365.104 132.004 364.736 131.918 364.401 131.754L229.079 54.3864C228.766 54.1845 228.505 53.9118 228.318 53.5906C228.131 53.2694 228.023 52.9087 228.003 52.5382V34.2189C228.022 33.8482 228.13 33.4874 228.319 33.1672C228.508 32.847 228.772 32.5767 229.088 32.3792L231.129 31.2241C231.468 31.067 231.839 30.9905 232.212 31.0009C232.586 31.0113 232.952 31.1083 233.282 31.284Z" fill="url(#paint31_linear_958_4119)"/>
<path d="M229.078 33.6005L364.4 111.002C364.719 111.2 364.986 111.471 365.177 111.793C365.369 112.114 365.48 112.477 365.502 112.85V131.127C365.502 131.803 365.028 132.076 364.434 131.743L229.078 54.384C228.765 54.1821 228.504 53.9095 228.317 53.5883C228.13 53.2671 228.022 52.9064 228.002 52.5358V34.2165C228.002 33.532 228.484 33.2582 229.078 33.6005Z" fill="white"/>
<path d="M228.863 34.4628V52.4912C228.883 52.712 228.951 52.9258 229.063 53.1179C229.174 53.3099 229.326 53.4756 229.509 53.6035L364.641 130.877V112.848C364.621 112.627 364.552 112.414 364.441 112.222C364.329 112.03 364.177 111.864 363.995 111.736L228.889 34.4628M228.622 33.4531C228.793 33.457 228.96 33.5073 229.104 33.5986L364.4 111C364.719 111.198 364.986 111.469 365.177 111.791C365.369 112.112 365.48 112.475 365.502 112.848V131.125C365.502 131.604 365.261 131.886 364.908 131.886C364.74 131.877 364.578 131.827 364.434 131.741L229.078 54.3822C228.765 54.1803 228.504 53.9076 228.317 53.5864C228.13 53.2652 228.022 52.9045 228.002 52.534V34.2146C228.002 33.7269 228.243 33.4531 228.596 33.4531H228.622Z" fill="#1B71F4"/>
<path d="M236.391 53.4831L287.756 82.883C290.046 84.2007 291.906 82.806 291.906 79.7685C291.906 76.7309 290.046 73.2057 287.756 71.8965L236.391 42.4967C234.101 41.179 232.241 42.5737 232.241 45.6112C232.241 48.6059 234.101 52.1312 236.391 53.4831Z" fill="#E9F3FE"/>
<path d="M285.266 81.4831L336.631 110.883C338.921 112.201 340.781 110.806 340.781 107.768C340.781 104.731 338.921 101.206 336.631 99.8965L285.266 70.4967C282.976 69.179 281.116 70.5737 281.116 73.6112C281.116 76.6059 282.976 80.1312 285.266 81.4831Z" fill="#E9F3FE"/>
<path d="M350.442 106.513C352.76 107.872 354.642 111.539 354.642 114.676C354.672 115.573 354.457 116.461 354.02 117.241L355.952 120.993C356.339 121.746 356.339 122.592 355.952 122.891C355.849 122.962 355.728 123 355.604 123C355.48 123 355.358 122.962 355.255 122.891C354.956 122.692 354.715 122.415 354.558 122.088L352.626 118.335C351.869 118.479 351.086 118.32 350.442 117.89C348.124 116.531 346.242 112.864 346.242 109.727C346.242 106.59 348.141 105.153 350.442 106.513ZM350.442 115.223C351.668 115.95 352.668 115.181 352.668 113.514C352.653 112.666 352.445 111.834 352.058 111.083C351.672 110.332 351.118 109.683 350.442 109.188C349.216 108.47 348.216 109.24 348.216 110.898C348.229 111.746 348.437 112.579 348.823 113.33C349.21 114.081 349.764 114.73 350.442 115.223Z" fill="url(#paint32_linear_958_4119)"/>
</g>
<defs>
<linearGradient id="paint0_linear_958_4119" x1="267.901" y1="34.6719" x2="267.901" y2="161.628" gradientUnits="userSpaceOnUse">
<stop stop-color="#27ADFF"/>
<stop offset="1" stop-color="#055FE7"/>
</linearGradient>
<linearGradient id="paint1_linear_958_4119" x1="263.562" y1="55.1933" x2="263.562" y2="144.816" gradientUnits="userSpaceOnUse">
<stop stop-color="#208BF9"/>
<stop offset="1" stop-color="#1963F2"/>
</linearGradient>
<linearGradient id="paint2_linear_958_4119" x1="366.118" y1="157.844" x2="366.118" y2="319.646" gradientUnits="userSpaceOnUse">
<stop stop-color="#055FE7"/>
<stop offset="1" stop-color="#27ADFF"/>
</linearGradient>
<linearGradient id="paint3_linear_958_4119" x1="217.248" y1="125.672" x2="217.248" y2="151.238" gradientUnits="userSpaceOnUse">
<stop stop-color="#27ADFF"/>
<stop offset="1" stop-color="#055FE7"/>
</linearGradient>
<linearGradient id="paint4_linear_958_4119" x1="214.491" y1="127.211" x2="214.491" y2="151.899" gradientUnits="userSpaceOnUse">
<stop stop-color="#208BF9"/>
<stop offset="1" stop-color="#084ED6"/>
</linearGradient>
<linearGradient id="paint5_linear_958_4119" x1="269" y1="222.367" x2="269" y2="247.937" gradientUnits="userSpaceOnUse">
<stop stop-color="#27ADFF"/>
<stop offset="1" stop-color="#055FE7"/>
</linearGradient>
<linearGradient id="paint6_linear_958_4119" x1="266.241" y1="223.906" x2="266.241" y2="248.594" gradientUnits="userSpaceOnUse">
<stop stop-color="#208BF9"/>
<stop offset="1" stop-color="#084ED6"/>
</linearGradient>
<linearGradient id="paint7_linear_958_4119" x1="298.73" y1="208.258" x2="298.73" y2="230.747" gradientUnits="userSpaceOnUse">
<stop stop-color="#27ADFF"/>
<stop offset="1" stop-color="#055FE7"/>
</linearGradient>
<linearGradient id="paint8_linear_958_4119" x1="296.29" y1="209.609" x2="296.29" y2="231.339" gradientUnits="userSpaceOnUse">
<stop stop-color="#208BF9"/>
<stop offset="1" stop-color="#084ED6"/>
</linearGradient>
<linearGradient id="paint9_linear_958_4119" x1="256.659" y1="134.508" x2="256.659" y2="154.309" gradientUnits="userSpaceOnUse">
<stop stop-color="#27ADFF"/>
<stop offset="1" stop-color="#055FE7"/>
</linearGradient>
<linearGradient id="paint10_linear_958_4119" x1="254.534" y1="135.703" x2="254.534" y2="154.821" gradientUnits="userSpaceOnUse">
<stop stop-color="#208BF9"/>
<stop offset="1" stop-color="#084ED6"/>
</linearGradient>
<linearGradient id="paint11_linear_958_4119" x1="295.547" y1="176.484" x2="295.547" y2="196.287" gradientUnits="userSpaceOnUse">
<stop stop-color="#27ADFF"/>
<stop offset="1" stop-color="#055FE7"/>
</linearGradient>
<linearGradient id="paint12_linear_958_4119" x1="293.411" y1="177.68" x2="293.411" y2="196.803" gradientUnits="userSpaceOnUse">
<stop stop-color="#208BF9"/>
<stop offset="1" stop-color="#084ED6"/>
</linearGradient>
<linearGradient id="paint13_linear_958_4119" x1="256.997" y1="170.672" x2="256.997" y2="192.424" gradientUnits="userSpaceOnUse">
<stop stop-color="#27ADFF"/>
<stop offset="1" stop-color="#055FE7"/>
</linearGradient>
<linearGradient id="paint14_linear_958_4119" x1="254.65" y1="171.984" x2="254.65" y2="192.99" gradientUnits="userSpaceOnUse">
<stop stop-color="#208BF9"/>
<stop offset="1" stop-color="#084ED6"/>
</linearGradient>
<linearGradient id="paint15_linear_958_4119" x1="233.946" y1="207.453" x2="233.946" y2="227.258" gradientUnits="userSpaceOnUse">
<stop stop-color="#27ADFF"/>
<stop offset="1" stop-color="#055FE7"/>
</linearGradient>
<linearGradient id="paint16_linear_958_4119" x1="231.815" y1="208.648" x2="231.815" y2="227.768" gradientUnits="userSpaceOnUse">
<stop stop-color="#208BF9"/>
<stop offset="1" stop-color="#084ED6"/>
</linearGradient>
<linearGradient id="paint17_linear_958_4119" x1="214.067" y1="172.477" x2="214.067" y2="192.279" gradientUnits="userSpaceOnUse">
<stop stop-color="#27ADFF"/>
<stop offset="1" stop-color="#055FE7"/>
</linearGradient>
<linearGradient id="paint18_linear_958_4119" x1="211.936" y1="173.672" x2="211.936" y2="192.791" gradientUnits="userSpaceOnUse">
<stop stop-color="#208BF9"/>
<stop offset="1" stop-color="#084ED6"/>
</linearGradient>
<linearGradient id="paint19_linear_958_4119" x1="211.263" y1="174.75" x2="211.263" y2="191.998" gradientUnits="userSpaceOnUse">
<stop stop-color="#27ADFF"/>
<stop offset="1" stop-color="#055FE7"/>
</linearGradient>
<linearGradient id="paint20_linear_958_4119" x1="297.699" y1="138.844" x2="297.699" y2="163.019" gradientUnits="userSpaceOnUse">
<stop stop-color="#27ADFF"/>
<stop offset="1" stop-color="#055FE7"/>
</linearGradient>
<linearGradient id="paint21_linear_958_4119" x1="295.078" y1="140.289" x2="295.078" y2="163.636" gradientUnits="userSpaceOnUse">
<stop stop-color="#208BF9"/>
<stop offset="1" stop-color="#084ED6"/>
</linearGradient>
<linearGradient id="paint22_linear_958_4119" x1="170.975" y1="127" x2="170.975" y2="224.195" gradientUnits="userSpaceOnUse">
<stop stop-color="#27ADFF"/>
<stop offset="1" stop-color="#055FE7"/>
</linearGradient>
<linearGradient id="paint23_linear_958_4119" x1="201.463" y1="196.498" x2="201.463" y2="217.793" gradientUnits="userSpaceOnUse">
<stop stop-color="#208BF9"/>
<stop offset="1" stop-color="#1963F2"/>
</linearGradient>
<linearGradient id="paint24_linear_958_4119" x1="164.432" y1="148.678" x2="164.432" y2="207.468" gradientUnits="userSpaceOnUse">
<stop stop-color="#208BF9"/>
<stop offset="1" stop-color="#1963F2"/>
</linearGradient>
<linearGradient id="paint25_linear_958_4119" x1="166.496" y1="144.462" x2="166.496" y2="211.591" gradientUnits="userSpaceOnUse">
<stop stop-color="#208BF9"/>
<stop offset="1" stop-color="#1963F2"/>
</linearGradient>
<linearGradient id="paint26_linear_958_4119" x1="184.694" y1="166.711" x2="184.694" y2="224.343" gradientUnits="userSpaceOnUse">
<stop stop-color="#27ADFF"/>
<stop offset="1" stop-color="#055FE7"/>
</linearGradient>
<linearGradient id="paint27_linear_958_4119" x1="166.727" y1="137.539" x2="166.727" y2="219.074" gradientUnits="userSpaceOnUse">
<stop stop-color="#27ADFF"/>
<stop offset="1" stop-color="#055FE7"/>
</linearGradient>
<linearGradient id="paint28_linear_958_4119" x1="315.323" y1="243.219" x2="315.323" y2="324.28" gradientUnits="userSpaceOnUse">
<stop stop-color="#208BF9"/>
<stop offset="1" stop-color="#1963F2"/>
</linearGradient>
<linearGradient id="paint29_linear_958_4119" x1="316.859" y1="267.828" x2="316.859" y2="275.902" gradientUnits="userSpaceOnUse">
<stop stop-color="#208BF9"/>
<stop offset="1" stop-color="#1963F2"/>
</linearGradient>
<linearGradient id="paint30_linear_958_4119" x1="313.255" y1="269.142" x2="313.255" y2="304.897" gradientUnits="userSpaceOnUse">
<stop stop-color="#208BF9"/>
<stop offset="1" stop-color="#1963F2"/>
</linearGradient>
<linearGradient id="paint31_linear_958_4119" x1="298.455" y1="44.7872" x2="298.455" y2="118.223" gradientUnits="userSpaceOnUse">
<stop stop-color="#208BF9"/>
<stop offset="1" stop-color="#1963F2"/>
</linearGradient>
<linearGradient id="paint32_linear_958_4119" x1="351.215" y1="108.321" x2="351.215" y2="120.681" gradientUnits="userSpaceOnUse">
<stop stop-color="#208BF9"/>
<stop offset="1" stop-color="#1963F2"/>
</linearGradient>
<clipPath id="clip0_958_4119">
<rect width="500" height="349" fill="white" transform="matrix(-1 0 0 1 500 0)"/>
</clipPath>
</defs>
</svg>
