<svg width="40" height="40" viewBox="0 0 40 40" fill="none" xmlns="http://www.w3.org/2000/svg">
<path d="M0 20C0 23.9556 1.17298 27.8224 3.37061 31.1114C5.56824 34.4004 8.69181 36.9638 12.3463 38.4776C16.0009 39.9913 20.0222 40.3874 23.9018 39.6157C27.7814 38.844 31.3451 36.9392 34.1421 34.1421C36.9392 31.3451 38.844 27.7814 39.6157 23.9018C40.3874 20.0222 39.9913 16.0009 38.4776 12.3463C36.9638 8.69181 34.4004 5.56824 31.1114 3.37061C27.8224 1.17298 23.9556 0 20 0C17.3736 0 14.7728 0.517315 12.3463 1.52241C9.91982 2.5275 7.71504 4.00069 5.85786 5.85786C2.10714 9.60859 0 14.6957 0 20ZM18 10C18 9.46957 18.2107 8.96086 18.5858 8.58579C18.9609 8.21071 19.4696 8 20 8C20.5304 8 21.0391 8.21071 21.4142 8.58579C21.7893 8.96086 22 9.46957 22 10V18H26C26.5304 18 27.0391 18.2107 27.4142 18.5858C27.7893 18.9609 28 19.4696 28 20C28 20.5304 27.7893 21.0391 27.4142 21.4142C27.0391 21.7893 26.5304 22 26 22H20C19.7373 22.0001 19.4772 21.9484 19.2346 21.8479C18.9919 21.7474 18.7714 21.6001 18.5856 21.4144C18.3999 21.2286 18.2526 21.0081 18.1521 20.7654C18.0516 20.5228 17.9999 20.2627 18 20V10Z" fill="white"/>
</svg>
