<svg width="162" height="45" viewBox="0 0 162 45" fill="none" xmlns="http://www.w3.org/2000/svg">
<g filter="url(#filter0_iiii_1371_11573)">
<rect width="160" height="43" transform="translate(1 1)" fill="white"/>
<path d="M35.9062 33.9102C35.2969 33.1289 34.7266 32.5039 34.1953 32.0352C35.9453 30.6992 37.2891 29.3711 38.2266 28.0508L34.875 24.9922C35.3906 23.0234 35.8477 20.832 36.2461 18.418H34.3711V16.1328H36.6094C36.7969 14.7266 36.9688 13.2656 37.125 11.75L39.5859 11.9727C39.4141 13.207 39.2031 14.5938 38.9531 16.1328H43.3125V18.4766C43.1562 20.4766 42.9062 22.2227 42.5625 23.7148C42.2188 25.168 41.7617 26.4727 41.1914 27.6289C41.6445 28.0195 42.3164 28.6055 43.207 29.3867C43.6445 29.7773 43.9648 30.0625 44.168 30.2422L42.5156 32.1641C41.6719 31.3125 40.8164 30.4844 39.9492 29.6797C38.9805 31.0703 37.6328 32.4805 35.9062 33.9102ZM45.1406 33.7344C45 32.6562 44.8555 31.8203 44.707 31.2266C45.2461 31.2734 46.0742 31.2969 47.1914 31.2969C47.7383 31.2969 48.1211 31.1836 48.3398 30.957C48.5664 30.7227 48.6797 30.3203 48.6797 29.75V24.1133H43.5117V21.7227H48.6797V18.9922L52.2656 15.3242H44.3203V13.0039H55.2188V15.4414L51.1641 19.7305V21.7227H55.8516V24.1133H51.1641V30.4883C51.1641 31.5742 50.9375 32.3633 50.4844 32.8555C50.0156 33.3633 49.2344 33.6406 48.1406 33.6875C47.3984 33.7188 46.3984 33.7344 45.1406 33.7344ZM39.3633 26.0586C40.2539 24.0039 40.793 21.457 40.9805 18.418H38.543C38.1445 20.668 37.7383 22.6484 37.3242 24.3594L39.3633 26.0586ZM64.3125 33.8867C64.2188 33.2305 64.0664 32.4023 63.8555 31.4023C64.7461 31.4648 65.7305 31.4961 66.8086 31.4961C67.4258 31.4961 67.8398 31.3906 68.0508 31.1797C68.2617 30.9609 68.3672 30.543 68.3672 29.9258V28.0508H58.4648V25.7656H68.3672V25.0977L72.0469 22.7539H62.25V20.5391H75.6328V22.7773L70.9219 25.7656H79.6289V28.0508H70.8516V30.7344C70.8516 31.8203 70.625 32.6055 70.1719 33.0898C69.7188 33.5742 68.9609 33.8242 67.8984 33.8398C66.9766 33.8711 65.7812 33.8867 64.3125 33.8867ZM58.9805 21.3242V16.2617H72.3633L72 16.1328C73.2812 14.3438 74.2578 12.9258 74.9297 11.8789L77.4844 12.6641C77.2734 12.9531 76.9492 13.3984 76.5117 14C75.7773 15.0156 75.2227 15.7695 74.8477 16.2617H79.043V21.3242H76.6523V18.5H61.3945V21.3242H58.9805ZM62.543 16.0859C62.0977 15.3438 61.3711 14.2109 60.3633 12.6875L62.8008 11.9727C63.7148 13.2383 64.4648 14.3125 65.0508 15.1953L62.543 16.0859ZM68.4141 15.6641C67.7344 14.4453 67.0586 13.2812 66.3867 12.1719L68.8242 11.6211C69.6523 12.918 70.3594 14.0703 70.9453 15.0781L68.4141 15.6641ZM91.5703 33.9805V21.6758C89.5 24.1055 86.875 26.4102 83.6953 28.5898C83.1562 27.7617 82.6289 27.0078 82.1133 26.3281C84.668 24.6406 86.7695 22.9688 88.418 21.3125C90.0664 19.6562 91.4258 17.8477 92.4961 15.8867H82.8984V13.4258H103.371V15.8867H95.4961C94.7227 17.3008 93.8203 18.7109 92.7891 20.1172H94.2305V33.9805H91.5703ZM101.941 28.0977C100.09 26.4961 97.7812 24.625 95.0156 22.4844L96.6211 20.6914C98.4023 21.9727 100.793 23.7266 103.793 25.9531L101.941 28.0977ZM108.352 34.0156V22.4375C107.953 23.1875 107.371 24.1406 106.605 25.2969C106.504 24.5625 106.344 23.5977 106.125 22.4023C106.102 22.2539 106.082 22.1406 106.066 22.0625C107.832 18.9609 109.125 15.5156 109.945 11.7266L112.301 12.2891C111.91 13.9375 111.336 15.7539 110.578 17.7383V34.0156H108.352ZM117.668 33.4883C116.66 33.4883 115.891 33.2344 115.359 32.7266C114.805 32.1953 114.527 31.3984 114.527 30.3359V26.3984C113.59 27.1016 112.77 27.668 112.066 28.0977C111.809 27.5664 111.426 26.8867 110.918 26.0586C113.176 24.8477 114.875 23.5078 116.016 22.0391H111.891V20.0938H117.188C117.469 19.4375 117.672 18.832 117.797 18.2773H112.676V16.332H118.184C118.371 15.207 118.516 13.7109 118.617 11.8438H120.891C120.82 13.3984 120.672 14.8945 120.445 16.332H126.938V18.2773H120.082C120.066 18.3477 120.039 18.457 120 18.6055C119.82 19.2852 119.668 19.7812 119.543 20.0938H127.664V22.0391H123.258C123.812 22.8125 124.461 23.4727 125.203 24.0195C125.945 24.5664 126.848 25.0469 127.91 25.4609C127.824 25.6562 127.688 25.9414 127.5 26.3164C127.219 26.8867 127.016 27.3086 126.891 27.582C125.562 26.8555 124.441 26.1016 123.527 25.3203C123.527 26.0703 123.492 26.8594 123.422 27.6875C123.359 28.3906 123.168 28.918 122.848 29.2695C122.512 29.6211 122.004 29.8125 121.324 29.8438C120.449 29.8984 119.629 29.9258 118.863 29.9258C118.785 29.3164 118.656 28.7227 118.477 28.1445C118.961 28.1836 119.586 28.2031 120.352 28.2031C121.016 28.2031 121.375 27.9297 121.43 27.3828L121.5 26.2344H116.672V29.8203C116.672 30.4141 116.797 30.8359 117.047 31.0859C117.305 31.3438 117.758 31.4727 118.406 31.4727H122.449C122.996 31.4727 123.41 31.3828 123.691 31.2031C123.973 31.0234 124.168 30.7344 124.277 30.3359C124.473 29.75 124.621 29.0859 124.723 28.3438C125.473 28.6484 126.16 28.8945 126.785 29.082C126.535 30.207 126.324 31.0117 126.152 31.4961C125.934 32.1914 125.562 32.6953 125.039 33.0078C124.5 33.3281 123.742 33.4883 122.766 33.4883H117.668ZM116.895 24.3359H122.543C121.941 23.6562 121.414 22.8906 120.961 22.0391H118.617C118.18 22.7969 117.605 23.5625 116.895 24.3359ZM123.715 16.2031L122.203 14.9727C123.094 14.0039 123.867 13.0625 124.523 12.1484L126.176 13.2031C125.496 14.0781 124.676 15.0781 123.715 16.2031ZM115.5 16.1094C114.797 15.1406 114.066 14.2109 113.309 13.3203L114.867 12.2422C115.633 13.0859 116.387 13.9805 117.129 14.9258L115.5 16.1094Z" fill="url(#paint0_linear_1371_11573)"/>
<path d="M1 1L5 1" stroke="#D17C4D" stroke-linecap="round"/>
<path d="M1 1L1 5" stroke="#D17C4D" stroke-linecap="round"/>
<path d="M1 44L1 40" stroke="#D17C4D" stroke-linecap="round"/>
<path d="M1 44H5" stroke="#D17C4D" stroke-linecap="round"/>
<path d="M161 44L157 44" stroke="#D17C4D" stroke-linecap="round"/>
<path d="M161 44L161 40" stroke="#D17C4D" stroke-linecap="round"/>
<path d="M161 1L161 5" stroke="#D17C4D" stroke-linecap="round"/>
<path d="M161 1L157 1" stroke="#D17C4D" stroke-linecap="round"/>
</g>
<defs>
<filter id="filter0_iiii_1371_11573" x="-3.5" y="-3.5" width="169" height="52" filterUnits="userSpaceOnUse" color-interpolation-filters="sRGB">
<feFlood flood-opacity="0" result="BackgroundImageFix"/>
<feBlend mode="normal" in="SourceGraphic" in2="BackgroundImageFix" result="shape"/>
<feColorMatrix in="SourceAlpha" type="matrix" values="0 0 0 0 0 0 0 0 0 0 0 0 0 0 0 0 0 0 127 0" result="hardAlpha"/>
<feOffset dy="4"/>
<feGaussianBlur stdDeviation="4"/>
<feComposite in2="hardAlpha" operator="arithmetic" k2="-1" k3="1"/>
<feColorMatrix type="matrix" values="0 0 0 0 0.819608 0 0 0 0 0.486275 0 0 0 0 0.301961 0 0 0 0.2 0"/>
<feBlend mode="normal" in2="shape" result="effect1_innerShadow_1371_11573"/>
<feColorMatrix in="SourceAlpha" type="matrix" values="0 0 0 0 0 0 0 0 0 0 0 0 0 0 0 0 0 0 127 0" result="hardAlpha"/>
<feOffset dy="-4"/>
<feGaussianBlur stdDeviation="4"/>
<feComposite in2="hardAlpha" operator="arithmetic" k2="-1" k3="1"/>
<feColorMatrix type="matrix" values="0 0 0 0 0.819608 0 0 0 0 0.486275 0 0 0 0 0.301961 0 0 0 0.2 0"/>
<feBlend mode="normal" in2="effect1_innerShadow_1371_11573" result="effect2_innerShadow_1371_11573"/>
<feColorMatrix in="SourceAlpha" type="matrix" values="0 0 0 0 0 0 0 0 0 0 0 0 0 0 0 0 0 0 127 0" result="hardAlpha"/>
<feOffset dx="4"/>
<feGaussianBlur stdDeviation="4"/>
<feComposite in2="hardAlpha" operator="arithmetic" k2="-1" k3="1"/>
<feColorMatrix type="matrix" values="0 0 0 0 0.819608 0 0 0 0 0.486275 0 0 0 0 0.301961 0 0 0 0.2 0"/>
<feBlend mode="normal" in2="effect2_innerShadow_1371_11573" result="effect3_innerShadow_1371_11573"/>
<feColorMatrix in="SourceAlpha" type="matrix" values="0 0 0 0 0 0 0 0 0 0 0 0 0 0 0 0 0 0 127 0" result="hardAlpha"/>
<feOffset dx="-4"/>
<feGaussianBlur stdDeviation="4"/>
<feComposite in2="hardAlpha" operator="arithmetic" k2="-1" k3="1"/>
<feColorMatrix type="matrix" values="0 0 0 0 0.819608 0 0 0 0 0.486275 0 0 0 0 0.301961 0 0 0 0.2 0"/>
<feBlend mode="normal" in2="effect3_innerShadow_1371_11573" result="effect4_innerShadow_1371_11573"/>
</filter>
<linearGradient id="paint0_linear_1371_11573" x1="81" y1="6" x2="81" y2="38" gradientUnits="userSpaceOnUse">
<stop stop-color="#FCD9BB"/>
<stop offset="1" stop-color="#D17C4D"/>
</linearGradient>
</defs>
</svg>
