<svg width="162" height="45" viewBox="0 0 162 45" fill="none" xmlns="http://www.w3.org/2000/svg">
<g filter="url(#filter0_iiii_1371_4694)">
<rect width="160" height="43" transform="translate(1 1)" fill="white"/>
<path d="M52.043 33.793V32.8555H35.4609V24.5586H37.8984V30.4883H43.7109V22.2148H36.2461V13.8945H38.6602V19.8477H43.7109V11.8438H46.2422V19.8477H51.293V13.8945H53.707V22.2148H46.2422V30.4883H52.043V24.5586H54.457V33.793H52.043ZM59.25 34.0391C58.9844 33.4141 58.6172 32.6406 58.1484 31.7188C60.9297 31.3125 63.0469 30.7539 64.5 30.043C65.8516 29.3789 66.7656 28.5078 67.2422 27.4297H58.6641V25.3438H67.8047C67.8281 25.1328 67.8477 24.7617 67.8633 24.2305C67.8711 24.0039 67.875 23.8242 67.875 23.6914H70.3711C70.3477 24.1602 70.3047 24.7109 70.2422 25.3438H79.3594V27.4297H70.6523C71.4492 28.5703 72.6406 29.4609 74.2266 30.1016C75.5547 30.6328 77.4219 31.082 79.8281 31.4492C79.6953 31.7305 79.5156 32.1367 79.2891 32.668C79.0703 33.1836 78.9062 33.5586 78.7969 33.793C76.2031 33.3398 74.125 32.707 72.5625 31.8945C71.0547 31.1055 69.8906 30.0703 69.0703 28.7891C68.4062 30.0625 67.3281 31.1016 65.8359 31.9062C64.2969 32.7422 62.1016 33.4531 59.25 34.0391ZM59.8359 24.5586C59.3438 23.6367 58.9531 22.9375 58.6641 22.4609C60.3359 21.9844 61.7578 21.4688 62.9297 20.9141C64.0859 20.375 65.1484 19.7266 66.1172 18.9688H58.9805V16.8945H67.8516V11.7031H70.2656V16.8945H79.0664V18.9688H70.2656V21.0078L71.1914 19.332C74.1523 20.3867 76.918 21.4219 79.4883 22.4375L78.4336 24.4062C75.5586 23.2188 72.8359 22.1289 70.2656 21.1367V22.9297H67.8516V19.8477C66.7969 20.9102 65.6484 21.8008 64.4062 22.5195C63.2109 23.2148 61.6875 23.8945 59.8359 24.5586ZM73.3594 16.8242L71.9297 15.1719C73.0156 14.3906 74.332 13.3828 75.8789 12.1484L77.4141 13.7422C76.5938 14.3906 75.2969 15.3789 73.5234 16.707C73.4531 16.7617 73.3984 16.8008 73.3594 16.8242ZM64.418 16.7539C62.8477 15.4023 61.5938 14.3828 60.6562 13.6953L62.1445 12.1719C62.8242 12.6484 63.918 13.4609 65.4258 14.6094C65.6914 14.8203 65.8906 14.9766 66.0234 15.0781L64.418 16.7539ZM91.043 34.0156C90.6445 33.3359 90.1719 32.6211 89.625 31.8711C91.9688 31.043 93.8789 30.0391 95.3555 28.8594C94.3555 27.6328 93.5 26.1719 92.7891 24.4766C91.75 27.375 90.3359 30.0273 88.5469 32.4336C88.2891 31.7773 87.9102 30.9414 87.4102 29.9258C88.668 28.2227 89.6758 26.3984 90.4336 24.4531C91.1992 22.4922 91.7656 20.2852 92.1328 17.832H89.7891V15.6172H92.4023C92.5352 14.2812 92.625 12.9844 92.6719 11.7266L95.0625 11.7969C95.0156 12.3828 94.9453 13.2383 94.8516 14.3633C94.8047 14.9258 94.7695 15.3438 94.7461 15.6172H99.9375C99.3672 15.0391 98.5547 14.2578 97.5 13.2734C97.3672 13.1562 97.2695 13.0664 97.207 13.0039L98.7656 11.8203C99.7734 12.6406 100.75 13.4609 101.695 14.2812L100.16 15.6172H103.641V17.832H94.4531C94.3047 18.6445 94.1562 19.4336 94.0078 20.1992H102.152V22.4844C101.27 25.0234 100.086 27.1484 98.6016 28.8594C99.9766 29.9688 101.707 30.8398 103.793 31.4727C103.77 31.5117 103.738 31.5664 103.699 31.6367C103.145 32.582 102.746 33.293 102.504 33.7695C100.16 32.7617 98.3125 31.668 96.9609 30.4883C95.3906 31.832 93.418 33.0078 91.043 34.0156ZM82.6289 33.793C82.4961 32.8008 82.3633 31.9961 82.2305 31.3789H83.7188C84.0859 31.3789 84.3438 31.293 84.4922 31.1211C84.6484 30.9414 84.7266 30.6328 84.7266 30.1953V25.0977C84.4141 25.1914 83.9336 25.3516 83.2852 25.5781C82.8164 25.7422 82.4648 25.8594 82.2305 25.9297L82.0664 23.3984C82.4023 23.3125 82.957 23.1602 83.7305 22.9414C84.168 22.8164 84.5 22.7227 84.7266 22.6602V18.0078H82.4297V15.7109H84.7266V11.8203H86.9414V15.7109H88.9219V18.0078H86.9414V22.0156C87.918 21.7188 88.6562 21.4883 89.1562 21.3242C89.1562 22.3945 89.1641 23.1602 89.1797 23.6211L86.9414 24.3594V30.8867C86.9414 31.8398 86.7617 32.5352 86.4023 32.9727C86.0508 33.418 85.4844 33.6641 84.7031 33.7109C83.9453 33.7656 83.2539 33.793 82.6289 33.793ZM96.9844 27.3125C98.1797 25.9609 99.1172 24.3047 99.7969 22.3438H94.0312C94.7969 24.2891 95.7812 25.9453 96.9844 27.3125ZM115.793 34.0391V29.8203H106.312V27.7812H115.793V26.3047H118.16V27.7812H127.641V29.8203H118.16V34.0391H115.793ZM108.844 27.0195C108.812 26.9883 108.77 26.9453 108.715 26.8906C108.02 26.2266 107.5 25.7422 107.156 25.4375C108.25 24.7734 109.164 24.0508 109.898 23.2695C110.602 22.5195 111.199 21.6523 111.691 20.668L114.012 20.9141C113.848 21.2266 113.605 21.6758 113.285 22.2617C114.395 23.0586 115.465 23.8711 116.496 24.6992L114.891 26.2578C113.984 25.3984 113.066 24.6094 112.137 23.8906C111.277 24.9453 110.18 25.9883 108.844 27.0195ZM125.309 26.7734C123.832 25.6328 122.547 24.6641 121.453 23.8672C120.742 24.7656 119.938 25.5859 119.039 26.3281L117.398 24.7812C119.07 23.5859 120.242 22.1953 120.914 20.6094H107.238V18.6172H116.062C115.992 18.3359 115.875 17.918 115.711 17.3633C115.641 17.1211 115.586 16.9414 115.547 16.8242L117.984 16.5781C118.016 16.7109 118.07 16.9219 118.148 17.2109C118.312 17.8438 118.422 18.3125 118.477 18.6172H126.762V20.6094H120.984L123.234 20.8555C122.992 21.3945 122.754 21.8555 122.52 22.2383C123.652 22.9492 125.051 23.8789 126.715 25.0273L125.309 26.7734ZM111.574 17.4102V15.6406H106.383V13.6016H111.574V11.7969H113.918V13.6016H120.105V11.7969H122.426V13.6016H127.57V15.6406H122.426V17.4102H120.105V15.6406H113.918V17.4102H111.574Z" fill="url(#paint0_linear_1371_4694)"/>
<path d="M1 1L5 1" stroke="#FB9800" stroke-linecap="round"/>
<path d="M1 1L1 5" stroke="#FB9800" stroke-linecap="round"/>
<path d="M1 44L1 40" stroke="#FB9800" stroke-linecap="round"/>
<path d="M1 44H5" stroke="#FB9800" stroke-linecap="round"/>
<path d="M161 44L157 44" stroke="#FB9800" stroke-linecap="round"/>
<path d="M161 44L161 40" stroke="#FB9800" stroke-linecap="round"/>
<path d="M161 1L161 5" stroke="#FB9800" stroke-linecap="round"/>
<path d="M161 1L157 1" stroke="#FB9800" stroke-linecap="round"/>
</g>
<defs>
<filter id="filter0_iiii_1371_4694" x="-3.5" y="-3.5" width="169" height="52" filterUnits="userSpaceOnUse" color-interpolation-filters="sRGB">
<feFlood flood-opacity="0" result="BackgroundImageFix"/>
<feBlend mode="normal" in="SourceGraphic" in2="BackgroundImageFix" result="shape"/>
<feColorMatrix in="SourceAlpha" type="matrix" values="0 0 0 0 0 0 0 0 0 0 0 0 0 0 0 0 0 0 127 0" result="hardAlpha"/>
<feOffset dy="4"/>
<feGaussianBlur stdDeviation="4"/>
<feComposite in2="hardAlpha" operator="arithmetic" k2="-1" k3="1"/>
<feColorMatrix type="matrix" values="0 0 0 0 0.988235 0 0 0 0 0.647059 0 0 0 0 0.113725 0 0 0 0.2 0"/>
<feBlend mode="normal" in2="shape" result="effect1_innerShadow_1371_4694"/>
<feColorMatrix in="SourceAlpha" type="matrix" values="0 0 0 0 0 0 0 0 0 0 0 0 0 0 0 0 0 0 127 0" result="hardAlpha"/>
<feOffset dy="-4"/>
<feGaussianBlur stdDeviation="4"/>
<feComposite in2="hardAlpha" operator="arithmetic" k2="-1" k3="1"/>
<feColorMatrix type="matrix" values="0 0 0 0 0.988235 0 0 0 0 0.647059 0 0 0 0 0.113725 0 0 0 0.2 0"/>
<feBlend mode="normal" in2="effect1_innerShadow_1371_4694" result="effect2_innerShadow_1371_4694"/>
<feColorMatrix in="SourceAlpha" type="matrix" values="0 0 0 0 0 0 0 0 0 0 0 0 0 0 0 0 0 0 127 0" result="hardAlpha"/>
<feOffset dx="4"/>
<feGaussianBlur stdDeviation="4"/>
<feComposite in2="hardAlpha" operator="arithmetic" k2="-1" k3="1"/>
<feColorMatrix type="matrix" values="0 0 0 0 0.988235 0 0 0 0 0.647059 0 0 0 0 0.113725 0 0 0 0.2 0"/>
<feBlend mode="normal" in2="effect2_innerShadow_1371_4694" result="effect3_innerShadow_1371_4694"/>
<feColorMatrix in="SourceAlpha" type="matrix" values="0 0 0 0 0 0 0 0 0 0 0 0 0 0 0 0 0 0 127 0" result="hardAlpha"/>
<feOffset dx="-4"/>
<feGaussianBlur stdDeviation="4"/>
<feComposite in2="hardAlpha" operator="arithmetic" k2="-1" k3="1"/>
<feColorMatrix type="matrix" values="0 0 0 0 0.988235 0 0 0 0 0.647059 0 0 0 0 0.113725 0 0 0 0.2 0"/>
<feBlend mode="normal" in2="effect3_innerShadow_1371_4694" result="effect4_innerShadow_1371_4694"/>
</filter>
<linearGradient id="paint0_linear_1371_4694" x1="81" y1="6" x2="81" y2="38" gradientUnits="userSpaceOnUse">
<stop stop-color="#FFED99"/>
<stop offset="1" stop-color="#FB9800"/>
</linearGradient>
</defs>
</svg>
