<svg width="162" height="45" viewBox="0 0 162 45" fill="none" xmlns="http://www.w3.org/2000/svg">
<g filter="url(#filter0_iiii_1371_9853)">
<rect width="160" height="43" transform="translate(1 1)" fill="white"/>
<path d="M38.1211 34.0625V25.9883C37.3867 26.2383 36.4297 26.5469 35.25 26.9141C35 26.3125 34.6328 25.5508 34.1484 24.6289C37.5391 23.8086 40.4258 22.8398 42.8086 21.7227C41.707 20.6836 40.5586 19.6758 39.3633 18.6992L41.0742 17.2461C42.2539 18.1367 43.5859 19.2344 45.0703 20.5391C47.0938 19.3672 48.957 17.957 50.6602 16.3086H41.6367C40.082 17.8555 38.1797 19.3828 35.9297 20.8906C35.6016 20.4375 35.1523 19.8398 34.582 19.0977C34.5273 19.0273 34.4883 18.9766 34.4648 18.9453C36.2695 17.8594 37.8164 16.7422 39.1055 15.5938C40.4023 14.4375 41.5625 13.1406 42.5859 11.7031L45.1992 12.1719C44.5898 12.9922 44.0859 13.6328 43.6875 14.0938H53.8008V16.4023C52.3398 18.082 50.832 19.4922 49.2773 20.6328C47.6914 21.7969 45.8086 22.8672 43.6289 23.8438H53.9297V34.0625H51.5391V32.75H40.5117V34.0625H38.1211ZM40.5117 30.5586H51.5391V26.0352H40.5117V30.5586ZM60.5039 34.0625C59.8477 33.2109 59.293 32.5352 58.8398 32.0352C61.3633 30.3164 63.2656 28.5625 64.5469 26.7734C63.7656 26.0547 62.6758 25.0938 61.2773 23.8906C61.207 23.8203 61.1523 23.7695 61.1133 23.7383C60.6055 24.4648 60.0039 25.2031 59.3086 25.9531C59.1367 25.6641 58.8789 25.2422 58.5352 24.6875C58.332 24.3594 58.1758 24.1094 58.0664 23.9375C59.2773 22.4141 60.2227 20.9766 60.9023 19.625C61.5898 18.25 62.125 16.7266 62.5078 15.0547H58.8633V12.7109H70.5V15.0547H65.0156C64.7578 16.1641 64.4727 17.1484 64.1602 18.0078H69.6445V20.2227C69.0742 23.2461 68.125 25.7852 66.7969 27.8398C65.3906 30.0117 63.293 32.0859 60.5039 34.0625ZM72.1289 33.7109C72.0117 32.9062 71.8516 32.0469 71.6484 31.1328C72.6719 31.1797 73.6875 31.2031 74.6953 31.2031C75.3281 31.2031 75.7539 31.0898 75.9727 30.8633C76.1914 30.6367 76.3008 30.207 76.3008 29.5742V11.9258H78.668V30.1953C78.668 31.3984 78.4414 32.2617 77.9883 32.7852C77.543 33.3086 76.7852 33.5938 75.7148 33.6406C74.543 33.6875 73.3477 33.7109 72.1289 33.7109ZM71.4961 28.2266V14.5859H73.7461V28.2266H71.4961ZM65.7656 24.6758C66.3438 23.4883 66.8398 22.043 67.2539 20.3398H63.1875C62.9375 20.8633 62.5547 21.5391 62.0391 22.3672L62.3789 21.9688C63.707 23.0078 64.8359 23.9102 65.7656 24.6758ZM83.6133 34.0156V18.6641H93.3633V30.8281C93.3633 31.7969 93.1758 32.4922 92.8008 32.9141C92.4258 33.3359 91.7852 33.5781 90.8789 33.6406C90.0039 33.6719 89.0859 33.6875 88.125 33.6875C88.1094 33.6016 88.0859 33.4609 88.0547 33.2656C87.9141 32.4453 87.7969 31.8477 87.7031 31.4727C88.5547 31.5039 89.3281 31.5195 90.0234 31.5195C90.4609 31.5195 90.7617 31.4414 90.9258 31.2852C91.0898 31.1289 91.1719 30.832 91.1719 30.3945V28.7891H85.8047V34.0156H83.6133ZM96.4336 33.7109L96 31.3555C97.0391 31.3867 97.8906 31.4023 98.5547 31.4023C99.1484 31.4023 99.5625 31.2852 99.7969 31.0508C100.031 30.8164 100.148 30.3984 100.148 29.7969V18.1484H102.363V30.3711C102.363 31.5273 102.152 32.3477 101.73 32.832C101.309 33.3242 100.57 33.5938 99.5156 33.6406C98.5156 33.6875 97.4883 33.7109 96.4336 33.7109ZM95.6133 29.3281V19.1914H97.6875V29.3281H95.6133ZM85.8047 26.8672H91.1719V24.7227H85.8047V26.8672ZM85.8047 22.8359H91.1719V20.7148H85.8047V22.8359ZM82.2656 16.7539V14.6328H88.2188L86.3906 12.2422L88.8516 11.6211C89.6094 12.5508 90.3828 13.5469 91.1719 14.6094L91.1016 14.6328H94.9453C95.6641 13.7656 96.3984 12.7812 97.1484 11.6797L99.7031 12.2422C99.4531 12.5859 99.0273 13.1367 98.4258 13.8945C98.168 14.2227 97.9766 14.4688 97.8516 14.6328H103.734V16.7539H82.2656ZM113.309 33.793C113.137 32.9102 112.965 32.1367 112.793 31.4727C113.801 31.5039 114.703 31.5195 115.5 31.5195C116.102 31.5195 116.516 31.4102 116.742 31.1914C116.969 30.9727 117.082 30.5898 117.082 30.043V25.6836C115.809 27.2461 114.449 28.5703 113.004 29.6562C111.535 30.7578 109.711 31.8164 107.531 32.832C107.016 31.9961 106.543 31.2734 106.113 30.6641C107.988 29.9375 109.609 29.1523 110.977 28.3086C112.344 27.4648 113.609 26.4688 114.773 25.3203H106.453V23.2695H115.523C113.469 22.3008 111.785 21.5391 110.473 20.9844L111.598 19.707H108.188V17.6797H125.672V19.8477L119.039 23.2227L118.992 23.2695H127.477V25.3438L125.449 29.6562C125.051 29.5 124.285 29.2344 123.152 28.8594L124.91 25.3203H119.473V30.5352C119.473 31.5977 119.242 32.3828 118.781 32.8906C118.297 33.4062 117.52 33.6875 116.449 33.7344C115.512 33.7734 114.465 33.793 113.309 33.793ZM117.164 21.9688L121.816 19.707H112.277C114.457 20.6914 116.086 21.4453 117.164 21.9688ZM111.844 16.918V15.5703H106.289V13.4258H111.844V11.7031H114.234V13.4258H119.895V11.7031H122.285V13.4258H127.688V15.5703H122.285V16.918H119.895V15.5703H114.234V16.918H111.844Z" fill="url(#paint0_linear_1371_9853)"/>
<path d="M1 1L5 1" stroke="#7D7D7E" stroke-linecap="round"/>
<path d="M1 1L1 5" stroke="#7D7D7E" stroke-linecap="round"/>
<path d="M1 44L1 40" stroke="#7D7D7E" stroke-linecap="round"/>
<path d="M1 44H5" stroke="#7D7D7E" stroke-linecap="round"/>
<path d="M161 44L157 44" stroke="#7D7D7E" stroke-linecap="round"/>
<path d="M161 44L161 40" stroke="#7D7D7E" stroke-linecap="round"/>
<path d="M161 1L161 5" stroke="#7D7D7E" stroke-linecap="round"/>
<path d="M161 1L157 1" stroke="#7D7D7E" stroke-linecap="round"/>
</g>
<defs>
<filter id="filter0_iiii_1371_9853" x="-3.5" y="-3.5" width="169" height="52" filterUnits="userSpaceOnUse" color-interpolation-filters="sRGB">
<feFlood flood-opacity="0" result="BackgroundImageFix"/>
<feBlend mode="normal" in="SourceGraphic" in2="BackgroundImageFix" result="shape"/>
<feColorMatrix in="SourceAlpha" type="matrix" values="0 0 0 0 0 0 0 0 0 0 0 0 0 0 0 0 0 0 127 0" result="hardAlpha"/>
<feOffset dy="4"/>
<feGaussianBlur stdDeviation="4"/>
<feComposite in2="hardAlpha" operator="arithmetic" k2="-1" k3="1"/>
<feColorMatrix type="matrix" values="0 0 0 0 0.647059 0 0 0 0 0.654902 0 0 0 0 0.682353 0 0 0 0.3 0"/>
<feBlend mode="normal" in2="shape" result="effect1_innerShadow_1371_9853"/>
<feColorMatrix in="SourceAlpha" type="matrix" values="0 0 0 0 0 0 0 0 0 0 0 0 0 0 0 0 0 0 127 0" result="hardAlpha"/>
<feOffset dy="-4"/>
<feGaussianBlur stdDeviation="4"/>
<feComposite in2="hardAlpha" operator="arithmetic" k2="-1" k3="1"/>
<feColorMatrix type="matrix" values="0 0 0 0 0.647059 0 0 0 0 0.654902 0 0 0 0 0.682353 0 0 0 0.3 0"/>
<feBlend mode="normal" in2="effect1_innerShadow_1371_9853" result="effect2_innerShadow_1371_9853"/>
<feColorMatrix in="SourceAlpha" type="matrix" values="0 0 0 0 0 0 0 0 0 0 0 0 0 0 0 0 0 0 127 0" result="hardAlpha"/>
<feOffset dx="4"/>
<feGaussianBlur stdDeviation="4"/>
<feComposite in2="hardAlpha" operator="arithmetic" k2="-1" k3="1"/>
<feColorMatrix type="matrix" values="0 0 0 0 0.647059 0 0 0 0 0.654902 0 0 0 0 0.682353 0 0 0 0.3 0"/>
<feBlend mode="normal" in2="effect2_innerShadow_1371_9853" result="effect3_innerShadow_1371_9853"/>
<feColorMatrix in="SourceAlpha" type="matrix" values="0 0 0 0 0 0 0 0 0 0 0 0 0 0 0 0 0 0 127 0" result="hardAlpha"/>
<feOffset dx="-4"/>
<feGaussianBlur stdDeviation="4"/>
<feComposite in2="hardAlpha" operator="arithmetic" k2="-1" k3="1"/>
<feColorMatrix type="matrix" values="0 0 0 0 0.647059 0 0 0 0 0.654902 0 0 0 0 0.682353 0 0 0 0.3 0"/>
<feBlend mode="normal" in2="effect3_innerShadow_1371_9853" result="effect4_innerShadow_1371_9853"/>
</filter>
<linearGradient id="paint0_linear_1371_9853" x1="81" y1="6" x2="81" y2="38" gradientUnits="userSpaceOnUse">
<stop stop-color="#EDEEF1"/>
<stop offset="1" stop-color="#7D7D7E"/>
</linearGradient>
</defs>
</svg>
